<?xml version="1.0" encoding="UTF-8"?>
<!DOCTYPE svg PUBLIC "-//W3C//DTD SVG 1.1//EN" "http://www.w3.org/Graphics/SVG/1.1/DTD/svg11.dtd">
<!-- Creator: CorelDRAW -->
<svg xmlns="http://www.w3.org/2000/svg" xml:space="preserve" width="600mm" height="297mm" version="1.1" style="shape-rendering:geometricPrecision; text-rendering:geometricPrecision; image-rendering:optimizeQuality; fill-rule:evenodd; clip-rule:evenodd"
viewBox="0 0 60000 29700"
 xmlns:xlink="http://www.w3.org/1999/xlink"
 xmlns:xodm="http://www.corel.com/coreldraw/odm/2003">
 <defs>
  <style type="text/css">
   <![CDATA[
    .fil0 {fill:#FEFEFE}
    .fil9 {fill:#606062;fill-rule:nonzero}
    .fil10 {fill:#45B653;fill-rule:nonzero}
    .fil8 {fill:#00AFEF;fill-rule:nonzero}
    .fil1 {fill:url(#id0)}
    .fil5 {fill:url(#id1)}
    .fil6 {fill:url(#id2)}
    .fil7 {fill:url(#id3)}
    .fil4 {fill:url(#id4)}
    .fil2 {fill:url(#id5)}
    .fil3 {fill:url(#id6)}
   ]]>
  </style>
  <linearGradient id="id0" gradientUnits="userSpaceOnUse" x1="25391.95" y1="9461.2" x2="25391.95" y2="13012.69">
   <stop offset="0" style="stop-opacity:1; stop-color:#FFCC29"/>
   <stop offset="0.301961" style="stop-opacity:1; stop-color:#FFCC29"/>
   <stop offset="1" style="stop-opacity:1; stop-color:#ED3237"/>
  </linearGradient>
  <linearGradient id="id1" gradientUnits="userSpaceOnUse" xlink:href="#id0" x1="4650.07" y1="17369.34" x2="4650.07" y2="20201.87">
  </linearGradient>
  <linearGradient id="id2" gradientUnits="userSpaceOnUse" xlink:href="#id0" x1="11970.33" y1="6617.28" x2="11970.33" y2="10096.88">
  </linearGradient>
  <linearGradient id="id3" gradientUnits="userSpaceOnUse" xlink:href="#id0" x1="7806.97" y1="10096.88" x2="7806.97" y2="19761.9">
  </linearGradient>
  <linearGradient id="id4" gradientUnits="userSpaceOnUse" xlink:href="#id0" x1="18861.83" y1="10216.33" x2="17849.64" y2="21619.9">
  </linearGradient>
  <linearGradient id="id5" gradientUnits="userSpaceOnUse" xlink:href="#id0" x1="15351.67" y1="8683.57" x2="15351.67" y2="19429.21">
  </linearGradient>
  <linearGradient id="id6" gradientUnits="userSpaceOnUse" xlink:href="#id0" x1="18279.18" y1="10743.45" x2="18279.18" y2="22910.87">
  </linearGradient>
 </defs>
 <g id="Camada_x0020_1">
  <metadata id="CorelCorpID_0Corel-Layer"/>
  <g id="_1491913451056">
   <rect class="fil0" x="815.4" y="4740.08" width="58000" height="21750"/>
   <g>
    <path class="fil1" d="M27526.22 13012.67c-1110.08,-1539.72 -2599.77,-2734.6 -4268.55,-3551.47l0 0c1563.22,956.7 2943.33,2226.25 4268.55,3551.47z"/>
    <path class="fil2" d="M7322.52 18100c32.37,453.39 97.42,896.87 190.73,1329.25l0 0c189.19,-35.16 379.16,-67.66 570.12,-94.14l0 0c-413.36,-1928.72 -200.95,-3995.27 547.26,-5741.03l0 0c2738.57,-5586.64 9522.01,-6631.9 14627.04,-4132.88l0 0c-1008.51,-617.22 -2092.61,-1105.43 -3289.64,-1390.45l0 0c-729.79,-145.93 -1456.26,-215.91 -2170.3,-215.91l0 0c-5685.85,-0.12 -10604.34,4434.16 -10475.21,10245.16l0 0z"/>
    <path class="fil3" d="M13863.3 11559.21c-2802.79,1449.72 -4186.99,4697.54 -3691.35,7651.92l0 0c316.48,8.13 633.08,28.1 949.03,57.27l0 0 469.25 52.09c156.22,19.72 310.91,49.24 466.36,74.61l0 0 233.08 39.55 230.95 50.15 461.95 102.1c151.94,41.76 304.54,81.92 456.08,125.58l0 0 227.57 64.86 223.99 75.62 448.11 151.99c147.19,56.14 293.14,115.47 439.87,173.33l0 0c295.92,110.25 575.99,254.47 862.18,385.99l0 0c144.23,63.73 279.84,143.15 419.36,215.62l0 0 415.93 222.21 375.23 204.16c125.69,66.83 247.99,140.97 377.66,199.18l0 0c257.09,121.16 509.83,253.15 773.93,357.35l0 0 391.5 168.15 399.05 148.14 199.58 74.44 202.91 63.9c135.5,42.06 270.52,86.08 405.48,130.58l0 0 410.99 111.79 205.81 55.6 208.08 45.49c138.88,29.94 277.52,62.13 416.87,90.71l0 0 420.44 75.67c139.82,28.69 281.92,41.23 423.1,61.66l0 0c15.68,2.08 31.3,4.27 47,6.36l0 0c725.74,-1272.77 1097,-2794.54 996.38,-4404.64l0 0c228.74,1601.19 182.59,3111.19 -483.94,4461.25l0 0c97.64,9.61 195.49,19.25 293.43,27.45l0 0 429.52 22.63c39.57,2.72 79.19,4.21 118.81,5.16l0 0c2053.4,-4182.07 -694.93,-8889.36 -5009.11,-10039.75l0 0c4880.8,395.72 7242.31,5698.19 5790.63,10043.49l0 0c227.8,-2.49 455.48,-15.74 683.7,-29.35l0 0c141.85,-370.36 261.95,-753.13 357.24,-1147.78l0 0c726.68,-3924.44 -1162.82,-8139.66 -5087.27,-9447.77l0 0c-3488.46,-1162.82 -6831.49,726.7 -8575.72,3633.74l0 0c1017.47,-3052.33 3924.44,-4796.56 7122.13,-4505.86l0 0c2180.28,436.07 4215.21,1017.48 5668.74,2761.64l0 0c1882.33,2509.76 2481.68,5695.63 1697.12,8585.16l0 0c53.76,-7.78 107.58,-15.39 161.39,-23.29l0 0c655.01,-2207.89 583.78,-4611.95 -405.05,-6817.65l0 0c-1376.31,-3282.03 -4604.29,-5176 -7940.91,-5176.31l0 0c-1244.13,-0.05 -2502.75,263.1 -3687.08,815.81l0 0z"/>
    <path class="fil4" d="M10665.55 12431.33c-1644.91,1918.97 -2255.06,4355.09 -1831.72,6820.55l0 0c135.56,-11.47 271.29,-25.19 407.49,-27.85l0 0c177.49,-9.99 355.26,-14.97 533.24,-16.17l0 0c-860.25,-3995.97 1815.38,-7859.94 5542.2,-9102.17l0 0c4941.9,-1744.23 10465.23,1453.52 11918.69,6686.08l0 0c559.25,1837.6 675.8,3762.35 332.23,5606.42l0 0c23.34,-5.89 46.74,-11.53 69.98,-17.52l0 0c946.96,-4939.18 -1472.66,-10420.33 -6361.52,-12420.33l0 0c-1192.52,-458.69 -2443.61,-685.78 -3674.25,-685.83l0 0c-2669.33,-0.19 -5245.1,1067.6 -6936.34,3156.82l0 0z"/>
    <path class="fil5" d="M4906.3 20201.8c7.48,-3.03 14.91,-6.23 22.4,-9.26 -268.19,-928.25 -453.34,-1878.83 -557.23,-2823.16 0,0 54.22,1007.42 534.83,2832.42l0 0z"/>
    <path class="fil6" d="M9205.25 10096.83c1528.44,-1554.31 3464.05,-2753.66 5530.17,-3479.59 -2130.46,608.73 -4046.94,1855.9 -5530.17,3479.59z"/>
    <path class="fil7" d="M6143.9 19761.9c64.2,-19.37 128.61,-38.33 193.16,-56.8l0 0c-754.01,-3462.24 500.34,-7015.92 2868.19,-9608.27 -2432.61,2474.02 -3829.93,5849.92 -3061.35,9665.07l0 0z"/>
    <path class="fil8" d="M2374.75 22175.33c233.91,-192.51 486.43,-362.22 743.09,-525.21 258.39,-159.79 521.96,-314.29 793.89,-452.51 541.2,-283.57 1106.8,-523.37 1687.74,-726.99 581.64,-200.78 1178.66,-367.93 1788.17,-485.07 304.67,-58.58 611.59,-111.08 921.07,-145.95l232.07 -29.16 233.09 -20.61c155.5,-11.94 311.2,-29.82 467.42,-32.92 624.81,-35.16 1253.57,-13.42 1879.7,44.44l469.27 52.09c156.16,19.72 310.85,49.19 466.35,74.61l233.08 39.62 230.95 50.01 461.96 102.17c151.95,41.71 304.48,81.8 456.07,125.58l227.56 64.81 224 75.67 448.12 152.01c147.2,56.12 293.13,115.47 439.79,173.26 295.94,110.37 576,254.59 862.19,385.99 144.24,63.78 279.9,143.21 419.43,215.61l415.92 222.27 375.23 204.16c125.69,66.78 248,140.97 377.67,199.18 257.08,121.18 509.76,253.1 773.92,357.3l391.51 168.16 399.06 148.25 199.57 74.38 202.92 63.96c135.49,42 270.45,86.03 405.4,130.51l411 111.79 205.81 55.55 208.14 45.54c138.88,29.94 277.51,62.13 416.93,90.66l420.32 75.73c139.89,28.7 281.9,41.27 423.17,61.71 141.48,18.9 282.97,39.03 425.4,49.9 142.27,13.2 284.72,28.57 427.45,40.39l429.53 22.63c71.7,5 143.39,6.36 215.21,6.41l215.62 3.64 215.98 3.98 216.03 -4.35c288.63,-1.48 576.83,-22.14 866.47,-38.61l433.86 -37.36c144.17,-17.28 288.39,-35.82 433.56,-51.26 144.52,-18.58 288.57,-41.47 433.39,-61.96 144.69,-21.5 287.79,-51.07 432.67,-74.54 576.94,-104.66 1151.28,-241.88 1720.75,-408.32 569.29,-167.74 1135.33,-359.37 1690.54,-597.15 -233.74,192.76 -486.19,362.58 -742.8,525.81 -258.33,159.98 -521.89,314.46 -793.77,452.99 -541.13,283.82 -1106.73,523.79 -1687.67,727.71 -581.72,200.83 -1178.8,367.98 -1788.37,485.35 -304.71,58.82 -611.7,110.73 -921.23,145.95l-232.07 29.28 -233.09 20.61 -233.51 19.25c-77.92,6.53 -155.86,11.82 -234.02,13.44 -624.96,35.74 -1253.77,13.18 -1879.96,-44.56l-469.33 -51.91c-156.22,-19.61 -310.77,-50.31 -466.34,-75.21l-233.15 -39.55 -230.95 -49.96 -462.08 -102.11c-152.06,-41.1 -304.24,-82.62 -455.88,-126.16l-227.63 -64.81 -224 -75.62 -448.17 -152c-147.19,-56.13 -293.14,-115.47 -439.85,-173.27 -295.34,-111.79 -575.84,-254.94 -861.9,-386.7 -144.23,-63.8 -279.89,-143.21 -419.43,-215.68l-415.74 -222.63 -375.05 -204.58c-125.69,-66.71 -248,-140.89 -377.67,-199.1 -256.89,-121.47 -510.12,-252.4 -773.63,-358.06l-391.56 -168.11 -399.11 -148.14 -199.65 -74.44 -202.91 -63.85c-135.54,-41.87 -270.08,-87.32 -405.29,-131.15l-411.04 -111.73 -205.83 -55.6 -208.18 -45.45c-138.99,-29.39 -277.4,-62.83 -416.87,-91.24l-420.44 -75.6c-139.94,-28.64 -281.97,-41.17 -423.29,-61.61 -141.43,-18.89 -282.97,-38.78 -425.42,-50.31 -142.31,-13.19 -284.76,-28.46 -427.5,-40.28l-429.58 -22.51c-71.7,-4.99 -143.46,-6.3 -215.27,-6.35l-215.63 -3.97 -216.03 -3.93 -216.09 4.45c-288.64,1.9 -576.97,21.92 -866.6,38.56l-433.86 37.6c-144.16,17.64 -288.49,35.57 -433.62,51.2 -144.57,18.66 -288.62,41.57 -433.44,62.18 -144.7,21.39 -287.72,51.32 -432.73,74.49 -576.95,105.02 -1151.29,242.3 -1720.69,409.16 -569.24,167.98 -1135.14,359.84 -1690.12,598.15z"/>
    <polygon class="fil9" points="31173.1,18493.52 31270.97,18493.52 31270.97,19811.32 31173.1,19811.32 "/>
    <polygon class="fil9" points="31675.59,18493.52 31767.84,18493.52 32677.08,19639.99 32677.08,18493.52 32771.22,18493.52 32771.22,19811.3 32697.81,19811.3 31769.74,18640.35 31769.74,19811.3 31675.59,19811.3 "/>
    <path class="fil9" d="M33077.82 19619.28l63.97 -73.43c144.99,133.66 278.65,195.79 472.52,195.79 197.63,0 333.24,-111.13 333.24,-261.71l0 -3.76c0,-139.28 -73.48,-220.25 -372.79,-280.48 -316.25,-64.03 -444.25,-171.36 -444.25,-370.89l0 -3.73c0,-195.79 178.78,-346.43 423.57,-346.43 192.05,0 318.15,52.74 451.81,160.08l-62.13 77.15c-124.28,-107.32 -248.48,-148.73 -393.47,-148.73 -193.88,0 -321.9,111.08 -321.9,248.48l0 3.79c0,139.3 71.52,224.01 384.03,287.98 305.02,62.13 433.02,171.37 433.02,363.41l0 3.73c0,212.72 -182.59,359.61 -436.7,359.61 -210.88,0 -372.79,-69.68 -530.92,-210.86z"/>
    <polygon class="fil9" points="34704.07,18583.84 34244.74,18583.84 34244.74,18493.49 35261.3,18493.49 35261.3,18583.84 34801.97,18583.84 34801.97,19811.28 34704.07,19811.28 "/>
    <polygon class="fil9" points="35571.66,18493.52 35669.55,18493.52 35669.55,19811.32 35571.66,19811.32 "/>
    <polygon class="fil9" points="36439.38,18583.84 35980.04,18583.84 35980.04,18493.49 36996.61,18493.49 36996.61,18583.84 36537.27,18583.84 36537.27,19811.28 36439.38,19811.28 "/>
    <path class="fil9" d="M37273.07 19263.45l0 -769.95 97.89 0 0 760.57c0,310.54 167.57,489.46 446.16,489.46 267.3,0 438.66,-161.98 438.66,-480.08l0 -769.95 97.84 0 0 758.66c0,378.38 -220.26,579.82 -540.24,579.82 -316.32,0 -540.31,-199.53 -540.31,-568.53z"/>
    <polygon class="fil9" points="39089.42,18583.84 38630.06,18583.84 38630.06,18493.49 39646.65,18493.49 39646.65,18583.84 39187.29,18583.84 39187.29,19811.28 39089.42,19811.28 "/>
    <path class="fil9" d="M41005.65 19156.14l0 -3.74c0,-325.69 -237.18,-593.04 -562.94,-593.04 -325.63,0 -559.07,263.61 -559.07,589.24l0 3.8c0,325.69 237.18,592.99 562.87,592.99 325.63,0 559.14,-263.62 559.14,-589.25zm-1223.71 0l0 -3.74c0,-359.55 265.46,-681.49 664.57,-681.49 399.11,0 660.77,318.13 660.77,677.69 1.9,1.9 1.9,1.9 0,3.8 0,359.54 -265.47,681.44 -664.57,681.44 -399.04,0 -660.77,-318.1 -660.77,-677.7z"/>
    <path class="fil9" d="M42443.43 19720.91c367.1,0 598.63,-250.38 598.63,-564.79l0 -3.74c0,-312.49 -231.53,-568.58 -598.63,-568.58l-340.72 0 0 1137.11 340.72 0zm-438.66 -1227.39l438.66 0c414.14,0 700.27,284.22 700.27,655.06l0 3.8c0,370.84 -286.13,658.87 -700.27,658.87l-438.66 0 0 -1317.73z"/>
    <polygon class="fil9" points="43476.61,18493.52 44414.13,18493.52 44414.13,18583.85 43574.49,18583.85 43574.49,19101.53 44329.35,19101.53 44329.35,19191.94 43574.49,19191.94 43574.49,19720.9 44423.51,19720.9 44423.51,19811.3 43476.61,19811.3 "/>
    <path class="fil9" d="M45206.28 19156.14l0 -3.74c0,-374.64 282.39,-681.49 687.08,-681.49 248.53,0 397.27,82.79 519.58,203.31l-184.44 212.72c-101.63,-92.24 -205.17,-148.73 -336.97,-148.73 -222.16,0 -382.12,184.49 -382.12,410.39l0 3.8c0,225.9 156.22,414.14 382.12,414.14 150.58,0 242.82,-60.24 346.35,-154.33l184.56 186.34c-135.61,144.99 -286.19,235.29 -540.31,235.29 -387.81,0 -675.85,-299.32 -675.85,-677.7z"/>
    <polygon class="fil9" points="46666.83,18493.52 46956.77,18493.52 46956.77,19811.32 46666.83,19811.32 "/>
    <path class="fil9" d="M47643.72 18094.43l271.04 0 231.61 295.57 -220.26 0 -148.75 -124.26 -148.67 124.26 -216.5 0 231.53 -295.57zm-357.65 399.11l993.95 0 0 257.9 -705.97 0 0 267.3 621.26 0 0 257.86 -621.26 0 0 276.81 715.4 0 0 257.85 -1003.38 0 0 -1317.72z"/>
    <polygon class="fil9" points="48547.07,18493.52 48814.37,18493.52 49431.9,19304.87 49431.9,18493.52 49718.03,18493.52 49718.03,19811.3 49471.47,19811.3 48833.21,18973.53 48833.21,19811.3 48547.07,19811.3 "/>
    <path class="fil9" d="M49975.64 19156.14l0 -3.74c0,-374.64 282.39,-681.49 687.09,-681.49 248.52,0 397.25,82.79 519.56,203.31l-184.44 212.72c-101.63,-92.24 -205.17,-148.73 -336.97,-148.73 -222.16,0 -382.12,184.49 -382.12,410.39l0 3.8c0,225.9 156.22,414.14 382.12,414.14 150.58,0 242.83,-60.24 346.37,-154.33l184.54 186.34c-135.6,144.99 -286.18,235.29 -540.29,235.29 -387.83,0 -675.86,-299.32 -675.86,-677.7z"/>
    <polygon class="fil9" points="51436.19,18493.52 51726.12,18493.52 51726.12,19811.32 51436.19,19811.32 "/>
    <path class="fil9" d="M52812.18 19259.69l-175.07 -427.33 -175.11 427.33 350.18 0zm-304.97 -775.65l267.3 0 564.78 1327.24 -303.12 0 -120.46 -295.52 -557.23 0 -120.47 295.52 -295.57 0 564.77 -1327.24z"/>
    <polygon class="fil9" points="31429.11,20779.09 31028.1,20779.09 31028.1,20511.79 32120,20511.79 32120,20779.09 31719.04,20779.09 31719.04,21829.58 31429.11,21829.58 "/>
    <polygon class="fil9" points="32341.88,20511.79 33335.81,20511.79 33335.81,20769.71 32629.9,20769.71 32629.9,21037.01 33251.17,21037.01 33251.17,21294.91 32629.9,21294.91 32629.9,21571.66 33345.33,21571.66 33345.33,21829.58 32341.88,21829.58 "/>
    <path class="fil9" d="M33544.55 21174.4l0 -3.73c0,-374.65 282.39,-681.5 687.09,-681.5 248.52,0 397.27,82.79 519.56,203.32l-184.42 212.78c-101.64,-92.31 -205.17,-148.75 -336.98,-148.75 -222.16,0 -382.13,184.44 -382.13,410.41l0 3.74c0,225.89 156.22,414.14 382.13,414.14 150.56,0 242.82,-60.18 346.35,-154.34l184.56 186.35c-135.61,144.99 -286.19,235.29 -540.3,235.29 -387.83,0 -675.86,-299.33 -675.86,-677.71z"/>
    <polygon class="fil9" points="34991.91,20511.79 35259.21,20511.79 35876.73,21323.13 35876.73,20511.79 36162.87,20511.79 36162.87,21829.58 35916.29,21829.58 35278.04,20991.8 35278.04,21829.58 34991.91,21829.58 "/>
    <path class="fil9" d="M37517.98 21174.4l0 -3.73c0,-225.9 -165.67,-414.15 -399.11,-414.15 -233.39,0 -395.32,184.44 -395.32,410.41l0 3.74c0,225.89 165.67,414.14 399.12,414.14 233.38,0 395.31,-184.44 395.31,-410.41zm-1097.54 0l0 -3.73c0,-374.65 295.57,-681.5 702.23,-681.5 406.59,0 698.42,303.05 698.42,677.76l0 3.74c0,374.64 -295.57,681.44 -702.22,681.44 -406.6,0 -698.43,-303.06 -698.43,-677.71z"/>
    <polygon class="fil9" points="38078.62,20511.79 38368.56,20511.79 38368.56,21566.02 39025.52,21566.02 39025.52,21829.58 38078.62,21829.58 "/>
    <path class="fil9" d="M40207.52 21174.4l0 -3.73c0,-225.9 -165.67,-414.15 -399.11,-414.15 -233.39,0 -395.3,184.44 -395.3,410.41l0 3.74c0,225.89 165.66,414.14 399.1,414.14 233.38,0 395.31,-184.44 395.31,-410.41zm-1097.54 0l0 -3.73c0,-374.65 295.58,-681.5 702.23,-681.5 406.59,0 698.42,303.05 698.42,677.76l0 3.74c0,374.64 -295.57,681.44 -702.22,681.44 -406.6,0 -698.43,-303.06 -698.43,-677.71z"/>
    <path class="fil9" d="M40709.8 21174.4l0 -3.73c0,-374.65 291.77,-681.5 690.89,-681.5 237.18,0 380.27,64.04 517.73,180.76l-182.65 220.25c-101.59,-84.76 -191.99,-133.66 -344.47,-133.66 -210.86,0 -378.38,186.4 -378.38,410.41l0 3.74c0,240.93 165.67,417.93 399.06,417.93 105.43,0 199.57,-26.37 273,-79.06l0 -188.24 -291.78 0 0 -250.43 572.27 0 0 572.32c-135.56,114.83 -321.89,208.92 -562.89,208.92 -410.39,0 -692.78,-287.98 -692.78,-677.71z"/>
    <polygon class="fil9" points="42256.91,20511.75 42546.85,20511.75 42546.85,21829.55 42256.91,21829.55 "/>
    <path class="fil9" d="M43632.94 21277.96l-175.05 -427.33 -175.11 427.33 350.16 0zm-304.97 -775.59l267.3 0 564.79 1327.18 -303.13 0 -120.46 -295.52 -557.23 0 -120.46 295.52 -295.59 0 564.78 -1327.18z"/>
    <polygon class="fil9" points="44965.45,20511.79 45902.96,20511.79 45902.96,20602.14 45063.33,20602.14 45063.33,21119.8 45818.18,21119.8 45818.18,21210.22 45063.33,21210.22 45063.33,21739.18 45912.34,21739.18 45912.34,21829.58 44965.45,21829.58 "/>
    <polygon class="fil9" points="46766.62,20511.75 47056.55,20511.75 47056.55,21829.55 46766.62,21829.55 "/>
    <polygon class="fil9" points="47385.89,20511.79 47653.19,20511.79 48270.7,21323.13 48270.7,20511.79 48556.84,20511.79 48556.84,21829.58 48310.26,21829.58 47672.01,20991.8 47672.01,21829.58 47385.89,21829.58 "/>
    <path class="fil9" d="M49911.95 21174.4l0 -3.73c0,-225.9 -165.67,-414.15 -399.11,-414.15 -233.39,0 -395.3,184.44 -395.3,410.41l0 3.74c0,225.89 165.67,414.14 399.1,414.14 233.39,0 395.31,-184.44 395.31,-410.41zm-1097.53 0l0 -3.73c0,-374.65 295.57,-681.5 702.22,-681.5 406.6,0 698.44,303.05 698.44,677.76l0 3.74c0,374.64 -295.59,681.44 -702.24,681.44 -406.6,0 -698.42,-303.06 -698.42,-677.71z"/>
    <polygon class="fil9" points="50274.97,20511.79 50595.01,20511.79 50939.53,21439.85 51283.99,20511.79 51596.5,20511.79 51063.74,21838.96 50807.72,21838.96 "/>
    <path class="fil9" d="M52368.11 21277.96l-175.04 -427.33 -175.12 427.33 350.16 0zm-304.95 -775.59l267.3 0 564.78 1327.18 -303.12 0 -120.47 -295.52 -557.23 0 -120.46 295.52 -295.57 0 564.77 -1327.18z"/>
    <path class="fil9" d="M53403.22 22055.44l150.63 -222.1c-303.05,-69.68 -513.92,-335.14 -513.92,-658.92l0 -3.8c0,-374.58 282.38,-681.45 687.08,-681.45 248.53,0 397.27,82.81 519.57,203.34l-184.45 212.76c-101.63,-92.31 -205.15,-148.73 -336.97,-148.73 -222.16,0 -382.17,184.42 -382.17,410.39l0 3.69c0,225.94 156.27,414.19 382.17,414.19 150.58,0 242.83,-60.23 346.37,-154.32l184.49 186.33c-126.16,135.49 -265.4,222.11 -491.36,233.45l-122.36 304.95 -239.08 -99.78z"/>
    <path class="fil9" d="M55244.03 21277.96l-175.04 -427.33 -175.12 427.33 350.16 0zm-559.06 -897.96c43.23,-158.13 101.63,-259.76 233.43,-259.76 116.67,0 214.55,73.36 282.34,73.36 58.38,0 80.96,-31.96 107.33,-92.24l152.48 47.05c-43.31,158.12 -101.63,259.81 -233.44,259.81 -116.72,0 -214.62,-73.42 -282.39,-73.42 -58.32,0 -80.9,32.01 -107.34,92.24l-152.41 -47.04zm254.11 122.37l267.3 0 564.78 1327.18 -303.12 0 -120.47 -295.52 -557.23 0 -120.46 295.52 -295.57 0 564.77 -1327.18z"/>
    <path class="fil9" d="M57013.33 21174.4l0 -3.73c0,-225.9 -165.66,-414.15 -399.1,-414.15 -233.39,0 -395.31,184.44 -395.31,410.41l0 3.74c0,225.89 165.67,414.14 399.11,414.14 233.37,0 395.3,-184.44 395.3,-410.41zm-1097.54 0l0 -3.73c0,-374.65 295.59,-681.5 702.24,-681.5 406.58,0 698.42,303.05 698.42,677.76l0 3.74c0,374.64 -295.57,681.44 -702.22,681.44 -406.6,0 -698.44,-303.06 -698.44,-677.71z"/>
    <path class="fil9" d="M31598.55 23757.51c367.1,0 598.64,-250.38 598.64,-564.79l0 -3.74c0,-312.49 -231.54,-568.51 -598.64,-568.51l-340.71 0 0 1137.04 340.71 0zm-438.66 -1227.39l438.66 0c414.15,0 700.27,284.22 700.27,655.13l0 3.73c0,370.91 -286.12,658.87 -700.27,658.87l-438.66 0 0 -1317.73z"/>
    <polygon class="fil9" points="32631.74,22530.12 33569.25,22530.12 33569.25,22620.45 32729.63,22620.45 32729.63,23138.13 33484.49,23138.13 33484.49,23228.54 32729.63,23228.54 32729.63,23757.5 33578.63,23757.5 33578.63,23847.9 32631.74,23847.9 "/>
    <polygon class="fil9" points="34419.76,22530.12 34732.27,22530.12 35078.7,23087.35 35425.07,22530.12 35737.56,22530.12 35737.56,23847.9 35449.53,23847.9 35449.53,22987.55 35078.7,23550.42 35071.15,23550.42 34704,22993.19 34704,23847.9 34419.76,23847.9 "/>
    <path class="fil9" d="M36810.28 23296.27l-175.04 -427.31 -175.12 427.31 350.16 0zm-304.97 -775.58l267.31 0 564.79 1327.17 -303.13 0 -120.46 -295.5 -557.23 0 -120.46 295.5 -295.59 0 564.77 -1327.17z"/>
    <path class="fil9" d="M38124.05 23170.18c141.19,0 222.09,-75.32 222.09,-186.4l0 -3.75c0,-124.27 -86.61,-188.23 -227.79,-188.23l-287.98 0 0 378.38 293.68 0zm-583.61 -640.04l602.37 0c167.57,0 297.47,47.04 384.09,133.65 73.41,73.42 112.98,176.95 112.98,301.15l0 3.75c0,212.77 -114.88,346.43 -282.39,408.56l321.89 470.61 -338.83 0 -282.38 -421.62 -3.79 0 -224.01 0 0 421.62 -289.93 0 0 -1317.72z"/>
    <polygon class="fil9" points="38914.4,22530.12 39204.33,22530.12 39204.33,23847.9 38914.4,23847.9 "/>
    <path class="fil9" d="M39475.27 23192.74l0 -3.74c0,-374.64 282.41,-681.49 687.09,-681.49 248.54,0 397.27,82.79 519.58,203.31l-184.44 212.78c-101.64,-92.3 -205.17,-148.74 -336.98,-148.74 -222.16,0 -382.12,184.44 -382.12,410.4l0 3.74c0,225.9 156.22,414.14 382.12,414.14 150.58,0 242.82,-60.18 346.36,-154.33l184.55 186.34c-135.61,144.99 -286.19,235.29 -540.29,235.29 -387.82,0 -675.87,-299.32 -675.87,-677.7z"/>
    <path class="fil9" d="M41600.34 22093.36l246.62 107.34 -240.91 225.85 -218.42 0 212.71 -333.19zm79.07 1202.91l-175.06 -427.31 -175.05 427.31 350.11 0zm-304.97 -775.58l267.3 0 564.78 1327.17 -303.07 0 -120.5 -295.5 -557.25 0 -120.46 295.5 -295.57 0 564.77 -1327.17z"/>
    <polygon class="fil9" points="31074.36,10224.13 33274.61,10224.13 33274.61,16806.02 31074.36,16806.02 "/>
    <path class="fil9" d="M33894.91 13533.87l0 -18.84c0,-1965.13 1532.72,-3431.95 3497.84,-3431.95 1448.06,0 2425.91,705.2 2980.63,1711.26l-1814.66 1062.55c-244.55,-470.16 -592.4,-799.29 -1194.19,-799.29 -742.85,0 -1231.72,648.83 -1231.72,1438.67l0 18.76c0,855.66 507.76,1457.45 1231.72,1457.45 620.56,0 968.53,-338.46 1241.17,-827.45l1814.68 1024.89c-554.67,977.85 -1476.16,1777.08 -3112.27,1777.08 -1824.13,0 -3413.2,-1372.74 -3413.2,-3413.13z"/>
    <polygon class="fil9" points="42526.27,12085.85 40589.28,12085.85 40589.28,10224.13 46663.42,10224.13 46663.42,12085.85 44726.45,12085.85 44726.45,16806.02 42526.27,16806.02 "/>
    <polygon class="fil9" points="47180.3,10224.13 49380.53,10224.13 49380.53,16806.02 47180.3,16806.02 "/>
    <polygon class="fil9" points="50151.35,10224.11 52445.62,10224.11 53856.01,12537.15 55266.41,10224.11 57560.68,10224.11 57560.68,16806 55369.88,16806 55369.88,13543.27 53856.01,15884.53 53818.36,15884.53 52304.53,13543.27 52304.53,16806 50151.35,16806 "/>
    <path class="fil10" d="M4356.33 18436.15c0,0 -362.52,-1266.07 -2286.19,-1209.58 0,0 424.06,1131.64 941.2,1519.77 718.25,538.93 1344.99,-310.19 1344.99,-310.19z"/>
    <path class="fil10" d="M4617.13 18308.47c0,0 145.83,-509.36 919.75,-486.61 0,0 -170.6,455.24 -378.67,611.41 -288.93,216.76 -541.08,-124.8 -541.08,-124.8z"/>
   </g>
  </g>
 </g>
</svg>
