<?xml version="1.0" encoding="UTF-8"?>
<!DOCTYPE svg PUBLIC "-//W3C//DTD SVG 1.1//EN" "http://www.w3.org/Graphics/SVG/1.1/DTD/svg11.dtd">
<!-- Creator: CorelDRAW -->
<svg xmlns="http://www.w3.org/2000/svg" xml:space="preserve" width="209.903mm" height="296.686mm" version="1.1" style="shape-rendering:geometricPrecision; text-rendering:geometricPrecision; image-rendering:optimizeQuality; fill-rule:evenodd; clip-rule:evenodd"
viewBox="0 0 20990.28 29668.6"
 xmlns:xlink="http://www.w3.org/1999/xlink"
 xmlns:xodm="http://www.corel.com/coreldraw/odm/2003">
 <defs>
  <style type="text/css">
   <![CDATA[
    .str0 {stroke:#01BFF2;stroke-width:141.11;stroke-miterlimit:22.9256}
    .fil1 {fill:#FEFEFE}
    .fil2 {fill:#96989A}
    .fil4 {fill:#D0D2D3}
    .fil5 {fill:#7AB699}
    .fil3 {fill:#15A858}
    .fil0 {fill:#2A2B3D}
   ]]>
  </style>
 </defs>
 <g id="Camada_x0020_1">
  <metadata id="CorelCorpID_0Corel-Layer"/>
  <g id="_1491959024640">
   <path class="fil0 str0" d="M8582.83 16621.46l-3362.62 -3362.89c-534,-590.54 -603.09,-1165.62 1.28,-1805.62l3487.21 -3487.21c457.16,-362.01 1240.71,-431.1 1806.77,-1.14l3363.69 3363.66c484.81,605.62 501.85,1208.79 1.69,1809.53l-3487.04 3487.1c-528.21,378.41 -1322.4,340.8 -1810.98,-3.43z"/>
   <g>
    <path class="fil1" d="M7325.87 12917.26l-0.9 -13.46c-41.62,-13.82 -73.14,-27.62 -78.27,-76.5 -4.97,-47.32 -0.97,-999.84 -0.7,-1065.72 15.14,8.83 86.03,84.06 93.72,98.28 13.51,6.49 109.46,108.38 127.59,127.68 98.81,105.19 215.92,220.03 310.87,322.38l434.65 451.89c20.06,19.62 43.57,42.25 56.45,70.1 23.89,51.69 -36.07,66.98 -47.45,73.72l-0.17 40.03 540.93 1.15 -0.03 -41.18c-58.32,-38.99 -79.72,2.05 -79.71,-147.73l0 -1361.27c-0.01,-120.5 3.63,-108.59 80.07,-144.21l-0.84 -41.43 -413.15 -0.25 -89.32 0.63 -0.43 41.5c35.48,12.37 64.8,21.74 75.53,57.43 8.49,28.2 4.88,95.17 4.88,128.55 0,257.24 -6.22,552.82 0.19,801.24l-1.34 129.64 -264.42 -274.7c-21.58,-18.89 -45.96,-48.46 -66.39,-70.82 -11.05,-12.08 -22.61,-20.9 -33.7,-33.08l-232.73 -242.16c-22.48,-23.28 -41.26,-46.86 -64.07,-69.71l-200.58 -207.42c-34.89,-37.82 -112.68,-108.96 -121.89,-145.61 -12.19,-48.43 20.75,-59.18 51.76,-74.23l-0.53 -40.97 -493.99 -0.04 -89.29 -0.11 -0.5 43c82.25,16.9 79.96,62.81 79.96,149.79l0 1354.23c0,33.78 5.09,75.53 -10.91,102.87 -19.96,34.11 -41.53,26.06 -68.75,44.86l-0.26 40.07 503.7 -1 0.02 -27.44z"/>
    <path class="fil1" d="M10010.91 11747.88c14.15,20.81 212.06,466.91 212.88,476.47 9.4,7.25 17.66,27.38 18.68,39.67l-553.63 -1.26 279.94 -606.23c12.86,14.44 35.55,70.34 42.13,91.35zm-1060.91 1197.35l570.52 -0.13 0.06 -39.47c-20.32,-11.78 -79.91,-20.66 -84.05,-73.76 -3.55,-45.44 68.36,-181.05 90.76,-227 59.83,-122.73 25.99,-103.7 129.24,-103.87l696.57 0.13 102.96 212.75c24.18,50.46 84.68,151.05 -14.22,182.71 -33.04,10.58 -27.44,-2.69 -27.57,49.08l634.68 0.61 0.03 -40.65c-16.42,-9.33 -39.14,-11.52 -57.98,-23.08 -45.78,-28.07 -75.99,-89.86 -100.08,-139.11l-526.53 -1074.06c-35.32,-72.26 -70.01,-142.71 -105.16,-214.9 -16.31,-33.47 -42.28,-75.37 -44.92,-117.58 -3.39,-54.11 32.92,-68.39 74.13,-84.13l-0.75 -41.76 -519.89 -0.13 -89.42 0.95 -0.16 39.88c34.96,20.25 72.63,30.41 72.84,85.09 0.15,39.51 -24.13,90.09 -38.68,120.2 -102.44,212.03 -203.13,434.56 -305.97,643.8 -35.03,71.26 -66.74,144.22 -102.08,214.43 -66.79,132.71 -137.07,295.66 -203.96,429.22 -19.21,38.38 -31.87,69.97 -54.94,103.32 -31.05,44.86 -60.82,43.62 -83.73,53.47 -11.4,4.89 -9.31,-5.85 -11.7,43.99z"/>
    <path class="fil1" d="M11689.21 11220.23c-57.92,24.36 -87.56,23.42 -179.67,67.15 -160.86,76.38 -292.94,204.18 -380.95,364.88 -130.55,238.36 -135.8,557.12 -19.78,809.99 97.64,212.83 284.61,379.28 536.56,459.05 194.02,61.44 459.88,72.5 667.42,31.33 34.51,-6.85 64.91,-14.77 98.14,-25.39 20.21,-6.46 76.65,-29.63 91,-30.39 3.35,-3.54 1.67,-2.14 6.41,-5.44l45.95 -21.34c95.46,-44.87 150.86,-77.64 241.3,-128.1 17.25,-9.62 88.73,-54.74 106.34,-31.42 17.37,1.65 26.63,15.37 40.52,25.28l31.68 -24.14 -17.23 -30.25c-12.1,-10.85 -172.37,-254.06 -178.01,-265.01l-44.79 -63.59c-13.93,6.28 -18.69,13.89 -33.27,19.91 5.48,91.8 -26.19,113.52 -114.51,167.01 -28,16.95 -156.21,87.55 -189.04,86.55 -17.04,15.32 -109.89,34.99 -129,38.77 -48.44,9.6 -98.95,15.33 -149.87,17.09 -274.04,9.52 -535.17,-90.38 -653.64,-340.04 -76.98,-162.22 -75.41,-383.85 6.65,-540.64 70.75,-135.16 217.96,-263.29 366.14,-294.31 166.18,-49.27 361.75,-41.71 527.26,8.98 76.69,23.49 145.64,56.12 209.29,93.2 29.67,17.28 68.56,40.72 89.56,61.75 34.11,34.15 41.64,45.27 36.48,110.28l34.84 22.64 55.96 -80.29 182.15 -281.38c-9.85,-9.68 -19.68,-15.58 -31.43,-21.53 -16.66,10.33 -36.71,36.65 -67.98,29.75 -55,-12.12 -274.26,-163.07 -472.29,-224.31 -157.78,-48.8 -373.14,-56.46 -542.86,-36.2 -60.13,7.18 -114.1,21.98 -169.33,30.16z"/>
    <path class="fil1" d="M6513.3 12945.14l0.42 -39.51c-58.07,-37.24 -79.82,1.07 -79.81,-144.22l0 -1361.26c0,-93.34 -5.04,-121.61 80.11,-147l-0.26 -41.88 -446.87 -0.38 -89.92 0.8 -0.21 40.33c80.4,37.32 79.97,28.93 79.96,148.13l0 1357.75c0,33.29 3.8,76.09 -10.32,102.49 -14.12,26.4 -42.92,28.61 -69.32,45.24l-0.18 40.06 536.4 -0.55z"/>
    <path class="fil2" d="M9767.8 11210.88l519.89 0.13 0.75 41.76c-41.21,15.74 -77.52,30.02 -74.13,84.13 2.64,42.21 28.61,84.11 44.92,117.58 35.15,72.19 69.84,142.64 105.16,214.9l526.53 1074.06c24.09,49.25 54.3,111.04 100.08,139.11 18.84,11.56 41.56,13.75 57.98,23.08l-0.03 40.65c6.63,-10.96 3.6,-12.7 4.68,-29.25l88.99 -1.93c8.23,-108.97 -45.19,35.63 -159.75,-203.55l-474.21 -968.07c-17,-36.1 -35.76,-70.12 -52.33,-105.88 -26.9,-58.04 -144.97,-274.49 -148.63,-329.29 -3.41,-51.11 29.64,-74.69 74.09,-83.19l-1.02 -46.52 -612.4 0.5 -0.57 31.78z"/>
    <path class="fil2" d="M6066.89 11210.89l446.87 0.38 0.26 41.88c-85.15,25.39 -80.11,53.66 -80.11,147l0 1361.26c-0.01,145.29 21.74,106.98 79.81,144.22l-0.42 39.51c5.07,-8.64 3.42,-16.77 3.82,-28.19l89.88 0.2 -0.85 -43.17c-60,-39.72 -79.06,5.98 -79.06,-151.26l0 -1350.7c0,-33 -3.8,-77.36 9.67,-103.92 10.82,-21.34 37.89,-39.65 70.04,-42.9l-0.28 -46.62 -539.45 -0.03 -0.18 32.34z"/>
    <path class="fil2" d="M8348.93 11210.74l413.15 0.25 0.84 41.43c-76.44,35.62 -80.08,23.71 -80.07,144.21l0 1361.27c-0.01,149.78 21.39,108.74 79.71,147.73l0.03 41.18c2.26,-3.11 2.14,-2.16 4.28,-9.56l1.87 -20.19 87.75 -1.69 0.27 -42.43c-82.58,-35.67 -80.47,-30.54 -80.47,-146.71l0 -1357.73c0,-91.81 -5.86,-119.56 80.54,-144.73l-1.15 -45.1 -506.34 -0.46 -0.41 32.53z"/>
    <path class="fil2" d="M6911.9 11210.99l493.99 0.04 0.53 40.97c-31.01,15.05 -63.95,25.8 -51.76,74.23 9.21,36.65 87,107.79 121.89,145.61l200.58 207.42c22.81,22.85 41.59,46.43 64.07,69.71l232.73 242.16c11.09,12.18 22.65,21 33.7,33.08 20.43,22.36 44.81,51.93 66.39,70.82l264.42 274.7 1.34 -129.64c-15.21,-5.72 -23.99,-19.59 -32.76,-29.61l-44.07 -47.48c-8.94,-7.7 -9.78,-7.15 -16.99,-14.72 -84.86,-89.38 -184.34,-198.99 -269.64,-282.75 -11.48,-11.26 -18.95,-21.54 -29.87,-33.39 -10.1,-10.98 -20.94,-17.69 -30.73,-28.94 -16.17,-18.57 -39.99,-46.71 -57.41,-62.32 -23.97,-21.49 -41.12,-39.58 -60.34,-62.77l-240.88 -251.53c-19.01,-21.23 -42.23,-40.04 -61.48,-61.73 -13.08,-14.75 -44.08,-45.55 -48.98,-74.26 -6.72,-39.39 19.6,-61 52.67,-65.89l-0.33 -46.12 -586.61 0.75 -0.46 31.66z"/>
    <path class="fil2" d="M12397.28 12626.31c-40.43,0.05 -113.9,32.74 -275.25,22.67 -142.22,-8.89 -284.35,-43.89 -393.91,-130.55 -40.04,-31.65 -44.38,-38.53 -79.24,-71.98 -9.73,-9.34 -23.22,-27.89 -33.3,-40.53 -122.58,-153.72 -146.52,-409.78 -71.06,-591.21 54.48,-130.97 148.6,-229.97 270.69,-291.65 9.65,-4.87 16.49,-7 22.35,-15.88 -148.18,31.02 -295.39,159.15 -366.14,294.31 -82.06,156.79 -83.63,378.42 -6.65,540.64 118.47,249.66 379.6,349.56 653.64,340.04 50.92,-1.76 101.43,-7.49 149.87,-17.09 19.11,-3.78 111.96,-23.45 129,-38.77z"/>
    <path class="fil2" d="M7325.87 12917.26l93.01 -0.1 -0.64 -43.18c-25.11,-18.13 -64.56,-12.28 -76.1,-64.33 -7.02,-31.71 -3.32,-96.73 -3.32,-132.65 0,-68.67 -2.78,-785.41 0.9,-817.14 -7.69,-14.22 -78.58,-89.45 -93.72,-98.28 -0.27,65.88 -4.27,1018.4 0.7,1065.72 5.13,48.88 36.65,62.68 78.27,76.5l0.9 13.46z"/>
    <path class="fil2" d="M11689.21 11220.23c55.23,-8.18 109.2,-22.98 169.33,-30.16 169.72,-20.26 385.08,-12.6 542.86,36.2 198.03,61.24 417.29,212.19 472.29,224.31 31.27,6.9 51.32,-19.42 67.98,-29.75 11.75,5.95 21.58,11.85 31.43,21.53l-182.15 281.38 -0.21 29.01c13.1,6.15 20.18,14.73 34.83,21.94l8.97 -10.53c3.33,-4.8 4.28,-7.04 6.84,-10.69 6.97,-9.94 9.97,-14.44 15.64,-23.03 10.45,-15.83 18.52,-28.87 29.5,-44.41 61.24,-86.72 116.79,-182.21 181.81,-271.99l0 -2.99c-11.73,-7.13 -21.99,-16.16 -35.18,-22.43 -18.34,10.3 -36.73,39 -70.33,29.02 -84.86,-25.2 -277.2,-174.25 -516.47,-236.69 -188.92,-49.31 -474.48,-42.89 -673.6,10.37 -14.89,3.98 -72.38,18.25 -83.54,28.91z"/>
    <path class="fil2" d="M10223.79 12224.35l-1.7 7.47 -437.27 -0.35c-0.07,-6.96 98.31,-221.3 109.51,-244.68l99.99 -216.67c1.69,-3.48 5.11,-11.53 6.91,-14.48 8.13,-13.35 0.2,-7.74 9.68,-7.76 -6.58,-21.01 -29.27,-76.91 -42.13,-91.35l-279.94 606.23 553.63 1.26c-1.02,-12.29 -9.28,-32.42 -18.68,-39.67z"/>
    <path class="fil2" d="M8950 12945.23c9.76,8.13 23.71,5.77 37.2,5.58 103.84,-1.54 486.06,4.26 537.97,-1.36l0.29 -32.44 88.28 -0.51c0,-49.61 5.73,-41.65 -25.61,-52.75 -85.77,-30.36 -61.2,-97.6 -26.59,-164.91 32.31,-62.86 61.27,-137.9 94.99,-197.84 -103.25,0.17 -69.41,-18.86 -129.24,103.87 -22.4,45.95 -94.31,181.56 -90.76,227 4.14,53.1 63.73,61.98 84.05,73.76l-0.06 39.47 -570.52 0.13z"/>
    <path class="fil2" d="M12778.89 12416.43c5.64,10.95 165.91,254.16 178.01,265.01 29.16,-22.74 61.21,15.83 76.25,24.34 14.74,-6.63 22.49,-14.36 35.18,-22.59l0 -2.13c-14.61,-14.65 -46.27,-67.96 -59.75,-88.34 -19.96,-30.16 -39.97,-59.82 -60.32,-90.97 -9.26,-14.17 -107.97,-168.3 -122.69,-181.36 -25.98,16.9 -35.05,16.9 -34.08,37.44 0.62,12.93 2.32,19.32 0.38,33.04 -3.74,26.43 -8.93,23.32 -12.98,25.56z"/>
    <path class="fil3" d="M6253.78 13194.22c5.77,15.38 9.01,2.59 9.74,27.69l-1.15 111.12 -96.79 -100.3c-15.3,-15.48 -25.22,-16.44 -17.02,-38.74l-70.74 0.26c6.61,17.17 9.58,4.45 9.58,31.47l0 144.22c0,33.21 -1.72,15.66 -9.62,34.95l60.8 0.05c-4.43,-10.14 -8.92,-13.9 -8.92,-27.97l0.25 -113.15 118.46 118.68c8.75,11.45 5.89,9.71 1.11,22.41l65.15 0.03c-14.33,-32.11 -8.72,-56.16 -8.72,-105.35 0,-50.03 -5.37,-71.24 8.58,-105.61l-60.71 0.24z"/>
    <path class="fil3" d="M12544.6 13331.55c-15.41,-9.11 -48.78,-51.08 -67.01,-67.41 -12.98,-11.63 -21.67,-21.1 -33.37,-33.49 -18.47,-19.6 -19.41,-13.55 -13.05,-36.51l-71.15 -0.15c6.68,14.2 9.33,11.44 9.33,31.73l0.01 154.77c0,12.85 -5.07,15.2 -9.17,24.36l61.03 -0.04c-6.13,-14.33 -9.16,-4.71 -9.16,-24.32l0.69 -117.43 100.81 102.25c16.08,17.55 25.05,16.75 18.5,39.68l65.06 -0.16c-5.81,-13.87 -9.26,-5.6 -9.28,-24.34l0 -161.8c0,-14.05 4.75,-14.11 9.47,-24.73l-61.25 0.09c4.25,9.28 9.18,11.79 9.18,24.64l-0.64 112.86z"/>
    <path class="fil3" d="M9919.52 13284.15l-61.92 -0.22 -0.71 -54.32c54.4,-1.68 120.69,-11.33 115.64,30.97 -3.03,25.33 -27.76,23.52 -53.01,23.57zm-118.65 -89.51c9.84,13.11 9.52,27.49 9.41,48.65l0.02 116.13c0.05,6.98 0.68,21.58 -0.54,27.77 -3.83,19.22 -3.03,1.84 -9.1,17.72l65.45 -0.56c-7.9,-18.65 -9.79,-2.04 -9.42,-37.82 0.15,-15.64 -1.12,-31.94 1.36,-47.27 64.94,-2.55 45.21,-9.96 92.35,55.01 18.61,25.65 8.68,20.98 4.29,30.64l75.39 0.07c-5.41,-9.26 -10.52,-5.7 -35.89,-42.8 -10.41,-15.23 -21.21,-29.34 -30.84,-43.86 29.35,-8.41 49.66,-16.46 54.74,-47.2 5.48,-33.19 -7.71,-58.07 -29.67,-68.67 -25.64,-12.4 -152.5,-10.73 -187.55,-7.81z"/>
    <path class="fil3" d="M8119.39 13332.74c-15.58,-9.41 -47,-50.36 -66.06,-66.75 -12.65,-10.87 -21.53,-21.3 -33.05,-33.81 -26.06,-28.28 -20.33,-20.53 -14.71,-38.08l-71.06 -0.09c4.98,11.67 8.94,11.9 8.94,28.19l0.02 158.29c0,12.75 -4.91,15.21 -8.78,24.44l60.88 -0.02c-6.09,-14.05 -9.42,-8.4 -9.58,-27.94l0.71 -114.02 101.2 102.08c15.21,16.11 25.81,18 18.31,39.93l65.2 -0.05c-6.77,-16.61 -9.48,-4.08 -9.48,-27.94l0 -154.77c0,-15.58 4.95,-16.48 9.51,-28.21l-60.81 0.07c6.36,15.89 9.06,9.45 9.06,31.66l-0.3 107.02z"/>
    <path class="fil3" d="M10448.48 13369.33l-0.17 -139.41c69.27,-6.36 128.78,-6.36 128.52,69.67 -0.27,76.02 -58.81,76.14 -128.35,69.74zm-55.76 -175.38l5.84 9.78c3.79,8.54 1.75,-0.04 3.17,11.43l0 168.9c-1.9,15.63 -2.86,8.13 -8.91,20.88 108.86,0.17 231.65,23.71 231.36,-105.35 -0.28,-129.88 -122.57,-105.67 -231.46,-105.64z"/>
    <path class="fil3" d="M11908.63 13369.3l-0.18 -139.3c68.74,-7.2 128.67,-5.59 128.56,69.59 -0.11,75.86 -59.1,76.39 -128.38,69.71zm-55.79 -175.34l4.53 7.25c0.41,0.79 0.95,1.64 1.33,2.49 5.94,13.27 5.97,178.38 0.06,191.81 -2.99,6.8 0.14,-3.12 -5.77,9.44 109.02,0.06 231.62,23.82 231.37,-105.36 -0.27,-129.56 -121.22,-105.7 -231.52,-105.63z"/>
    <path class="fil3" d="M11401.02 13369.74l-0.21 -140.19c69.3,-3.07 128.77,-9.4 128.68,70.03 -0.11,78.38 -56.82,73.27 -128.47,70.16zm-56.41 -175.33c6.73,17.49 9.44,0.6 9.44,31.31l-0.01 151.25c0,25.59 -3.26,12.52 -9.21,27.54 38.21,1.79 105.69,3.22 141.96,-0.41 43.23,-4.32 70.08,-25.13 82.62,-59.12 13.86,-37.57 7.78,-86.89 -12.2,-113.86 -23.76,-32.09 -53.69,-37.11 -103.74,-37.11l-108.86 0.4z"/>
    <path class="fil3" d="M7683.1 13228.79c103.13,-23.05 124.34,125.08 35.5,142.27 -102.56,19.85 -126.75,-121.87 -35.5,-142.27zm-103.18 81.35c10.45,137.84 252.44,134.17 241.91,-20.44 -9.44,-138.89 -253.67,-134.83 -241.91,20.44z"/>
    <path class="fil3" d="M8305.96 13228.81c101.51,-24.26 123.92,118.92 41.06,141.14 -102.94,27.59 -135.47,-118.57 -41.06,-141.14zm-102.22 84.84c14.69,136.97 257.52,126.94 241.17,-27.23 -14.67,-138.3 -257.89,-128.55 -241.17,27.23z"/>
    <path class="fil3" d="M9628.37 13228.54c98.9,-23.96 127.29,119.74 38.53,141.8 -101.31,25.19 -133.24,-118.85 -38.53,-141.8zm136.78 95.67c33.49,-150.27 -204.77,-185.79 -237.32,-50.62 -17.49,72.7 33.54,125.62 94.18,133.78 74.53,10.04 129.8,-23.27 143.14,-83.16z"/>
    <path class="fil3" d="M10715.2 13370.44c-6.83,-10.89 -4.65,-45.23 -2.1,-58.29 13.8,-3.39 29.29,-1.89 43.76,-1.89 16.92,0 37.49,-2.86 45.59,4.39l12.35 7.46 -0.07 -52.85c-1.01,0.47 -2.11,1.29 -2.88,1.72l-8.31 4.59c-15.53,6.73 -72.03,3.22 -90.15,3.15l0.3 -49.44 141.31 5.67 5.64 -50.29 -202.99 9.35c9.81,25.94 9.19,15.17 8.98,49.29 -0.13,18.75 -0.03,37.52 -0.03,56.29 0,52.25 5.7,70.8 -9.1,105.32l159.19 0.01c20.56,-0.16 25.95,-2.48 39.16,4.24l8.37 5.49 -0.2 -53.88c-0.98,0.51 -2.04,1.37 -2.78,1.8 -24.95,14.69 -99.98,6.33 -146.04,7.87z"/>
    <path class="fil3" d="M9451.61 13256.73c10.24,-7.97 24.71,-35.78 24.25,-50.9 -25.24,7.31 -81.5,-32.77 -152.5,-6.47 -43.51,16.11 -74.68,52.72 -68.66,114.31 4.92,50.46 42.18,83.52 90.75,92.41 64.21,11.73 99.44,-9.7 147.42,-30.36 -1.45,-7.24 -4.42,-5.4 -6.85,-14.44 -8.29,-30.94 2.77,-50.17 7.98,-61.27 -21.15,-0.67 -42.35,-0.42 -63.51,-0.35 -61.64,0.22 -34.27,-2.02 -52.31,-9.82l-0.02 48.49c14.35,-5.13 9.63,-9.2 30.96,-9.44 12.04,-0.12 24.78,-0.48 36.9,1.32l-0.5 26.68c-56.7,37.17 -152.85,12.18 -143.96,-66.58 7.94,-70.4 114.58,-85.65 150.05,-33.58z"/>
    <path class="fil3" d="M6548.35 13211.79c-36.17,-0.86 -57.51,-22.08 -104.88,-21.75 -39.73,0.27 -73.77,15.14 -84.74,42.41 -15.61,38.8 6.42,71.81 39.67,81.09 29.97,8.35 84.03,1.43 102.32,20.75 12.87,32.71 -32.62,40.59 -63.17,37.48 -31.72,-3.22 -47.76,-10.34 -63.38,-30.78 -5.01,-6.58 0.22,-1.26 -5.22,-6.12l-21.05 49.13 10.61 2.32c5.75,1.32 6.59,1.56 11.96,3.76 8.15,3.37 13.99,6.6 22.6,9.58 46.63,16.08 127.01,14.51 149.76,-32.66 18.44,-38.21 -5.5,-72.79 -37.48,-83.66 -32.64,-11.1 -84.45,-4.22 -106.7,-22.41 -3.13,-32.71 29.61,-37.39 61.91,-33.89 42.35,4.59 51.51,23.08 63.75,33.58l24.04 -48.83z"/>
    <path class="fil3" d="M7112.11 13194.29c6.83,16.84 9.68,2.51 9.85,31.16 0.69,119.09 -23.87,183.9 106.17,183.24 132.05,-0.67 98.28,-75.93 101.95,-186.79 0.87,-26.06 3.9,-12.52 10,-27.72l-61.75 0.7c7.69,17.17 9.22,-6.02 9.21,37.87 0,74.62 12.17,126.89 -34.43,137.54 -23.8,5.44 -59.11,2.35 -73.81,-11.39 -16.25,-15.17 -11.23,-54.62 -11.22,-80.42 0.01,-50.29 -5.56,-55.45 9.12,-84.58l-65.09 0.39z"/>
    <path class="fil3" d="M10163.62 13250.84l30.92 70.75 -65.44 -0.65 34.52 -70.1zm-36.58 -56.59c14.97,20.86 -0.14,38.16 -9.21,57.46l-79.3 153.16 68.56 0.16c-5.15,-11.54 -10.76,-14.15 -5.25,-28.33 3.37,-8.7 10.29,-19.45 14.71,-25.81l91.47 0.7c5.71,7 10.99,16.31 14.52,25.3 6.46,16.36 1.49,15.08 -4.86,28.07l76.25 0.01c-5.92,-12.62 -1.2,-2.19 -9.85,-12.66 -4.41,-5.35 -4.95,-5.98 -8.44,-12.46l-65.36 -131.67c-20.93,-42.03 -18.99,-29.43 -9.16,-54.17l-74.08 0.24z"/>
    <path class="fil3" d="M12210.58 13251.12l30.81 70.46 -65.65 -0.3 34.84 -70.16zm-36.36 -56.82c0.77,0.87 2.46,3.65 2.91,4.48 5,9.41 7.28,10.96 0.3,26.1l-62.9 130.78c-17.84,38.55 -25.66,42.23 -28.92,49.29l68.35 -0.2c-16.98,-39.11 -6.44,-6.98 6.04,-53.94l95.62 1.28c25.23,38.41 15.49,39.35 9.25,52.86l76.1 0.01c-4.01,-8.45 -10.82,-8.01 -31.21,-50.34l-53.28 -108.52c-25.31,-51.72 -16.79,-29.67 -8.43,-52.03l-73.83 0.23z"/>
    <path class="fil3" d="M9125.35 13251l31.14 70.6 -65.45 -0.49 34.31 -70.11zm-35.99 -56.75c0.5,0.74 6.26,12.67 6.53,14.71 1.77,13.39 -57.65,128.84 -66.27,147.18 -17.88,37.98 -24.6,39.08 -29.38,48.8l68.66 0.03c-4.6,-10.37 -17.91,-18.22 9.77,-54.15l91.48 1.07c27.04,34.43 14.47,42.76 9.2,53.06l76.67 0.05c-5.26,-10.96 -12.39,-13.47 -18.57,-24.86l-65.34 -131.68c-22.09,-45.8 -19.71,-30.31 -8.8,-54.45l-73.95 0.24z"/>
    <path class="fil3" d="M12846.01 13250.32l31.4 71.2 -65.32 -1.15 33.92 -70.05zm-35.66 -56.24c0.65,0.98 2.38,4.15 2.81,5.03 8.79,17.95 1.39,22.76 -12.03,51.56l-51.55 106.72c-4.3,8.56 -8.07,18.08 -12.54,26.19 -6.95,12.58 -12.04,11.8 -15.99,21.22l69.29 -0.01c-8.82,-18.55 -18.96,-2.84 7.08,-53.73l96.22 -0.01c3.6,11.29 9.72,19.73 13.18,29.52 7.46,21.2 -0.2,10.28 -6.7,24.31l77.16 -0.07c-5.88,-11.7 -9.14,-5.73 -18.34,-23.88l-39.88 -79.73c-9.17,-18.58 -17.7,-35.96 -26.63,-54.27 -3.95,-8.08 -9.7,-17.7 -13.15,-26 -6.81,-16.35 0.08,-17.18 4.27,-27l-73.2 0.15z"/>
    <path class="fil3" d="M11702.5 13250.5l31.45 70.43 -13.1 0.74 -35.19 0.21 -17.22 -1.52 34.06 -69.86zm-35.74 -56.54l6.76 15.04c1.65,11.77 -69.49,154.23 -80.12,174.35 -7.47,14.12 -11.71,12.29 -16.15,21.51l69.21 -0.42c-10.05,-23.53 -18.08,1.34 7.55,-53.39l95.94 0.25c3.6,10.92 10.05,19.76 13.3,29.38 6.86,20.17 -0.33,10.63 -6.76,24.13l77.15 0.05c-5.26,-11.01 -9.29,-6.52 -18.22,-23.83 -4.82,-9.35 -8.33,-17.3 -12.65,-26.03 -8.96,-18.09 -17.55,-35.92 -26.72,-54.2 -9.18,-18.27 -18.51,-35.88 -27.17,-53.73 -21.7,-44.67 -18.57,-30.91 -8.7,-53.05l-73.42 -0.06z"/>
    <path class="fil3" d="M8786.93 13250.14c10.07,12.27 27.47,51.76 33.3,71.46l-19.5 0.07 -31.67 0.17 -13.95 -1.28 31.82 -70.42zm-33.45 -56.19c0.65,0.99 2.35,4.32 2.77,5.21l3.96 9.87c1.85,12.12 -35.44,80.97 -41.38,93.24 -8.79,18.22 -16.88,36.2 -25.81,55.08 -18.74,39.63 -25.61,40.75 -29.08,47.59l69.29 -0.6c-8.24,-17.22 -19.31,-1.51 7.69,-53.37l95.76 0.36c3.69,12.27 9.47,19.19 13.2,29.55 6.71,18.7 -0.54,10.75 -6.9,24.06l77.35 -0.27c-5.72,-11.48 -8.82,-4.88 -18.31,-23.32l-66.49 -134.07c-19.1,-39.09 -19.66,-29.23 -8.75,-53.3l-73.3 -0.03z"/>
    <path class="fil3" d="M11179.04 13334.32c-19.52,33.76 -59.15,42.47 -96.79,37.17 -108.96,-15.36 -72.94,-185.86 60.23,-137.28 28.66,10.45 27.5,14.11 36.56,30.4 9.87,-8.07 27.37,-32.65 27.44,-44.54 -16.11,5.67 -45.18,-17.16 -65.15,-23.59 -26.43,-8.52 -58.06,-8.04 -85.18,-2.13 -114.2,24.86 -114.63,185.2 0.53,210.59 75.58,16.65 99.56,-13.08 143.09,-28.35 20.28,-7.1 -7.86,7.78 7.97,-3.14l-28.7 -39.13z"/>
    <path class="fil3" d="M8445.67 13194.45c5.41,10 9.61,7.03 17.58,23.82l73.73 158.88c6.51,16.57 1.61,14.87 -4.65,27.83l71.62 -0.2c-5.13,-11.65 -11.35,-10.73 -5.27,-25.45l74.88 -161.27c7.15,-14.41 10.53,-12.71 16.34,-24.1l-70.38 0c10.94,22.87 11.96,12.59 -0.87,39.86 -14.18,30.06 -34.83,85.4 -49.85,107.65 -10.15,-23.54 -21.79,-47.88 -32.65,-72.69 -29.82,-68.08 -29.24,-48.29 -16.1,-74.85l-74.38 0.52z"/>
    <path class="fil3" d="M7014.99 13390.14l-0.7 -160.41c14.98,-0.93 30.07,-0.75 45.09,-0.81 31.51,-0.13 16.14,0.91 35.46,9.97l0.53 -54.32c-23.3,12.88 -17.47,9.61 -50.22,9.45l-112.62 0.02c-7.22,0.05 -21.5,0.71 -27.99,-0.43 -18.96,-3.31 -3.9,-2.23 -18.27,-9.17l0.86 54.27c16.3,-5.92 0.85,-9.89 34.72,-9.79 15.06,0.05 30.19,-0.11 45.22,0.79l0.43 140.41c0.08,31.83 -1.56,16.54 -9.61,34.73l65.29 -0.71c-5.77,-12.81 -4.42,0.8 -8.19,-14z"/>
    <path class="fil3" d="M6706.54 13404.35c-8.2,-18.93 -9.95,-3.32 -9.67,-37.82l0.44 -136.88c15.1,-0.87 30.3,-0.67 45.42,-0.73 31,-0.09 16.18,0.64 35.35,9.91l-0.88 -54.45c-12.8,6.88 0.93,7.38 -20.33,9.61l-169.02 -0.34c-18.92,-3.15 -3.63,-1.05 -18.41,-9.49l1.04 54.83c16.97,-7.62 0.85,-10.19 34.73,-10.07 14.98,0.07 30.08,-0.27 45.02,0.82l0.36 140.37c0.21,32.93 -1.36,16.59 -9.35,34.74l65.3 -0.5z"/>
    <path class="fil3" d="M7493.4 13404.94c-9,-19.02 -9.35,-7.3 -9.06,-38.44l0.49 -137.15c45.38,-1.2 53.41,-4.64 80.91,8.51l-0.03 -52.51c-13.33,5.79 -2.11,2.31 -9.66,5.53 -15.94,6.77 -128.02,2.99 -152.07,3.16 -28.46,0.19 -24.37,3.26 -47.23,-9.45l0.02 54.02c22.23,-9.65 7.97,-9.88 40.12,-9.63 13.68,0.11 27.38,-0.56 40.83,1.23l0.35 139.92c0.19,31.56 -0.89,15.68 -9.22,34.69l64.55 0.12z"/>
    <path class="fil3" d="M5974.62 13193.88c14.42,20.37 9.17,76.03 9.17,105.71 0,53.08 5.6,69.37 -9.05,105.4l64.64 -0.1c-6.42,-14.97 -6.19,-0.8 -8.74,-20.79l-0.09 -140.8c-0.05,-7.49 -0.78,-21.48 0.06,-28.25 2.54,-20.4 2.32,-6.03 8.72,-21.03l-64.71 -0.14z"/>
    <path class="fil3" d="M11241.52 13194.18c12.5,15.69 9.17,26.54 9.03,49.12l0 112.57c0.21,33.22 2.08,23.29 -8.89,49.04l64.75 0.1c-5.5,-13 -7.62,-5.82 -9.37,-21.3l-0.08 -143.98c-0.26,-36.08 -0.45,-21.24 9.41,-45.8l-64.85 0.25z"/>
    <path class="fil3" d="M6855.46 13222.2c0,-27.44 3.07,-12.47 9.69,-28.19l-65.64 0.56c5.59,12.73 9.66,4.6 9.69,24.12l-0.02 161.8c0,18.91 -4.11,11.54 -9.7,24.17l65.57 -0.21c-5.55,-12.47 -9.59,-5.42 -9.59,-23.96l0 -158.29z"/>
    <path class="fil3" d="M12635.43 13194.14c17.01,21.58 9,118.98 9.31,165.29 0.32,48.31 -1.98,28.05 -9.22,45.45l64.83 0.03c-7.33,-15.11 -6.74,-1.49 -9.2,-20.81l-0.06 -140.8c-0.32,-51.34 0.52,-30.77 9.34,-49.37l-65 0.21z"/>
    <path class="fil4" d="M12501.93 12896.85c41.24,-3.74 170.44,-67.66 209.26,-87.6 34.23,-17.59 63.99,-32.97 96.45,-51.51 19.28,-11.01 75.02,-46.53 94.29,-47.19 -17.61,-23.32 -89.09,21.8 -106.34,31.42 -90.44,50.46 -145.84,83.23 -241.3,128.1l-45.95 21.34c-4.74,3.3 -3.06,1.9 -6.41,5.44z"/>
    <path class="fil3" d="M9131.44 13132.31c-15.38,17.32 0.08,15.54 -23.35,43.76 54.57,1.47 18.85,4.37 40.95,-20.56l19.11 -22.97 -36.71 -0.23z"/>
    <path class="fil5" d="M10715.2 13370.44l-0.36 -56.99 87.61 1.2c-8.1,-7.25 -28.67,-4.39 -45.59,-4.39 -14.47,0 -29.96,-1.5 -43.76,1.89 -2.55,13.06 -4.73,47.4 2.1,58.29z"/>
   </g>
  </g>
 </g>
</svg>
