<?xml version="1.0" encoding="UTF-8"?>
<!DOCTYPE svg PUBLIC "-//W3C//DTD SVG 1.1//EN" "http://www.w3.org/Graphics/SVG/1.1/DTD/svg11.dtd">
<!-- Creator: CorelDRAW -->
<svg xmlns="http://www.w3.org/2000/svg" xml:space="preserve" width="297mm" height="210mm" version="1.1" style="shape-rendering:geometricPrecision; text-rendering:geometricPrecision; image-rendering:optimizeQuality; fill-rule:evenodd; clip-rule:evenodd"
viewBox="0 0 29700 21000"
 xmlns:xlink="http://www.w3.org/1999/xlink"
 xmlns:xodm="http://www.corel.com/coreldraw/odm/2003">
 <defs>
  <style type="text/css">
   <![CDATA[
    .str1 {stroke:#FEFEFE;stroke-width:26.46;stroke-miterlimit:10}
    .str0 {stroke:#201E1E;stroke-width:70.56;stroke-miterlimit:22.9256}
    .fil1 {fill:none}
    .fil3 {fill:#FEFEFE;fill-rule:nonzero}
    .fil2 {fill:#ED3237;fill-rule:nonzero}
    .fil0 {fill:#201E1E;fill-rule:nonzero}
    .fil5 {fill:#002756;fill-rule:nonzero}
    .fil4 {fill:#004454;fill-rule:nonzero}
    .fil6 {fill:#094A5E;fill-rule:nonzero}
    .fil7 {fill:#8EBF32;fill-rule:nonzero}
   ]]>
  </style>
 </defs>
 <g id="Camada_x0020_1">
  <metadata id="CorelCorpID_0Corel-Layer"/>
  <path class="fil0" d="M19106.21 13474.79l82.13 0c3.02,74.4 32.67,111.61 88.96,111.61 28.05,0 49.37,-8.44 63.85,-25.14 12.86,-15.26 19.33,-36.24 19.33,-62.94 0,-20.83 -4.5,-37.21 -13.55,-49.29 -9.49,-12.88 -29.65,-25.29 -60.46,-37.37l-43.79 -17.17c-41.13,-15.9 -68.93,-31.16 -83.2,-45.79 -31.39,-31.96 -47.13,-82.51 -47.13,-151.82 0,-59.32 11.12,-107.8 33.25,-145.32 27.22,-45.95 67.99,-69.01 122.56,-69.01 67.65,0 114.92,36.57 141.8,109.54 11.12,30.06 17.73,67.42 19.7,111.78l-82.15 0c-2.44,-27.67 -7.29,-48.65 -14.48,-62.97 -13.78,-27.34 -36.38,-41.01 -67.66,-41.01 -22.81,0 -40.77,7.79 -53.75,23.37 -12.39,14.15 -18.64,34.02 -18.64,59.62 0,21.31 4.51,38.32 13.55,50.71 5.67,8.12 15.41,14.96 29.42,20.51l99.52 41.51c33.01,13.35 57.46,30.99 73.57,53.09 22.36,30.36 33.48,74.57 33.48,132.28 0,81.09 -19.58,141.02 -58.75,179.82 -28.95,28.61 -64.64,42.93 -107.15,42.93 -49.81,0 -89.43,-17.49 -118.74,-52.63 -21.79,-26.08 -36.85,-60.74 -45.2,-104.14 -3.36,-17.16 -5.55,-41.18 -6.47,-72.17zm994.68 -474.11l0 445.48c0,80.45 -12.87,142.46 -38.69,186.34 -28.03,47.53 -70.56,71.23 -127.55,71.23 -59.09,0 -103.11,-27.67 -132.08,-83 -21.19,-40.22 -31.84,-95.56 -31.84,-165.83l0 -454.22 86.87 0 0 444.53c0,45.31 7.31,80.28 22.02,104.78 12.74,21.77 31.04,32.59 55.03,32.59 26.41,0 46.45,-11.46 60.01,-34.5 12.85,-21.62 19.35,-53.75 19.35,-95.88l0 -451.52 86.88 0zm328.32 474.11l82.15 0c3,74.4 32.67,111.61 88.96,111.61 28.03,0 49.35,-8.44 63.83,-25.14 12.87,-15.26 19.35,-36.24 19.35,-62.94 0,-20.83 -4.52,-37.21 -13.55,-49.29 -9.51,-12.88 -29.66,-25.29 -60.47,-37.37l-43.8 -17.17c-41.12,-15.9 -68.93,-31.16 -83.18,-45.79 -31.39,-31.96 -47.15,-82.51 -47.15,-151.82 0,-59.32 11.12,-107.8 33.25,-145.32 27.24,-45.95 68.01,-69.01 122.57,-69.01 67.66,0 114.92,36.57 141.8,109.54 11.11,30.06 17.72,67.42 19.69,111.78l-82.14 0c-2.43,-27.67 -7.3,-48.65 -14.47,-62.97 -13.8,-27.34 -36.38,-41.01 -67.66,-41.01 -22.82,0 -40.78,7.79 -53.75,23.37 -12.4,14.15 -18.64,34.02 -18.64,59.62 0,21.31 4.5,38.32 13.55,50.71 5.66,8.12 15.39,14.96 29.42,20.51l99.51 41.51c33.02,13.35 57.45,30.99 73.56,53.09 22.36,30.36 33.48,74.57 33.48,132.28 0,81.09 -19.58,141.02 -58.73,179.82 -28.96,28.61 -64.64,42.93 -107.16,42.93 -49.82,0 -89.43,-17.49 -118.75,-52.63 -21.77,-26.08 -36.85,-60.74 -45.18,-104.14 -3.36,-17.16 -5.56,-41.18 -6.49,-72.17zm840.37 -352.96l0 563.77 -85.48 0 0 -563.77 -123.73 0 0 -121.15 332.94 0 0 121.15 -123.73 0zm741.23 -121.15l0 121.15 -217.58 0 0 144.04 200.2 0 0 121.14 -200.2 0 0 177.44 227.3 0 0 121.15 -310.7 0 0 -684.92 300.98 0zm595.81 480.3l0 -480.3 78.55 0 0 684.92 -84.34 0 -170.07 -491.59 0 491.59 -78.55 0 0 -684.92 89.09 0 165.32 480.3zm599.99 -359.15l0 563.77 -85.49 0 0 -563.77 -123.72 0 0 -121.15 332.93 0 0 121.15 -123.72 0zm527.13 422.59l-28.51 141.18 -90.24 0 145.85 -684.92 98.82 0 144.57 684.92 -93.01 0 -26.43 -141.18 -151.05 0zm75.64 -391.75l-52.94 274.41 104.61 0 -51.67 -274.41zm514.62 532.93l0 -684.92 199.14 0c42.74,0 75.18,18.44 97.31,55.49 19.23,31.8 28.84,72.82 28.84,123.2 0,42.3 -6.84,76.64 -20.61,102.72 -6.38,12.08 -16.35,23.85 -29.9,34.97 13.55,9.71 23.29,18.77 29.19,27.52 23.06,31.63 34.54,76.78 34.54,135.29 0,56.76 -11.83,104.92 -35.57,144.35 -14.94,24.82 -31.87,41.19 -50.64,49.29 -18.52,8.12 -44.83,12.09 -79.01,12.09l-173.29 0zm82.01 -299.53l0 182.2 104.84 0c44.14,0 66.16,-32.12 66.16,-96.51 0,-24.64 -4.29,-44.03 -12.87,-57.88 -11.35,-18.6 -27.68,-27.81 -49.23,-27.81l-108.9 0zm0 -268.06l0 150.72 100.43 0c22.48,0 38.83,-8.74 49.25,-26.07 7.77,-13.2 11.58,-30.37 11.58,-51.83 0,-48.49 -21.09,-72.82 -63.13,-72.82l-98.13 0zm673.67 -117.33l0 684.92 -85.49 0 0 -684.92 85.49 0zm431.21 0l0 560.9 203.65 0 0 124.02 -289.15 0 0 -684.92 85.5 0zm607.06 0l0 684.92 -85.5 0 0 -684.92 85.5 0zm345.69 684.92l0 -684.92 180.49 0c48.55,0 86.77,23.36 114.59,69.95 15.52,26.08 27.1,55.65 34.52,88.88 11.93,52.78 17.94,109.22 17.94,169.16 0,65.82 -6.82,128.46 -20.61,187.76 -13.78,58.67 -35.1,102.71 -63.73,131.97 -24.43,24.79 -53.16,37.2 -86.06,37.2l-177.14 0zm83.41 -567.59l0 450.26 83.53 0c31.51,0 55.73,-23.7 72.41,-70.91 14.25,-40.38 21.32,-95.39 21.32,-164.87 0,-82.68 -10.67,-142.14 -31.86,-178.07 -14.36,-24.32 -35.45,-36.41 -63.26,-36.41l-82.14 0zm680.63 426.41l-28.5 141.18 -90.25 0 145.85 -684.92 98.82 0 144.58 684.92 -93.01 0 -26.43 -141.18 -151.06 0zm75.64 -391.75l-52.93 274.41 104.6 0 -51.67 -274.41zm514.62 532.93l0 -684.92 180.48 0c48.54,0 86.78,23.36 114.58,69.95 15.52,26.08 27.11,55.65 34.52,88.88 11.94,52.78 17.95,109.22 17.95,169.16 0,65.82 -6.82,128.46 -20.6,187.76 -13.8,58.67 -35.12,102.71 -63.73,131.97 -24.44,24.79 -53.18,37.2 -86.08,37.2l-177.12 0zm83.4 -567.59l0 450.26 83.53 0c31.51,0 55.73,-23.7 72.41,-70.91 14.25,-40.38 21.31,-95.39 21.31,-164.87 0,-82.68 -10.65,-142.14 -31.86,-178.07 -14.36,-24.32 -35.45,-36.41 -63.25,-36.41l-82.14 0zm894.71 -117.33l0 121.15 -217.56 0 0 144.04 200.19 0 0 121.14 -200.19 0 0 177.44 227.29 0 0 121.15 -310.7 0 0 -684.92 300.97 0z"/>
  <line class="fil1 str0" x1="10679.29" y1="12603.19" x2="28784.85" y2= "12631.21" />
  <g id="_1492098150384">
   <path class="fil2" d="M21609.58 11268.79l273.41 -34.09c16.5,114.85 49.46,198.85 99.56,252.83 50.09,53.97 117.63,80.75 202.63,80.75 89.85,0 157.73,-23.94 203.29,-71.83 45.58,-47.88 68.53,-103.88 68.53,-167.99 0,-41.4 -9.7,-76.3 -28.76,-105.52 -19.08,-28.81 -52.69,-53.97 -100.52,-75.06 -32.64,-14.62 -106.98,-39.79 -223.32,-76.3 -149.66,-47.08 -254.69,-104.7 -315.13,-173.28 -85,-96.18 -127.33,-213.45 -127.33,-351.84 0,-88.86 20.02,-172.47 59.77,-249.97 40.09,-77.5 97.62,-136.35 172.93,-176.94 75.3,-40.57 165.79,-60.87 272.46,-60.87 173.55,0 304.45,48.3 392.02,145.29 87.93,96.99 133.81,226.03 138.33,387.95l-281.18 12.18c-11.96,-90.1 -37.49,-154.62 -76.58,-193.99 -39.11,-39.35 -97.94,-59.23 -176.16,-59.23 -80.8,0 -144.15,21.09 -189.71,63.29 -29.42,27.2 -44.29,63.32 -44.29,108.76 0,41.4 13.91,76.69 41.69,105.92 35.24,37.73 120.89,76.69 256.95,117.27 136.07,40.18 236.58,82.39 301.55,125.4 65.28,43.42 116.35,102.26 153.19,177.34 36.85,75.07 55.27,167.59 55.27,277.57 0,99.81 -21.98,193.55 -66.26,280.81 -44.27,87.26 -106.65,152.17 -187.45,194.38 -80.8,42.6 -181.64,63.71 -302.19,63.71 -175.49,0 -310.27,-50.73 -404.32,-152.58 -94.05,-101.45 -149.97,-249.58 -168.38,-443.96zm1308.94 -296.23c0,-177.75 21.33,-327.08 63.68,-448.01 31.34,-88.86 74.66,-168.81 129.28,-239.43 54.61,-70.6 114.4,-122.95 179.36,-157.45 86.63,-45.85 186.5,-68.99 299.61,-68.99 204.91,0 368.45,79.95 491.58,239.43 122.82,159.89 184.24,381.87 184.24,666.33 0,282.04 -61.1,502.79 -182.93,661.87 -121.85,159.48 -285.07,239.02 -489.01,239.02 -206.53,0 -371.03,-79.12 -492.88,-237.79 -121.85,-158.28 -182.93,-376.6 -182.93,-654.98zm288.94 -11.77c0,197.63 36.52,347.37 109.25,449.63 72.71,101.86 165.15,152.99 276.97,152.99 112.16,0 203.94,-50.72 276.02,-151.77 71.74,-101.45 107.61,-253.22 107.61,-455.72 0,-200.05 -34.9,-349.4 -105.03,-447.59 -69.81,-98.61 -162.56,-147.72 -278.6,-147.72 -115.69,0 -209.11,49.92 -279.89,149.33 -70.77,99.83 -106.33,249.97 -106.33,450.85zm2165.75 230.09l271.49 104.7c-41.69,191.95 -111.18,334.38 -208.14,427.73 -96.96,92.91 -219.77,139.59 -368.77,139.59 -184.54,0 -336.13,-79.14 -455.06,-237.39 -118.63,-158.28 -178.1,-374.57 -178.1,-649.29 0,-290.15 59.81,-515.78 179.06,-676.48 119.27,-160.7 276.34,-241.06 470.9,-241.06 170.01,0 308,63.32 414.03,189.53 63.34,74.66 110.52,181.79 142.2,321.8l-277.31 82.78c-16.48,-90.09 -50.74,-161.51 -102.78,-213.87 -52.35,-52.34 -115.7,-78.31 -190.03,-78.31 -103.11,0 -186.81,46.25 -250.81,139.19 -64.31,92.53 -96.3,242.67 -96.3,450.45 0,219.94 31.66,376.99 94.69,470.32 63.36,93.74 145.44,140.4 246.59,140.4 74.67,0 138.99,-29.62 192.63,-89.27 53.65,-59.65 92.44,-152.99 115.71,-280.82zm502.57 642.8l0 -1743.33 281.19 0 0 1743.33 -281.19 0zm1799.24 0l-302.83 0 -119.91 -396.88 -556.87 0 -115.38 396.88 -297.34 0 539.08 -1743.33 297.03 0 556.22 1743.33zm-513.89 -691.5l-192.94 -645.22 -187.45 645.22 380.39 0zm671.29 691.5l0 -1728.73 281.18 0 0 1434.11 696.18 0 0 294.62 -977.36 0z"/>
   <path class="fil2" d="M10653.59 11862.49l0 -1743.33 285.08 0 0 1743.33 -285.08 0zm556.08 0l0 -1743.33 275.91 0 579.35 1168.3 0 -1168.3 263.46 0 0 1743.33 -284.76 0 -570.5 -1145.99 0 1145.99 -263.46 0zm1360.88 -861.12c0,-177.75 21.62,-327.08 64.54,-448.01 31.79,-88.86 75.69,-168.81 131.07,-239.43 55.38,-70.6 116.01,-122.95 181.87,-157.45 87.82,-45.85 189.08,-68.99 303.76,-68.99 207.76,0 373.55,79.95 498.41,239.43 124.52,159.89 186.79,381.87 186.79,666.33 0,282.05 -61.95,502.79 -185.48,661.87 -123.54,159.48 -289,239.02 -495.79,239.02 -209.39,0 -376.18,-79.12 -499.71,-237.79 -123.54,-158.28 -185.46,-376.6 -185.46,-654.98zm292.94 -11.77c0,197.63 37.02,347.37 110.75,449.63 73.74,101.86 167.45,152.99 280.83,152.99 113.71,0 206.77,-50.72 279.85,-151.77 72.74,-101.45 109.12,-253.22 109.12,-455.72 0,-200.05 -35.41,-349.4 -106.52,-447.59 -70.77,-98.61 -164.82,-147.72 -282.45,-147.72 -117.3,0 -212.02,49.92 -283.77,149.33 -71.75,99.83 -107.81,249.97 -107.81,450.85zm1655.46 872.89l-503.66 -1743.33 308.03 0 357.51 1290.45 343.08 -1290.45 302.77 0 -500.7 1743.33 -307.03 0zm2073.57 0l-307.02 0 -121.58 -396.88 -564.61 0 -116.96 396.88 -301.48 0 546.58 -1743.33 301.15 0 563.92 1743.33zm-521.01 -691.5l-195.63 -645.22 -190.05 645.22 385.68 0zm1573.22 48.7l275.25 104.7c-42.27,191.95 -112.72,334.38 -211.03,427.73 -98.31,92.91 -222.82,139.59 -373.89,139.59 -187.1,0 -340.8,-79.14 -461.38,-237.39 -120.26,-158.28 -180.55,-374.57 -180.55,-649.29 0,-290.15 60.63,-515.78 181.53,-676.48 120.92,-160.7 280.17,-241.06 477.45,-241.06 172.35,0 312.27,63.32 419.76,189.53 64.21,74.66 112.07,181.79 144.17,321.8l-281.14 82.78c-16.71,-90.09 -51.46,-161.51 -104.21,-213.86 -53.09,-52.35 -117.32,-78.32 -192.67,-78.32 -104.54,0 -189.4,46.25 -254.3,139.19 -65.21,92.53 -97.63,242.67 -97.63,450.45 0,219.94 32.1,376.99 95.99,470.32 64.23,93.74 147.46,140.4 250.03,140.4 75.69,0 140.91,-29.62 195.3,-89.27 54.4,-59.65 93.72,-152.99 117.32,-280.82zm-618.34 1107.85l0 -139.59c66.18,8.51 126.8,12.98 182.18,12.98 57.03,0 99.62,-12.58 127.15,-38.14 21.3,-19.08 31.78,-43.43 31.78,-73.86 0,-26.78 -9.83,-50.33 -29.82,-70.21 -19.99,-19.88 -50.79,-29.62 -92.41,-29.62 -41.28,0 -83.22,8.12 -126.47,23.94l25.21 -118.09c49.82,-21.92 103.57,-32.46 161.23,-32.46 80.28,0 140.9,21.91 182.52,65.33 41.62,43.84 62.58,96.99 62.58,159.49 0,70.2 -22.93,126.61 -69.14,170.44 -62.26,59.65 -151.37,89.27 -267.38,89.27 -82.58,0 -145.16,-6.49 -187.43,-19.48zm2405.84 -465.05l-307.02 0 -121.59 -396.88 -564.6 0 -116.98 396.88 -301.47 0 546.58 -1743.33 301.15 0 563.93 1743.33zm-521.01 -691.5l-195.63 -645.22 -190.06 645.22 385.69 0zm-387.32 -1207.67l-123.86 0c-0.66,-18.26 -1,-32.45 -1,-42.6 0,-83.2 16.39,-147.32 49.16,-191.95 32.44,-45.05 74.71,-67.36 125.83,-67.36 22.61,0 43.26,2.84 62.59,8.93 19.34,6.09 54.4,23.13 105.19,51.12 51.12,28 90.76,42.21 119.94,42.21 20.3,0 37.34,-8.12 51.1,-23.95 14.1,-16.23 22.62,-43.01 26.54,-80.75l123.86 0c-0.65,108.34 -16.7,185.45 -48.16,232.12 -31.78,46.67 -72.42,69.79 -122.23,69.79 -21.95,0 -43.24,-2.84 -64.21,-8.51 -14.75,-4.87 -51.45,-21.91 -110.11,-50.72 -58.98,-28.82 -101.57,-43.02 -128.44,-43.02 -20.65,0 -36.38,7.7 -47.86,23.53 -11.79,15.43 -17.7,42.62 -18.34,81.16zm1001.07 1038.05c0,-177.75 21.62,-327.08 64.55,-448.01 31.78,-88.86 75.7,-168.81 131.08,-239.43 55.38,-70.6 115.99,-122.95 181.86,-157.45 87.82,-45.85 189.09,-68.99 303.76,-68.99 207.75,0 373.56,79.95 498.4,239.43 124.54,159.89 186.8,381.87 186.8,666.33 0,282.05 -61.94,502.79 -185.47,661.87 -123.54,159.48 -289.02,239.02 -495.8,239.02 -209.38,0 -376.19,-79.12 -499.72,-237.79 -123.54,-158.28 -185.46,-376.6 -185.46,-654.98zm292.94 -11.77c0,197.63 37.03,347.37 110.77,449.63 73.72,101.86 167.44,152.99 280.82,152.99 113.7,0 206.76,-50.72 279.85,-151.77 72.73,-101.45 109.11,-253.22 109.11,-455.72 0,-200.05 -35.39,-349.4 -106.5,-447.59 -70.77,-98.61 -164.82,-147.72 -282.46,-147.72 -117.31,0 -212.01,49.92 -283.78,149.33 -71.75,99.83 -107.81,249.97 -107.81,450.85z"/>
  </g>
  <path class="fil3 str1" d="M5831.76 6945.15c-306.79,181.14 -593.46,351.4 -881.14,519.94 -320.65,187.86 -639.45,379.2 -965.04,558.16 -103.25,56.75 -131.4,122.78 -130.14,234.61 7.38,644.86 3.45,1289.86 12.11,1934.68 2.18,161.92 -31.75,180.68 -170.97,99.49 -567.17,-330.73 -1138.3,-654.69 -1710.67,-976.35 -80.83,-45.4 -112.58,-95.35 -112.91,-188.27 -2.45,-682.06 -8.83,-1364.12 -18.18,-2046.12 -1.18,-85.49 25.57,-135.9 99.48,-178.58 595.38,-343.73 1189.15,-690.25 1782.39,-1037.66 56.52,-33.09 102.99,-53.16 168.91,-15.45 633.63,362.64 1268.95,722.31 1926.16,1095.55z"/>
  <path class="fil3 str1" d="M2179.16 12234.94c-653.81,-374.32 -1276.02,-731.69 -1899.94,-1086.03 -65.03,-36.92 -77.26,-85.25 -77.82,-152.09 -5.63,-681.92 -11.82,-1363.85 -22.02,-2045.7 -1.81,-121.38 35.73,-121.07 126.64,-68.83 588.26,338.05 1178,673.5 1768.24,1008.08 63.23,35.83 106.82,71.26 106.49,154.92 -2.76,718.8 -1.59,1437.6 -1.59,2189.65z"/>
  <g id="_1492098148752">
   <path class="fil3 str1" d="M8130.52 11091.91c3.32,706.4 5.48,1412.82 11.38,2119.2 0.76,90.1 -25.51,144.89 -107.83,192.12 -590.76,338.89 -1179.26,681.79 -1765.49,1028.46 -76.18,45.04 -130.75,39.5 -202.36,-1.65 -590.54,-339.32 -1182.79,-675.62 -1774.51,-1012.88 -53.31,-30.39 -106.9,-53.89 -106.49,-134.28 3.8,-730.68 4.37,-1461.4 5.87,-2192.1 613.63,346.95 1228.14,692.38 1839.85,1042.68 81.48,46.65 137.42,67.92 231.4,10.39 374.36,-229.17 753.63,-450.99 1138.25,-662.48 241.49,-132.79 455.03,-319.28 729.93,-389.46z"/>
   <path class="fil3 str1" d="M8130.52 11091.91c-274.9,70.18 -488.44,256.67 -729.93,389.46 -384.62,211.49 -763.89,433.31 -1138.25,662.48 -93.98,57.53 -149.92,36.26 -231.4,-10.39 -611.71,-350.3 -1226.22,-695.73 -1839.85,-1042.68 99.7,-122.99 247.06,-176.23 377.72,-251.71 523.85,-302.58 1033.61,-629.75 1573.31,-904.77 342.98,139.95 644,357.17 970.9,526.87 342.9,178.02 655.91,411.2 1018.32,553.52 -0.27,25.73 -0.55,51.48 -0.82,77.22z"/>
   <path class="fil3 str1" d="M8131.34 11014.68c-362.41,-142.31 -675.41,-375.48 -1018.33,-553.51 -326.88,-169.7 -627.91,-386.92 -970.88,-526.88 -0.04,-755.61 -0.04,-1511.24 -0.04,-2275.9 152.68,35.17 274.33,134.53 406.34,208.34 485.92,271.74 966.29,553.44 1451.47,826.56 84.58,47.61 128.79,99.25 128.53,201.27 -1.75,706.69 1.36,1413.41 2.91,2120.12z"/>
  </g>
  <path class="fil3 str1" d="M1667.98 12395.85c219.66,124.02 417.21,234.93 614.16,346.9 242.31,137.79 483.91,276.81 726.31,414.44 55,31.24 106.78,59.9 106.59,136.65 -1.23,519.2 -0.63,1038.43 -0.63,1589.42 -210.08,-118.62 -396.9,-223.52 -583.16,-329.39 -253.14,-143.89 -505.41,-289.33 -759.1,-432.25 -55.95,-31.53 -105.21,-59.97 -104.98,-136.76 1.56,-518.83 0.81,-1037.66 0.81,-1589.01z"/>
  <path class="fil0" d="M11118.51 13009.99l0 121.15 -252.58 0 0 144.03 232.4 0 0 121.15 -232.4 0 0 177.44 263.87 0 0 121.15 -360.68 0 0 -684.92 349.39 0zm791.55 0l0 684.92 -91.18 0 0 -580.94 -90.66 580.94 -98.16 0 -88.77 -580.94 0 580.94 -91.17 0 0 -684.92 143.9 0 87.42 544.21 85.93 -544.21 142.69 0z"/>
  <path class="fil0" d="M12640.27 13694.19l0 -691.52 205.23 0c41.32,0 73.2,18.93 95.66,56.98 21.74,37.4 32.67,83.95 32.67,139.81 0,54.41 -10.7,98.56 -31.98,132.91 -6.92,11.56 -17.28,22.15 -30.86,31.46 15.09,11.89 25.33,22.8 30.96,32.43 9.91,17.33 16.12,43.18 18.54,77.53 1.38,25.05 2.06,64.05 2.06,117.03 0.23,32.9 1.73,54.57 4.73,64.84 2.19,8.19 6.67,14.94 13.46,20.23l0 18.3 -94.03 0c-6.1,-34.67 -9.09,-80.91 -9.09,-138.85 -0.23,-36.93 -1.27,-61.16 -3.12,-72.71 -2.41,-17.5 -7.12,-30.82 -14.16,-40.3 -8.28,-11.23 -24.73,-16.85 -49.15,-16.85l-88.05 0 0 268.71 -82.87 0zm82.87 -387.18l99.8 0c24.88,0 42.35,-8.82 52.48,-26.33 8.99,-15.41 13.47,-37.4 13.47,-65.97 0,-62.44 -19.79,-93.58 -59.51,-93.58l-106.24 0 0 185.88zm769.92 -322.64c38.22,0 73.44,16.69 105.55,49.91 58.25,60.2 87.36,164.85 87.36,314.14 0,118.8 -18.52,209.65 -55.59,272.42 -15.76,26.64 -34.53,47.82 -56.4,63.4 -26.02,18.79 -53.97,28.25 -83.56,28.25 -45.48,0 -85.29,-20.86 -119.49,-62.6 -50.52,-61.8 -75.84,-162.13 -75.84,-300.98 0,-119.1 18.53,-210.13 55.59,-272.89 36.26,-61.16 83.69,-91.65 142.38,-91.65zm-1.38 122.31c-40.51,0 -70.68,28.73 -90.7,86.05 -13.93,39.47 -20.95,90.68 -20.95,153.29 0,86.51 12.33,151.37 37.06,194.23 19.23,33.22 43.63,49.92 73.33,49.92 29.82,0 54.32,-16.7 73.55,-49.92 24.75,-42.86 37.07,-107.87 37.07,-194.71 0,-83.64 -12.32,-146.73 -37.07,-188.93 -19.56,-33.24 -43.73,-49.93 -72.29,-49.93zm526.14 587.51l0 -691.52 197.86 0c42.49,0 74.7,18.61 96.69,56.01 19.1,32.11 28.66,73.53 28.66,124.4 0,42.71 -6.8,77.38 -20.5,103.71 -6.33,12.19 -16.22,24.08 -29.69,35.31 13.47,9.79 23.13,18.93 29,27.77 22.91,31.94 34.31,77.53 34.31,136.61 0,57.3 -11.74,105.94 -35.34,145.76 -14.85,25.04 -31.65,41.56 -50.3,49.76 -18.42,8.18 -44.54,12.19 -78.49,12.19l-172.2 0zm81.49 -302.42l0 183.96 104.18 0c43.84,0 65.71,-32.43 65.71,-97.45 0,-24.87 -4.26,-44.45 -12.77,-58.43 -11.28,-18.77 -27.5,-28.08 -48.93,-28.08l-108.19 0zm0 -270.64l0 152.17 99.8 0c22.32,0 38.56,-8.82 48.92,-26.33 7.71,-13.32 11.51,-30.65 11.51,-52.32 0,-48.97 -20.95,-73.52 -62.73,-73.52l-97.5 0zm771.3 -136.76c38.21,0 73.43,16.69 105.56,49.91 58.23,60.2 87.36,164.85 87.36,314.14 0,118.8 -18.54,209.65 -55.61,272.42 -15.76,26.64 -34.53,47.82 -56.38,63.4 -26.02,18.79 -53.99,28.25 -83.58,28.25 -45.46,0 -85.29,-20.86 -119.47,-62.6 -50.54,-61.8 -75.86,-162.13 -75.86,-300.98 0,-119.1 18.55,-210.13 55.6,-272.89 36.27,-61.16 83.68,-91.65 142.38,-91.65zm-1.38 122.31c-40.52,0 -70.67,28.73 -90.69,86.05 -13.94,39.47 -20.95,90.68 -20.95,153.29 0,86.51 12.31,151.37 37.06,194.23 19.21,33.22 43.61,49.92 73.31,49.92 29.82,0 54.34,-16.7 73.55,-49.92 24.75,-42.86 37.07,-107.87 37.07,-194.71 0,-83.64 -12.32,-146.73 -37.07,-188.93 -19.56,-33.24 -43.73,-49.93 -72.28,-49.93zm106.58 -313.99l-83.33 140.62 -56.98 0 53.29 -140.62 87.02 0zm592.2 332.28l0 569.22 -84.93 0 0 -569.22 -122.93 0 0 -122.3 330.8 0 0 122.3 -122.94 0zm515.43 -122.3l0 691.52 -84.93 0 0 -691.52 84.93 0zm688.08 226.33l-84.94 0c-5.41,-31.94 -12.19,-56.34 -20.26,-72.88 -15.08,-30.98 -37.3,-46.54 -66.76,-46.54 -27.73,0 -50.07,14.75 -67.21,44.13 -24.75,43.03 -37.06,109 -37.06,198.08 0,85.24 12.31,149.46 36.83,192.63 16.35,28.58 37.86,42.86 64.34,42.86 30.38,0 53.99,-17.97 70.9,-53.93 7.82,-17.33 14.26,-42.54 19.22,-76.1l84.94 0c-6.09,43.51 -12.3,76.26 -18.86,98.25 -30.98,104.66 -83.46,156.99 -157.24,156.99 -53.87,0 -97.02,-27.93 -129.49,-83.79 -37.98,-65.82 -56.97,-158.43 -56.97,-277.87 0,-119.91 19.11,-213.18 57.32,-279.95 33.04,-57.62 76.89,-86.51 131.55,-86.51 41.22,0 76.67,17.01 106.59,51.2 26.35,30.5 45.46,71.27 57.32,122.32 4.25,17.65 7.6,41.24 9.78,71.11zm414.5 322.65l-28.32 142.54 -89.67 0 144.91 -691.52 98.18 0 143.65 691.52 -92.43 0 -26.24 -142.54 -150.08 0zm75.15 -395.53l-52.6 277.07 103.94 0 -51.34 -277.07z"/>
  <polygon class="fil0" points="18453.99,13014.69 18453.99,13135.84 18223.18,13135.84 18223.18,13279.87 18435.56,13279.87 18435.56,13401.02 18223.18,13401.02 18223.18,13578.46 18464.33,13578.46 18464.33,13699.61 18134.68,13699.61 18134.68,13014.69 "/>
  <path class="fil4" d="M5780.53 6974.44c-298.9,176.47 -578.19,342.35 -858.46,506.55 -312.39,183.02 -622.98,369.44 -940.18,543.79 -100.59,55.29 -128.02,119.62 -126.79,228.57 7.18,628.25 3.36,1256.64 11.79,1884.85 2.13,157.76 -30.93,176.03 -166.57,96.93 -552.56,-322.21 -1108.98,-637.82 -1666.61,-951.2 -78.75,-44.24 -109.68,-92.9 -110,-183.43 -2.39,-664.5 -8.61,-1328.98 -17.72,-1993.42 -1.14,-83.29 24.92,-132.4 96.92,-173.99 580.06,-334.87 1158.53,-672.47 1736.5,-1010.94 55.06,-32.24 100.33,-51.79 164.55,-15.04 617.32,353.29 1236.27,703.7 1876.57,1067.33z"/>
  <path class="fil2" d="M2144.12 12175.62c-630.91,-361.2 -1231.33,-706.05 -1833.39,-1047.98 -62.75,-35.63 -74.56,-82.27 -75.1,-146.77 -5.43,-658.04 -11.4,-1316.08 -21.25,-1974.05 -1.75,-117.12 34.48,-116.83 122.21,-66.42 567.65,326.21 1136.74,649.91 1706.31,972.77 61.01,34.58 103.07,68.77 102.75,149.5 -2.66,693.62 -1.53,1387.24 -1.53,2112.95z"/>
  <g id="_1492098143904">
   <path class="fil5" d="M8117.81 11102.36c3.31,690.17 5.45,1380.36 11.33,2070.51 0.75,88.03 -25.39,141.56 -107.32,187.7 -587.98,331.11 -1173.7,666.13 -1757.17,1004.83 -75.82,44.01 -130.13,38.6 -201.41,-1.61 -587.75,-331.52 -1177.21,-660.09 -1766.14,-989.61 -53.06,-29.69 -106.4,-52.65 -105.98,-131.19 3.77,-713.89 4.34,-1427.82 5.84,-2141.73 610.73,338.98 1222.34,676.47 1831.17,1018.72 81.09,45.58 136.77,66.36 230.31,10.15 372.6,-223.9 750.08,-440.63 1132.89,-647.26 240.34,-129.74 452.88,-311.94 726.48,-380.51z"/>
   <path class="fil6" d="M8117.81 11102.36c-273.6,68.57 -486.14,250.77 -726.48,380.51 -382.81,206.63 -760.29,423.36 -1132.89,647.26 -93.54,56.21 -149.22,35.43 -230.31,-10.15 -608.83,-342.25 -1220.44,-679.74 -1831.17,-1018.72 99.22,-120.16 245.89,-172.18 375.93,-245.93 521.38,-295.63 1028.74,-615.28 1565.9,-883.99 341.36,136.75 640.96,348.97 966.32,514.77 341.29,173.93 652.81,401.76 1013.52,540.8 -0.27,25.15 -0.55,50.3 -0.82,75.45z"/>
   <path class="fil7" d="M8130.58 11074.93c-360.7,-139.05 -672.23,-366.86 -1013.53,-540.79 -325.34,-165.81 -624.95,-378.04 -966.31,-514.78 -0.03,-738.25 -0.03,-1476.51 -0.03,-2223.61 151.96,34.36 273.03,131.44 404.42,203.56 483.63,265.5 961.74,540.72 1444.63,807.57 84.18,46.51 128.18,96.97 127.92,196.64 -1.74,690.45 1.36,1380.94 2.9,2071.41z"/>
  </g>
  <path class="fil7" d="M1690.55 12434.74c212.78,120.14 404.15,227.58 594.93,336.04 234.73,133.48 468.76,268.15 703.57,401.47 53.28,30.26 103.44,58.02 103.26,132.37 -1.2,502.95 -0.62,1005.91 -0.62,1539.65 -203.5,-114.91 -384.47,-216.52 -564.9,-319.07 -245.21,-139.39 -489.58,-280.27 -735.33,-418.72 -54.19,-30.54 -101.92,-58.09 -101.69,-132.48 1.51,-502.58 0.78,-1005.17 0.78,-1539.26z"/>
  <path class="fil0" d="M10791.09 7712.22l0 1571.49 -134.67 0 0 -1571.49 134.67 0zm1448.64 1276.39l0 -1276.39 131.27 0 0 1571.49 -152.01 0 -514.53 -1276.38 0 1276.38 -131.25 0 0 -1571.49 160.53 0 505.99 1276.39zm1728.49 -803.63l-130.69 0c-11.64,-65.66 -23.86,-113.8 -36.64,-144.45 -50.58,-119.65 -131.27,-179.47 -241.5,-179.47 -91.78,0 -166.48,45.96 -224.17,137.88 -71.6,113.81 -107.39,283.08 -107.39,507.43 0,121.09 13.35,236.01 40.06,344.34 22.16,92.66 59.67,163.8 112.22,213.77 49.44,47.05 106.83,70.4 171.6,70.4 93.2,0 167.06,-53.26 221.61,-160.13 30.4,-60.57 54.84,-149.94 73.3,-268.86l131.55 0c-24.43,172.18 -53.98,294.02 -88.36,365.15 -40.06,82.8 -91.2,145.91 -153.98,190.05 -59.95,42.69 -125.3,64.21 -195.76,64.21 -127.56,0 -230.7,-62.75 -309.67,-188.23 -94.91,-151.75 -142.35,-364.05 -142.35,-636.91 0,-269.94 48.01,-481.52 144.04,-634 82.12,-130.23 190.63,-195.51 325.59,-195.51 97.74,0 181.84,36.1 252.3,107.97 59.38,61.28 103.13,144.09 131.55,248.06 10.51,37.93 19.32,90.45 26.69,158.3zm1381.32 -472.76l136.36 0 0 1019.94c0,174.36 -34.09,315.18 -102.27,422.06 -73.31,114.16 -173.59,171.08 -300.6,171.08 -123.3,0 -219.32,-53.99 -288.08,-162.32 -65.64,-104.33 -98.3,-238.22 -98.3,-402l0 -1048.76 136.38 0 0 990.02c0,143.73 23.86,253.53 71.58,329.04 44.04,68.94 105.13,103.6 183.25,103.6 81.26,0 144.9,-36.11 191.78,-107.97 46.59,-73.33 69.9,-180.2 69.9,-320.65l0 -994.04zm899.46 1571.49l0 -1571.49 441.79 0c90.9,0 162.22,40.14 213.65,120.75 46.01,72.95 69.04,164.52 69.04,275.04 0,78.43 -12.78,147.01 -38.09,206.47 -19.88,44.87 -51.41,85.37 -94.59,121.84 52.55,33.55 91.19,68.58 115.62,105.79 43.2,67.49 64.78,158.32 64.78,272.49 0,130.96 -27.28,238.93 -81.53,323.93 -62.8,96.66 -148.6,145.18 -257.97,145.18l-432.7 0zm136.36 -1389.83l0 483.71 244.62 0c79.83,0 135.53,-25.54 167.63,-76.97 25.28,-41.59 37.79,-98.85 37.79,-172.54 0,-67.49 -11.37,-119.66 -33.82,-156.13 -32.38,-52.17 -89.21,-78.07 -170.74,-78.07l-245.48 0zm0 654.44l0 553.73 288.94 0c72.45,0 126.73,-29.18 162.51,-87.54 30.97,-49.98 46.32,-116.37 46.32,-198.82 0,-178.37 -76.99,-267.37 -231.28,-267.37l-266.49 0zm1908.89 277.96l-402.85 0 -104.85 457.43 -140.06 0 377.86 -1571.49 153.43 0 363.66 1571.49 -148.3 0 -98.89 -457.43zm-361.38 -190.42l312.23 0 -149.71 -696.01 -162.52 696.01zm1289.54 647.85l0 -1571.49 407.7 0c118.2,0 213.93,58.73 287.8,176.56 89.78,142.26 134.67,339.61 134.67,590.95 0,197.35 -26.43,365.15 -78.98,503.4 -75.86,200.27 -192.34,300.58 -349.16,300.58l-402.03 0zm136.38 -1389.83l0 1208.17 263.08 0c77.56,0 140.36,-39.04 188.65,-116.73 68.18,-110.9 102.27,-273.58 102.27,-487.35 0,-218.87 -32.95,-380.46 -98.86,-485.53 -50.01,-79.16 -117.34,-118.56 -202,-118.56l-253.14 0zm1860.59 -223.23c109.39,0 203.71,44.86 282.98,134.59 79.26,89.74 136.09,220.7 170.75,392.51 19.32,98.13 28.98,199.53 28.98,303.5 0,178.02 -27,338.15 -80.69,479.69 -87.79,229.45 -223.88,344.36 -408.54,344.36 -143.19,0 -255.71,-66.4 -337.82,-198.82 -45.45,-73.31 -80.41,-157.58 -104.82,-252.42 -30.99,-118.92 -46.6,-243.31 -46.6,-372.81 0,-183.11 26.69,-345.45 79.83,-486.62 87.22,-229.44 225.86,-343.98 415.93,-343.98zm-2.28 190.41c-98.29,0 -178.13,48.51 -239.77,145.19 -75.86,119.28 -113.93,284.16 -113.93,495 0,205.73 38.07,368.43 113.93,488.45 61.07,96.66 139.5,145.18 235.53,145.18 127.56,0 223.59,-83.18 287.8,-249.15 41.19,-106.88 61.64,-236.37 61.64,-388.86 0,-208.65 -38.06,-372.08 -113.92,-490.62 -61.65,-96.68 -138.65,-145.19 -231.28,-145.19zm1349.22 748.54l0 674.11 -136.36 0 0 -1571.49 464.51 0c118.75,0 205.98,43.42 261.66,130.59 45.47,71.87 68.19,169.63 68.19,292.93 0,110.53 -17.9,199.9 -53.4,267.38 -17.63,33.56 -46.6,69.68 -86.38,107.99 32.67,21.52 56.26,43.04 70.75,64.19 28.97,41.23 45.46,118.2 50,230.91l8.24 285.25c1.71,52.54 6.25,89.02 13.34,109.09 7.11,15.31 19.32,31.36 36.66,47.78l0 35.38 -166.5 0c-15.05,-73.32 -23,-204.63 -23.56,-394.33 -0.85,-81.71 -10.51,-144.09 -28.14,-186.76 -26.71,-60.56 -76.98,-91.57 -150.86,-93.02l-328.15 0zm0 -715.72l0 534.04 313.94 0c75.58,0 129.27,-25.16 160.82,-75.87 28.97,-45.96 43.46,-111.62 43.46,-198.07 0,-173.27 -59.95,-260.1 -180.13,-260.1l-338.09 0zm1966.86 932.4l-402.87 0 -104.84 457.43 -140.05 0 377.85 -1571.49 153.43 0 363.67 1571.49 -148.32 0 -98.87 -457.43zm-361.38 -190.42l312.23 0 -149.73 -696.01 -162.5 696.01zm1678.18 647.85l0 -1571.49 407.72 0c118.18,0 213.93,58.73 287.8,176.56 89.76,142.26 134.67,339.61 134.67,590.95 0,197.35 -26.43,365.15 -78.98,503.4 -75.86,200.27 -192.36,300.58 -349.18,300.58l-402.03 0zm136.38 -1389.83l0 1208.17 263.1 0c77.54,0 140.34,-39.04 188.64,-116.73 68.18,-110.9 102.28,-273.58 102.28,-487.35 0,-218.87 -32.95,-380.46 -98.86,-485.53 -50.02,-79.16 -117.35,-118.56 -202.02,-118.56l-253.14 0zm2171.14 1199.41l0 190.42 -739.82 0 0 -1571.49 729.59 0 0 190.42 -593.23 0 0 479.33 547.22 0 0 190.42 -547.22 0 0 520.9 603.46 0z"/>
 </g>
</svg>
