<?xml version="1.0" encoding="UTF-8"?>
<!DOCTYPE svg PUBLIC "-//W3C//DTD SVG 1.1//EN" "http://www.w3.org/Graphics/SVG/1.1/DTD/svg11.dtd">
<!-- Creator: CorelDRAW -->
<svg xmlns="http://www.w3.org/2000/svg" xml:space="preserve" width="600mm" height="297mm" version="1.1" style="shape-rendering:geometricPrecision; text-rendering:geometricPrecision; image-rendering:optimizeQuality; fill-rule:evenodd; clip-rule:evenodd"
viewBox="0 0 60000 29700"
 xmlns:xlink="http://www.w3.org/1999/xlink"
 xmlns:xodm="http://www.corel.com/coreldraw/odm/2003">
 <defs>
  <style type="text/css">
   <![CDATA[
    .str0 {stroke:#323133;stroke-width:52.21;stroke-miterlimit:22.926}
    .fil10 {fill:none}
    .fil2 {fill:#FEFEFE}
    .fil1 {fill:#C0333D}
    .fil9 {fill:#323133}
    .fil8 {fill:#FEFEFE;fill-rule:nonzero}
    .fil18 {fill:#F9A540;fill-rule:nonzero}
    .fil14 {fill:#EE3F42;fill-rule:nonzero}
    .fil16 {fill:#F6EC48;fill-rule:nonzero}
    .fil0 {fill:#C0333D;fill-rule:nonzero}
    .fil7 {fill:#8DC861;fill-rule:nonzero}
    .fil12 {fill:#5E6264;fill-rule:nonzero}
    .fil6 {fill:#64BD65;fill-rule:nonzero}
    .fil19 {fill:#5CBB61;fill-rule:nonzero}
    .fil13 {fill:#22ADE4;fill-rule:nonzero}
    .fil15 {fill:#323133;fill-rule:nonzero}
    .fil5 {fill:#1DB360;fill-rule:nonzero}
    .fil17 {fill:#28B064;fill-rule:nonzero}
    .fil4 {fill:#38A75E;fill-rule:nonzero}
    .fil11 {fill:#25804D;fill-rule:nonzero}
    .fil3 {fill:#00794B;fill-rule:nonzero}
   ]]>
  </style>
 </defs>
 <g id="Camada_x0020_1">
  <metadata id="CorelCorpID_0Corel-Layer"/>
  <g id="_1491918655856">
   <path class="fil0" d="M54527.77 11431.24l0 0 -294.27 -535.22 1454.56 -783.73 348.47 687.47 -1508.76 631.48zm2002.32 6449.68l-2894.97 7.29 -414.94 1150.51 -1892.09 5.19 2907.3 -7323.12 1662.03 -4.57 2945.18 7308.46 -1891.42 4.69 -421.09 -1148.45zm-568.61 -1534.67l0 0 -526.12 -1420.18c-157.95,-417.62 -347.69,-1075.4 -358.25,-1075.4l-10.25 0c-10.17,0 -197.19,659.08 -352.86,1077.58l-518.66 1422.27 1766.14 -4.27zm-6412.5 -2345.7c-335.51,-417.35 -963.01,-677.1 -1538.17,-675.41 -1212.11,3.28 -1962.65,872.4 -1959.38,2074.35 3.51,1264.62 830.88,2046.26 1970.34,2043.38 700.12,-1.81 1368.07,-358.73 1669.8,-861.27l1777.52 455.31c-602.66,1297.39 -1906.75,2157.87 -3443.02,2161.34 -2100.79,5.48 -3797.67,-1588.87 -3803.66,-3794.16 -5.56,-2205.12 1682.85,-3808.54 3783.63,-3813.74 1442.3,-3.78 2677.63,766.42 3328.63,1935.06l-1785.69 475.14zm-8170.4 5068.47l-18.45 -7315.54 1755.89 -4.58 18.45 7315.72 -1755.89 4.4zm-3093.25 7.86l-1364.99 -2379.18 -898.52 2.4 5.87 2382.68 -1755.38 4.66 -18.92 -7315.83 2727.43 -6.86c1840,-4.69 2949.98,995.69 2953.46,2500.55 2.79,982.64 -465.56,1715.33 -1311.07,2114.74l1626.55 2692.18 -1964.43 4.66zm-2267.1 -3933.68l0 0 1211.72 -3.58c627.47,-1.22 877,-472.34 876.21,-869.35 -1.22,-397.37 -253.01,-866.71 -880.5,-865.42l-1212.12 3.08 4.69 1735.27zm-4664.81 2801.98l-2895.55 7.17 -414.83 1150.85 -1891.61 4.78 2907.81 -7323.01 1661.91 -4.07 2944.11 7307.76 -1891.53 5.08 -420.31 -1148.56zm-568.68 -1534.95l0 0 -526.04 -1419.7c-157.84,-417.91 -347.77,-1075.68 -358.42,-1075.68l-10.17 0c-10.48,0 -196.71,658.96 -352.54,1077.49l-518.98 1422.47 1766.15 -4.58zm-5258.49 -4615.99l18.84 7315.63 -1724.23 3.98 -4.86 -1786.96c-4.4,-1735.07 56.18,-2591.85 45.93,-2591.85l-10.68 0c-10.14,0 -592.89,1004.56 -655.37,1109.47l-853.08 1465.32 -909.28 2.6 -860.96 -1461.23c-62.87,-104.54 -650.6,-1106.19 -660.97,-1106.19l-10.65 0c-10.56,0.29 54.8,857.06 59.18,2591.74l4.49 1787.27 -1724.51 3.98 -18.61 -7315.23 1651.24 -4.27 1374.56 2212.36c535.38,865.75 619.19,1053.39 629.87,1053.39l10.34 0c10.56,0 93.38,-188.43 624.41,-1056.87l1363.27 -2219.25 1651.07 -3.89z"/>
   <path class="fil0" d="M24403.76 8259.57c446.4,-1.29 717.15,229.79 718.25,613.24 0.79,382.54 -268.54,617.92 -714.98,618.99l-366.81 1.02 1.42 697.63 -225.81 0.6 -4.97 -1930.18 592.9 -1.3zm-3.11 1019.9l0 0c317.18,-0.9 490.47,-155.66 489.68,-406.07 -0.71,-259.47 -188.23,-402.57 -491.77,-401.78l-361.11 0.91 2.18 807.73 361.02 -0.79zm2820.13 902.79l-437.53 -721.25c-29.92,3 -65.99,3 -98.95,3l-361.33 0.9 1.78 719.55 -225.89 0.6 -5.28 -1930.06 587.53 -1.5c451.88,-0.9 722.83,235.46 723.62,607.95 0.9,275.21 -144.68,471.52 -400.88,555.02l470.53 765.11 -253.6 0.68zm-514.87 -919.34l0 0c308.42,-0.9 467.96,-169.7 467.34,-401.27 -0.4,-245.24 -174.68,-396.61 -469.55,-395.71l-383.53 1.19 2.2 796.58 383.54 -0.79zm3085.08 700.43l0.6 212.16 -1304.29 3.47 -4.77 -1930.05 1287.65 -3.2 0.59 212.25 -1061.76 2.88 1.7 595.41 851.88 -2.32 0.51 201.2 -851.77 2.29 1.38 708.71 1078.28 -2.8zm1292.82 -1508.68l2.01 653.52 823.89 -2.01 0.4 203.88 -823.9 2.18 2.01 859.88 -226 0.59 -5.09 -1929.77 1260.05 -3.19 0.79 212.55 -1034.16 2.37zm3412.35 1496.62l0.8 212.24 -1304.09 3.51 -4.69 -1930.18 1287.53 -3.19 0.43 212.33 -1061.17 2.8 1.1 595.49 851.81 -2.29 0.39 201.2 -851.41 2.29 2.01 708.68 1077.29 -2.88zm1588.99 208.57l-5.6 -1930.17 226.31 -0.51 5.48 1929.78 -226.19 0.9zm3218.89 -1938.76l0.42 212.67 -647.92 1.7 4.38 1717.42 -223.6 0.59 -3.9 -1717.42 -645.2 1.58 -0.4 -212.44 1516.22 -4.1zm2387.26 -5.76l2.79 1130.4c2.01,545.67 -287.58,841.52 -792.09,842.82 -504.03,1.38 -791.69,-292.78 -793.3,-838.75l-2.69 -1130.6 225.89 -0.68 2.8 1133.28c1.21,419.01 194.81,625.49 567.3,624.59 374.38,-0.99 567.39,-208.37 565.81,-627.27l-2.71 -1133.2 226.2 -0.59zm1999.54 1924.69l-437.76 -721.05c-30.28,2.69 -65.96,2.69 -98.95,2.88l-361.11 0.91 1.67 719.55 -226.4 0.71 -4.66 -1929.78 587.81 -1.69c451.81,-1.3 722.55,235.26 723.26,607.44 0.79,275.63 -144.99,471.63 -401.19,555.24l470.34 765.28 -253.01 0.51zm-515.08 -919.56l0 0c308.71,-0.79 468.33,-169.4 467.54,-400.57 -0.79,-245.63 -175.27,-396.81 -469.94,-396.3l-383.44 1.19 2.79 796.58 383.05 -0.9zm2915.78 408.95l-967.38 2.4 -214.14 505.22 -242.13 0.48 833.05 -1931.87 206.65 -0.48 843.52 1927.89 -242.83 0.48 -216.74 -504.12zm0 0l-967.38 2.4 -214.14 505.22 -242.13 0.48 833.05 -1931.87 206.65 -0.48 843.52 1927.89 -242.83 0.48 -216.74 -504.12zm0 0l-967.38 2.4 -214.14 505.22 -242.13 0.48 833.05 -1931.87 206.65 -0.48 843.52 1927.89 -242.83 0.48 -216.74 -504.12zm-85.78 -200.97l0 0 -307.63 -715.89c-41.64,-99.54 -88.78,-234.36 -91.98,-234.36l-2.28 0c-3.08,0 -49.91,135.02 -90.39,234.68l-304.53 717.54 796.81 -1.97zm0 0l0 0 -307.63 -715.89c-41.64,-99.54 -88.78,-234.36 -91.98,-234.36l-2.28 0c-3.08,0 -49.91,135.02 -90.39,234.68l-304.53 717.54 796.81 -1.97zm0 0l0 0 -307.63 -715.89c-41.64,-99.54 -88.78,-234.36 -91.98,-234.36l-2.28 0c-3.08,0 -49.91,135.02 -90.39,234.68l-304.53 717.54 796.81 -1.97z"/>
   <polygon class="fil0" points="53247.33,9903.38 53248.12,10114.61 51948.83,10117.92 51943.75,8195.12 53226.91,8191.92 53227.3,8403.38 52169.64,8406.26 52170.74,8999.47 53020.22,8997.49 53020.65,9197.56 52171.53,9199.96 52173.62,9906.07 "/>
   <path class="fil1" d="M48878.32 8185.51l5.08 1940.34 937.87 -2.57c0,0 862.37,-49.43 872.23,-936.99 -15.65,-1012.02 -831.75,-1010.52 -977.13,-1003.46 0,0 -827.49,13.25 -838.05,2.68zm209.45 215.47l3.9 1515.42 720.54 -1.8c108.83,-10.65 245.94,-61.27 337.52,-115.59 224.39,-133.6 332.82,-343.87 334.72,-600.66 5.96,-270.15 -91.18,-540.98 -314.7,-692.95 -97.76,-66.18 -287.18,-101.06 -362.71,-102.64 -151.57,0.39 -303.34,0.39 -455.31,-0.2 -87.59,-0.31 -176.06,-0.59 -263.96,-1.58z"/>
   <path class="fil2" d="M6104.59 7036.13l-238.34 -551.85 -253.51 -587.02 121.37 -43.44c444.24,-157.85 1233.33,-348.79 1679.66,-413.96l114.2 -19.23 153.06 753.73 93.75 461.69c37.77,-5.4 75.25,-10.09 113.1,-14.78l-161.91 -1225.16c664.05,-58.98 1538.26,-78.81 2199.11,9.77l-44.15 722.04 -28.89 478.21 94.17 10.77 80.73 -633.55 71.15 -559.33c316.36,15.84 1400.64,246.22 1904.16,480.1l-210.16 667.04 0 -0.39 -136.71 434.46c18.22,6.58 36.35,12.46 54.21,19.12l272.91 -554.03 0.2 0 240.07 -486.37c398.39,166.31 732.6,318.17 1110.57,529.31l-270.15 446.63 0.2 0 -306.22 505.42 0.19 0 -702.21 1159.89 1190.91 -1.58 -27.63 -184.96 212.05 55.42c224.73,58.38 431.89,195.1 610.86,353.53 27.99,-168.88 75.81,-345.57 125.64,-491.46l157.16 -460.56 119.97 471.63c43.55,172.19 89.09,343.68 135.52,514.88 25.11,-40.96 52.2,-79.43 80.22,-113.92l204.48 -244.53 49.91 315.01c21.64,139.08 24.6,305.51 27.32,445.5 3.27,132.53 -25.51,275.43 -64.77,408.36 200.26,83.41 338,281.11 338.59,507.82 0,65.56 -11.07,129.93 -33.39,190.52 74.94,53.61 138.72,120.47 183.66,202.08 71.24,130.95 70.64,304.72 38.36,466.55 19.74,-10.17 39.66,-19.83 59.4,-28.9 120.28,-55.9 280.8,-134.51 385.62,-219.42l167.7 -149.88 64.89 218.35c76.91,256.39 91.97,649.08 -168.1,811.02 -24.04,14.66 -49.83,28.89 -77.54,42.06 31.98,18.02 61.69,39.74 89.29,65.36 95.36,89.88 172.9,184.33 251.82,287.77 37.65,49.04 101.71,138.41 157.42,166.12 67.87,33.67 176.28,91.69 229.9,146.38l153.35 152.98 -201.37 83.38c-200.02,80.82 -453.42,148.1 -669.84,148.78 -68.56,0 -138.52,-6.27 -205.67,-24.72 52.99,65.59 112.4,148.49 138.21,217.05l23.7 64.77c187.05,7.26 405.57,77.62 560.33,177.75l368.7 238.18 -437.96 27.79c-22.23,0.91 -46.83,3.7 -67.06,11.36 -65.87,25.5 -193.12,197.02 -254.5,279.81 153.86,-36.86 310.32,-66.47 460.76,-87.88l143.01 -21.04 20.54 143.21c63.35,439.43 -288.8,739.58 -667.05,876.69 -6.29,2.6 -12.76,4.29 -18.64,6.49 98.24,65.17 189.14,142.08 266.76,231.57 186.03,214.73 315.88,559.73 249.22,844.12l-48.92 222.81 -177.67 -137.42c-75.76,-51.92 -140.73,-99.54 -223.24,-144.28 -146.17,-79.52 -295.93,-151.18 -447,-220.64 35.57,98.36 58.08,195.92 52.2,277.44 -10.76,156.23 -92.96,388.42 -152.75,535.5l-87.4 215.83 -154.45 -174.08c-104.43,-117.28 -223.8,-270.75 -322.35,-428.28 -29.49,64.57 -67.45,125.84 -114.29,181.15 -51.63,61.69 -112.5,115.5 -181.17,157.16 0.99,2.09 1.61,3.59 2.4,5.17 42.94,103.04 46.44,243.23 2.68,355.65 50.34,-6.49 100.14,-10.36 149.57,-10.36 69.06,-0.2 138.8,6.86 205.18,24.91 133.72,36.16 385.62,103.52 421.7,261.56 13.16,57.8 -3.79,119.6 -46.44,160.95 -77.71,82.71 -181.34,160.13 -290.35,223.21 66.86,43.04 131.24,95.16 181.85,155.95 62.96,-18.34 137.31,-42.37 163.61,-60.79l640.15 -643.23 -587.73 1540.14 829.18 594.2 -100.95 154.76c-244.53,373.87 -719.27,619.5 -1162.8,621.31 -87.4,0 -174.48,-8.16 -260.38,-23.22 -349.55,-62.08 -751.44,-143.6 -1107.69,-142.7 -58.58,0 -116.57,2.09 -174.95,5.08 -384.55,19.32 -930.53,143.19 -996.4,600.67l5.59 99.06 -64.37 37.76c-24.13,24.41 -55.2,41.55 -88.7,51.02 -857.17,465.16 -1989.54,755.82 -2956.03,758.42 -152.75,0.51 -305.62,-5.96 -457.68,-18.42 -816.32,-69.97 -1685.04,-199.82 -2469.28,-442.45 -382.15,-118.78 -1090.04,-371.78 -1282.96,-755.91 -73.44,-146.2 -96.55,-312.1 -93.47,-475.02 -277.92,-171.52 -913.55,-189.54 -1190.48,-189.06 -109.31,0.43 -217.72,3.39 -326.64,8.08 -61.78,2.21 -123.66,3.9 -185.86,4.3 -429.66,0.9 -871.72,-58.7 -1276.77,-206.18 -146.97,-54 -336.82,-136.31 -464.77,-229.78l-208.35 -153.07 925.61 -702.32 -791.89 -1667.4 507.42 492.17 -51.32 -79.51 -11.56 4.06 -504.31 -648.71 -6.1 1.3 -44.12 -64.77c-67.48,-98.94 -133.16,-201.87 -194.93,-304.8 -58.3,-97.26 -199.9,-314.19 -154.34,-429.38 58.07,-146.8 429.37,-199.82 573.66,-220.13l23.53 -3.39 22.59 5.96c73.56,17.74 151.77,44.55 230.3,74.55l-444.24 -808.93 104.35 -50.93 -94.68 7.18 -33.96 -78.92c-123.58,-286.2 -254.02,-575.55 -370.59,-864.35 -82.51,-204.08 325.74,-304.41 513.18,-344.77 18.84,-21.22 42.65,-38.67 68.75,-50.34 28.7,-12.26 58.98,-17.51 90.28,-17.51l-16.33 -53.33 -0.9 0 -204.79 -474.71 -1.89 0 -5.09 -16.05 -14.15 -33.47 3.7 -1.61 -157.56 -520.05 -22 3.48 -290.97 -763.2 -4.18 0 -4.49 -22.82 -3.39 -8.98 1.58 -0.99 -173.29 -911.38 67.88 -43.95c197.38,-128.63 481.88,-68.95 671.02,43.95 51.52,30.71 101.35,68.56 149.28,110.5l-110.02 -507.98 16.53 -2.49 -157.53 -863.04 -35.56 -0.71 -99.07 -1226.97 92.77 -28.31c536.2,-164.11 1031.17,69.97 1292.05,549.88 56.49,103.44 107.2,206.85 153.63,313.48 93.58,-168.8 212.16,-346.59 329.64,-422.6 187.95,-121.88 516.29,-155.47 739.38,-149.28l115.22 3.11 22.4 1076.59 -49.63 11.04 2.2 787.32 -33.27 7.48 21.01 663.26 -35.16 14.24 0.99 0.39 1.38 651.4 -62.26 7.37 74.83 678.42 -58.3 15.23 1.41 595.61 -94.17 23.69 59.99 29.72 20.51 576.54 -144.88 357.55c27.52,387.62 47.15,776.24 67.96,1164.09 25.12,470.34 43.84,941.06 49.52,1411.79 185.44,482.6 362.43,969.48 533.8,1457.75 88.3,-3.7 176.29,-6.78 264.19,-10.76 193.92,-7.68 390.82,-18.13 584.74,-14.55 81.29,1.3 166.2,6.87 251.59,18.53 -96.75,-104.23 -189.54,-214.84 -277.81,-332.32 -531.82,-707.89 -921.14,-1731.29 -923.24,-2624.33l-14.74 -5719.25 1214.09 -1.61 -313.28 -556.74 -293.76 -522.53 0 -0.4 -199.71 -354.35 -0.28 0 -403.98 -718.25 103.64 -60c272.74,-156.66 607.35,-289.47 892.05,-426.38l105.81 -51.13 374.78 735.29 -0.2 0 199.7 391.21c31.69,-11.44 62.96,-22.2 94.85,-33.16zm175.39 10893.37c-19.63,161.32 -64.57,342.18 -99.46,506.8 867.06,303.54 1863.93,562.11 2777.99,586.54 57.88,1.7 115.9,2.18 173.97,2.18 799.49,-2.18 1625.87,-162.93 2384.89,-418.93 -41.47,-170.18 -94.49,-359.72 -106.75,-519.54 -3.39,-23.64 -3.39,-47.25 -0.28,-70.76 2.29,-21.91 6.98,-43.35 16.24,-63.07 5.09,-14.15 11.95,-27.51 19.13,-40.36 -741.28,494.34 -1627.74,724.24 -2576.4,726.33 -950.33,2.6 -1842.07,-219.53 -2589.33,-709.19zm5497.76 -265.37c151.66,-61.67 318.37,-96.47 435.45,-102.43 62.4,-2.99 124.85,-3.89 187.05,-3.89 172.79,-0.8 345.49,2.99 518.27,6.89 30.87,-32.6 61.38,-65.2 91.77,-98.27 -19.74,-55.7 -30.19,-114.01 -30.39,-173.78 -0.4,-113.21 36.27,-221.42 101.83,-310 -103.33,-81.01 -173.69,-193.12 -179.37,-335.51 -1.18,-33.9 -2.57,-68.56 -4.18,-102.85 -8.87,-203.88 2.29,-270.55 49.72,-450.59 -142.87,316.36 -315.88,613.71 -506.8,869.71 -199.9,267.05 -422.01,500.14 -663.35,700.72zm1260.93 -1784.79l75.53 -6.87 5.4 0c56.41,0 125.75,53.11 190.01,118.07 42.37,-159.02 107.42,-318.76 187.05,-449.09l98.24 -158.66c-148.66,-32.57 -294.24,-93.47 -309.38,-198.09 -10.57,-73.72 33.16,-139.71 101.83,-164.23 57.39,-35.95 169.5,-153.86 218.62,-202.27 67.77,-66.46 201.49,-205.86 296.45,-261.17 -184.05,-132.45 -353.76,-312.09 -467.53,-483.61l-80.62 -121.77c0.59,82.71 1.19,165.53 2.37,248.23 0.4,47.15 0.82,93.87 0.82,140.42 1.39,498.43 -119.59,1037.12 -318.79,1539.04zm315.01 -2030.11l201.28 -0.51c155.44,-0.39 315.49,12.26 470.33,45.05 -49.03,-120.07 -82.9,-248.62 -108.83,-359.94 -27.09,-115.98 -81.89,-207.64 -131.83,-312.1l-104.23 -182.44 211.37 -28.31c24.89,-4.06 55.99,-4.29 80.51,-4.29 172.98,-0.59 346.27,46.55 492.25,139.31 13.16,-50.11 28.61,-99.85 45.84,-148.77 -116.99,-107.11 -216.34,-243.03 -244.05,-399.77 -130.52,75.33 -256.08,151.85 -384.24,233.57l-234.55 163.43 9.26 -288.09c6.78,-206.48 60.39,-469.93 160.05,-652.1 73.72,-134.73 202.27,-216.03 344.26,-260.57 -160.01,-146.6 -329.52,-342.6 -380.76,-529.54l-141.09 -512.98 248.23 72.25c85.39,24.8 179.65,62.57 267.95,110.42 -5.48,-100.76 -18.45,-248.15 -44.24,-305.55l-233.77 -195.49 53.9 -81.61c-185.24,-39.17 -370.68,-152.47 -495.84,-282.91l-94.26 -98.13c0.2,1293.01 0.59,2586.45 12.46,3879.07zm-12.46 -4011.12l188.01 -13.85c4.29,-0.31 8.08,-0.59 12.96,-1.18 -71.35,-45.06 -139.99,-98.47 -200.97,-155.56 0,56.5 0.2,113.39 0,170.59zm0 -548.86c29.88,-9.55 61.18,-17.74 92.65,-24.41 -34.97,-74.43 -65.84,-154.06 -92.65,-234.67 0.2,86.29 0,172.39 0,259.08zm291.17 6101.22l104.82 142.79c60.28,85.31 122.48,189.54 172.58,300.54 47.83,-159.02 142.11,-318.48 207.98,-427.39 14.04,-23.42 28.08,-47.03 41.75,-70.73 -35.59,18.41 -70.16,34.97 -103.75,48.13 -58.19,23.61 -124.45,30.79 -186.62,31.07 -53.53,0 -143.49,-7.17 -236.76,-24.41zm1757.47 -2248.34c-119.77,-27.59 -233.66,-77.14 -327.83,-148.97 48.61,92.25 88.58,191.51 124.34,287.27 3.19,8.39 6.3,16.95 9.07,25.51 17.74,-19.01 35.59,-37.57 54.43,-55.71 43.13,-42.23 90.47,-78.41 139.99,-108.1z"/>
   <path class="fil3" d="M2775.23 8283.67c0,0 285.97,-687.27 509.2,-831.47 223.2,-144.48 670.32,-129.54 670.32,-129.54l18.22 862.34 -510.87 113.1 463.36 14.95 1.49 670.34 -638.34 145.47 606.93 -1.58 17.35 543.18 -319.36 128.35 287.86 63.67 1.02 446.41 -414.74 49.23 351.47 63.28 65.25 590.41 -367.21 97.05 319.7 62.79 1.27 447.4 -319.27 80.53 287.69 142.9 17.14 479.49 -142.9 351.27c0,0 -999.67,-3797.98 -905.58,-4389.57z"/>
   <path class="fil4" d="M1478.57 7025.51l82.51 1021.79 638.85 14.35 -590.61 113.3 145.9 798.08 703 62.2 -686.87 97.64 145.58 670.24 335.43 95.16 -271.25 112.28 225.01 526.54 559.11 30.51 -526.54 97.14 241.05 702.13 559.11 14.46 -494.93 129.23 209.36 606.25 191.71 31.5 -175.38 96.26 193.32 654.28 223.63 15.25 -223.43 80.61 225.8 957.62 191.82 -0.71 -191.82 80.62 112.7 239.25 223.91 79.31 -207.55 48.53 258.76 1213.33 208.77 461.95c0,0 46.13,-638.63 -37.56,-2203.6 -83.81,-1564.78 -100.53,-1836.31 -376.87,-3608.33 -275.71,-1772.13 -532.93,-2362.06 -741.39,-2745.31 -208.54,-382.55 -624.47,-652.98 -1151.13,-491.86z"/>
   <path class="fil5" d="M981.74 9486.1l145.9 766.18 479 -1.18 -430.98 161.03 225.4 590.02 526.55 -80.82 -462.26 192.81 144.88 478.9 287.18 30.98 -239.16 96.07 144.59 335.23 495.25 -17.06 -431.16 192.64 193.49 638.15 1282.59 1993.24c0,0 -34.29,-1006.25 -501.82,-2729.66 -467.65,-1723.49 -996.4,-2409.06 -1316.35,-2599.9 -319.78,-190.92 -543.1,-46.63 -543.1,-46.63z"/>
   <path class="fil6" d="M1660.03 12407.13c0,0 -510.81,112.87 -478.33,192.7 31.69,79.82 369.01,861.74 369.01,861.74l638.63 -49.71 -558.01 273.14 385.14 701.42 686.25 -97.56 -606.14 272.95 273.03 622.3 415.22 14.82 -334.8 128.56 225.01 494.76 622.3 -113.61 -526.15 272.72 304.84 638.35 702.21 -209.65 -622.02 305.32 96.86 335 1246.29 188.44c0,0 -434.85,-1276.38 -836.52,-2281.34 -401.78,-1005.43 -819.41,-1850.63 -1395.47,-2312.32 -575.86,-461.94 -607.35,-238.03 -607.35,-238.03z"/>
   <path class="fil7" d="M1649.32 14483.51c0,0 -447.23,64.96 -478.49,144.7 -32.09,80.2 336.89,622.08 336.89,622.08l446.83 -81.01 -334.83 224.73 384.55 493.83 415.14 -144.88 -319.08 256.4 320.86 494.06 255.01 -96.18 -95.08 287.38 272.44 398.78 878.3 -193.99 -1155.12 -2024.94c0,0 -671.73,-318.17 -927.42,-380.96z"/>
   <path class="fil8" d="M12167.18 18568.38l83.72 1501c0,0 -1531.3,898.21 -3352.16,743.08 -1820.85,-154.76 -3355.63,-614.03 -3595.87,-1092.44 -241.05,-478.52 187.93,-1342.05 187.93,-1342.05 0,0 1838.59,794.07 3467.83,837.43 1628.95,44.15 3048.82,-582.73 3208.55,-647.02z"/>
   <path class="fil8" d="M2149.54 17077.22l401.38 845.02 -844.99 641.43c0,0 608.15,445.02 1806,394.01 1001.65,-42.46 1490.03,95.16 1688.12,253.4 64.69,-354.16 152.76,-653.49 290.69,-833.05 95.56,-207.47 510.08,-496.46 589.62,-512.79 80.19,-15.85 -33.11,-367.01 -783.53,-381.16 -750.46,-13.75 -2490.5,230.3 -3147.29,-406.86z"/>
   <path class="fil9" d="M6161.88 17804.76c48.33,-14.94 -82.82,517.48 -127.17,778.17l-87.19 -33.39c42.45,-236.65 147.89,-623.4 138.01,-706.19 15.36,-8.08 60.9,-30.39 76.35,-38.59z"/>
   <path class="fil9" d="M11549.71 17992.6c-61.18,39.04 85.39,517.06 131.83,777.75l86.4 -34.78c-43.47,-235.77 -151.09,-622.49 -141.51,-704.8 -15.14,-8.2 -49.91,-32.21 -76.72,-38.17z"/>
   <path class="fil10 str0" d="M6113.75 17820.22c47.93,-15.46 -91.18,511.96 -135.81,773.05 -215.64,-87.09 -271.26,-134.63 -487.09,-221.23 196.91,-227.3 358.03,-415.03 622.9,-551.82z"/>
   <path class="fil10 str0" d="M11598.12 18007.58c-47.73,-14.55 80.62,484.88 126.55,745.56 215.13,-87.9 348.05,-109.71 563.6,-197.21 -198.01,-226.4 -424.49,-412.43 -690.15,-548.35z"/>
   <path class="fil2" d="M4559.87 8854.02c0,0 116.38,5498.54 14.16,5498.93 -102.45,0.23 269.24,2346.53 1588.19,3165.93 0,0 639.73,913.16 2909.31,937.56 2270.46,24.91 3360.09,-1776.2 3360.09,-1776.2 0,0 814.95,-1224.57 808.96,-2593.03l-67.96 -5207.28 -8612.75 -25.91z"/>
   <path class="fil11" d="M12865.69 18057.74l-123.24 -147.08c4.38,-3.39 434.26,-369.1 1204.04,-1377.53 721.13,-944.56 741.55,-1755.29 796.38,-3921.13 3.59,-138.91 7.17,-283 11.04,-433.16 33,-1245.11 -272.83,-2061.6 -535.69,-2527.56 -283.31,-503.32 -578.94,-716.39 -582.05,-718.67l110.22 -156.63c51.8,36.35 1265.22,917.33 1199.15,3408.14 -3.98,149.65 -7.57,293.97 -10.96,432.66 -54.6,2149.11 -77.03,3038.76 -835.84,4032.73 -785.43,1028.77 -1214.8,1392.78 -1233.05,1408.23z"/>
   <path class="fil12" d="M7945.99 6099.45l61.69 467.65c513.89,-56.81 1098.2,-74.46 1732.08,-15.65l28.98 -475.02c-667.33,-63.87 -1282.45,-42.06 -1822.75,23.02zm3773.45 317.38l138.92 -440.85c0,0 -86.91,-31.1 -185.35,-63.19 -97.65,-32.37 -169.6,-53.69 -169.6,-53.69l-70.36 271.14 -220.72 -56.1 73.95 -279.22c0,0 -75.64,-20.93 -234.78,-60.98 -155.95,-39.35 -223.09,-52.71 -223.09,-52.71l-48.14 286.39 -251.31 -50.73 48.42 -289.08c0,0 -79.51,-15.73 -188.43,-35.16 -109.2,-19.44 -181.66,-29.72 -181.66,-29.72l-60.47 477.23c501.2,70.13 1028.34,190.72 1572.62,376.67zm-1946.01 -421.02l29.8 -485.28c0,0 -61.98,-8.47 -219.03,-21.32 -156.94,-12.46 -207.78,-14.27 -207.78,-14.27l-18.81 306.14 -246.85 -4.1 -2.68 -313.9c0,0 -78.13,-4.97 -265.97,-5.96 -187.42,-0.79 -291.84,3.98 -291.84,3.98l12.14 320.38 -236.56 12.74 -29.41 -322.75c0,0 -80.81,4.07 -193.4,12.46 -113.02,8.75 -235.78,21.61 -235.78,21.61l68.28 514.08c545.15,-65.95 1164.97,-88.07 1837.89,-23.81zm1070.31 1540.96c-34.68,115.48 -66.86,221.4 -66.86,221.4l-448.52 -133.83c0,0 25.11,-88.39 54.4,-191.51 -427.96,-81.52 -840.5,-120.59 -1229.15,-129.85 0.2,114.2 0.2,214.25 0.2,214.25l-474.71 4.18c0,0 -0.51,-100.33 -1.19,-215.04 -435.67,16.55 -832.57,67.17 -1176.95,131.03 -29.68,5.88 -59.29,11.67 -88.97,17.54 35.08,117.4 68.04,228.49 68.04,228.49l-460.87 119.68c0,0 -36.47,-121.77 -72.42,-242.64 -838.45,214.65 -1409.34,495.96 -1543.37,564.91l444.55 789.71c0,0 1022.86,-707.91 2970.89,-714.78 1892.99,-6.58 2894.84,628.18 2954.05,666.93l484.09 -798.67c-478.41,-239.84 -952.14,-411.95 -1413.21,-531.8zm1203.53 -913.89l-199.28 404.18c272.24,99.46 547.96,215.33 826.78,350.77l224 -369.89c-287.07,-147.78 -571.29,-275.83 -851.5,-385.06zm-6398.46 -6.97l-261.57 -513.07c0,0 -147.08,71.43 -227.61,107.22 -91.97,40.14 -170.77,76.13 -170.77,76.13l170.77 319.46 -159.73 85.31 -202.98 -314.1c0,0 -76.44,36.27 -148.86,72.73 -72.34,36.5 -144.71,75.25 -144.71,75.25l285.29 507.2c122.09,-71.13 421.41,-236.15 860.17,-416.13zm1565.87 -478.41c105.22,-21.81 214.93,-42.43 328.54,-61.58l-105.13 -516.66c0,0 -66.67,9.27 -180.67,27.71 -113.89,18.81 -163.6,29.77 -163.6,29.77l82.5 329.16 -251.62 52.11 -107.11 -324.27c0,0 -59.99,10.96 -248.82,58.3 -189.65,47.15 -204.39,61.89 -204.39,61.89l92.99 318.37 -209.96 72.06 -124.17 -328.77c0,0 -73.64,21.53 -171.88,53.81 -91.49,29.92 -171.21,58.02 -171.21,58.02l221.51 513.07c347.27,-125.35 755.03,-248.23 1213.02,-342.99zm3652.17 1322.25c466.86,121.77 947.56,296.05 1431.73,539.56l292.38 -483.38c-2040.87,-985.41 -3929.01,-930.5 -5179.68,-698.03 -1223.67,227.3 -2077.45,659.98 -2303.05,782.82l256.19 454.72c133.33,-69.38 710.8,-354.47 1558.99,-572.48 -24.33,-81.71 -44.83,-149.87 -47.54,-159.05 -7.57,-25.59 23.53,-147.36 189.73,-196.99 166.23,-49.55 258,30.28 266.05,57.08 3.19,10.96 28.11,96.07 57.31,193.32 31.08,-6.38 62.57,-12.26 94.46,-18.53 349.07,-64.88 752.24,-116.4 1193.87,-132.93 -0.79,-122.36 -1.58,-239.05 -1.58,-251.31 0,-26.41 65.28,-133.72 238.65,-133.52 173.38,0.48 238.26,103.41 237.95,131.52 0,12.65 0.71,128.15 0.91,250.12 395.59,8.87 815.5,48.84 1251.18,132.42 31.97,-111.69 62.37,-218.51 65.87,-230.26 6.66,-25.82 98.24,-111.21 265.35,-63.9 167.1,47.34 201.68,164.03 193.82,190.84 -3.1,11.55 -31.18,104.62 -62.59,207.98zm-730.4 -1340.08l-59.6 469.83c473.02,63.3 969.37,170.92 1482.07,337.71l136.32 -433.55c-539.4,-184.45 -1061.85,-304.13 -1558.79,-373.99zm2803.67 819.1l230.8 -381.14c0,0 -65.87,-36.69 -161.15,-85.5 -95.55,-48.72 -177.27,-89.6 -177.27,-89.6l-155.75 232.39 -159.43 -76.72 128.55 -243.06c0,0 -72.14,-36.07 -170.6,-77.71 -99.15,-41.46 -189.23,-78.64 -189.23,-78.64l-202.89 411.47c282.12,110.59 568.09,239.25 856.97,388.51zm-7910.9 521.17c122.65,-67.37 417.91,-220.43 854.06,-384.15l-198.2 -387.83c-439.55,179.96 -737.78,344.39 -856.86,414.24l201 357.74zm1004.02 -905.69l175.78 406.35c334.64,-110.9 728.42,-218.63 1173.05,-301.14 86.92,-16.24 177.59,-31.49 270.46,-45.84l-93.18 -458.39c-113.38,18.76 -223.49,39.38 -328.42,61.3 -451.92,93.66 -854.49,214.45 -1197.69,337.72z"/>
   <polygon class="fil13" points="8836.06,13418.53 4571.94,13429.2 4559.99,8853.97 8824.29,8843.01 "/>
   <polygon class="fil14" points="8874.93,9992.76 12069.93,13410.17 8880.02,13418.75 "/>
   <polygon class="fil14" points="13177.3,12485.15 9742.83,8888.57 13172.31,8879.81 "/>
   <path class="fil15" d="M8874.45 18518.22c-1890.12,4.69 -2948.57,-874.6 -3503.9,-1613.08 -661.08,-879.71 -897.65,-1924.3 -898.95,-2551.99l-14.34 -5598.5 8768.4 -10.17 0 71.66c4.97,4275.49 12.46,5081.53 15.65,5385.04 0.48,59.6 0.99,97.96 0.99,139.31 1.78,623.21 -230.89,1664.83 -892.45,2550.39 -552.33,739.38 -1603.73,1622.17 -3475.4,1627.34zm-92.08 -6414.6l-8.17 -3210.45 -4172.63 5.09 11.24 4457.42 8479.33 -21.61c-3.59,-717.66 -7.29,-2012.48 -9.97,-4446.09l-4144.45 4.88 8.08 3210.56 -163.43 0.2zm4310.36 1394.05l-8479.41 21.53 1.89 833.75c2.99,1046.2 791.02,4030.25 4258.93,4021.18 1000.18,-2.6 2395.65,-276.93 3360.63,-1568.95 640.13,-857.46 865.34,-1863.32 863.92,-2463.78 0,-41.16 -0.59,-79.71 -1.27,-138.92 -0.9,-112.99 -2.79,-296.76 -4.69,-704.81z"/>
   <polygon class="fil8" points="7577.99,10227.82 7578.61,10483 6796.27,10485.21 6800.96,12289.62 6544.84,12290.61 6540.66,10485.8 5758.04,10487.69 5757.44,10232.4 6539.99,10230.59 6538.07,9511.55 6793.47,9510.64 6795.36,10229.6 "/>
   <polygon class="fil15" points="5317,12948.42 5316.4,12629.15 5723.46,12628.13 5723.27,12452.35 6129.85,12451.17 6129.85,12227.37 7232.34,12224.77 7232.54,12416.71 7503.79,12415.69 7505.37,12944.32 "/>
   <path class="fil15" d="M5840.66 15211.96c-182.56,0.67 -463.19,-89.8 -493.86,-254.9 -29.21,-159.54 358.92,-268.57 526.54,-308.23 42.34,-8.16 80.42,-12.45 115.27,-12.85 240.95,-0.71 293.37,190.33 325.07,304.33l0.98 5.17c12.07,42.26 4.49,83.41 -20.73,119.2 -82.79,115.78 -340.17,141.09 -417.12,145.78 -11.75,1.1 -23.92,1.5 -36.15,1.5zm148.26 -479.71l0 0c-28.61,0 -60.47,3.58 -94.76,10.45 -251.91,59.4 -460.08,158.15 -452.91,197.21 16.16,87.48 217.64,176.46 399.41,176.26 10.14,0 20.03,-0.48 30.39,-1.27 168.89,-11.18 307.3,-53.61 344.58,-105.53 8.76,-12.26 10.65,-24.04 6.98,-38.16l-1.7 -5.59c-37.48,-137.22 -76.23,-234.08 -231.99,-233.37z"/>
   <path class="fil15" d="M7044.02 15388.38c-155.75,0.4 -279.61,-125.16 -330.74,-336.13 -24.12,-99.43 -47.82,-165.1 -68.75,-223.4 -40.57,-113.1 -69.97,-194.62 -53.61,-402.06l2.48 -31.41 29.01 -10.26c24.01,-8.16 579.14,-206.48 782.82,-254.89 19.92,-4.89 48.33,-7.29 86.38,-7.29 383.37,-1.07 1743.75,219.73 1801.45,229.59l918.44 180.97 168.72 220.52c58.98,-56.8 174.08,-149.17 301.22,-149.36 23.22,0 45.34,2.76 66.27,8.55 78.01,20.54 164.22,65.17 247.24,107.82 110.7,57.2 223.29,117.28 296.05,105.22 81.01,-13.64 133.72,-98.55 189.51,-188.63 25.02,-39.86 50.53,-81.49 79.93,-117.87 32.49,-41.16 78.33,-62.6 131.92,-63.08 75.64,0 156.37,41.04 227.3,77.23 33.38,17.14 64.68,32.99 88.29,41.15 57.91,18.84 450.82,181.85 499.15,341.28 23.1,76.55 -0.42,131.26 -24.32,163.83 -81.52,109.03 -309.92,162.92 -699.13,164.11 -25.03,0 -50.73,0 -77.23,-0.39 -482.79,-6.87 -1104.81,34.99 -1593.56,67.96 -230.68,15.65 -430.39,28.89 -559.62,33.19 -429.48,13.75 -1345.44,-67.65 -1599.74,-92.09 -326.36,-30.48 -628.88,6.78 -760.03,90.39 -45.34,29.41 -97.05,45.05 -149.45,45.05zm-359.55 -923.54l0 0c-9.95,163.83 13.36,228.48 50.45,331.44 20.42,56.97 46.01,129.14 71.63,233.46 39.66,164.82 128.55,263.06 237.27,262.86 33.98,0 68.36,-10.56 97.93,-29.88 151.77,-96.47 469.06,-138.41 820.42,-104.94 235.55,22.23 1037.81,94.29 1492.61,93.38 33.78,0 65.98,-0.59 94.96,-1.69 127.96,-4.3 326.45,-17.74 556.83,-33.08 490.78,-33.19 1115.25,-75.33 1601.15,-68.55 26.21,0.48 51.01,0.48 75.53,0.48 461.27,-0.91 587.73,-78.92 622.39,-125.84 15.84,-21.72 19.15,-46.55 9.69,-78.33 -26.02,-85.7 -302.95,-234.08 -436.98,-278.23 -30.87,-10.45 -65.16,-27.79 -102.42,-46.72 -61.18,-31.1 -130.36,-66.66 -183.15,-66.66 -25.31,0 -42.65,8.36 -57.4,26.3 -25.73,32.88 -49.82,71.63 -73.04,109.4 -64.69,103.94 -131.43,212.07 -255.01,232.58 -99.26,16.75 -225.1,-46.52 -356.05,-114.68 -78.72,-40.56 -160.33,-82.71 -227.98,-100.76 -13.05,-2.99 -27.12,-4.88 -41.35,-4.88 -135.33,0.19 -267.07,156.65 -268.57,158.15l-38.05 45.93 -217.84 -284.3 -881.18 -173.89c-12.34,-1.67 -1408.62,-228.49 -1784.47,-227.58 -39.77,0 -57.4,2.79 -64.18,4.69 -172.3,40.76 -623.99,198.99 -743.19,241.34z"/>
   <path class="fil13" d="M12235.79 12359.82l270.94 -74.04 -105.81 259.98 154.14 234.79 -279.81 -20.25 -175.58 219.44 -67.14 -272.86 -262.89 -99.23 238.65 -148.18 13.17 -280.6 214.33 180.95zm-2580.97 -2894.77l271.25 -74.43 -105.73 259.98 154.26 234.68 -280.41 -20.03 -175.49 219.53 -67.34 -272.75 -262.69 -98.94 238.37 -148.58 13.44 -280.4 214.34 180.94zm860.67 964.59l270.55 -73.92 -105.53 259.87 154.53 235.07 -280.29 -20.22 -175.29 219.41 -67.65 -272.83 -262.98 -99.46 238.85 -148.06 13.05 -280.92 214.76 181.06zm860.14 965.1l270.94 -73.83 -105.93 259.87 154.57 234.67 -280.32 -20.34 -175.47 219.84 -66.97 -272.74 -263.26 -99.66 238.85 -147.95 13.17 -280.92 214.42 181.06z"/>
   <path class="fil9" d="M6073.86 15791.38c16.64,2.6 32.49,3.5 49.12,1.3 50.82,-6.87 113.1,-37.77 160.02,-58.3 99.85,-43.33 196.03,-78.02 302.44,-104.23 90.89,-21.81 183.54,-39.46 275.23,-55.71 115.19,-21.41 230.69,-40.05 346.08,-58.27 136.4,-20.84 273.93,-40.76 410.93,-57.9 95.67,-11.95 194.73,-25.31 290.8,-30.91 76.4,-4.26 147.67,-23.1 221.31,-39.85 165.01,-37.26 289.35,-38.16 451.69,17.65 255.21,88.08 722.74,156.43 988.4,117.68 181.06,-26.41 369.61,-42.06 552.16,-52.12 107.31,-6.47 215.92,-9.85 324.05,-8.36 85.11,0.88 178.46,4.47 262.86,21.22 253.2,49.71 546.69,1.69 799.29,-39.66 77.12,-12.46 152.65,-14.86 230.19,-3.28 56.57,8.64 108.41,24.49 162.92,40.14 94.35,26.32 160.61,32.99 257.38,11.35 93.16,-20.22 188.24,-36.46 281.99,-51.49 164.34,-26.13 330.03,-48.44 494.46,-67.28l109.82 -12.46 -22.71 107.62c-9.49,43.75 -21.95,88.81 -34.69,131.66 -32.09,110.78 -71.15,220.29 -114.51,327.52 -142.59,353.36 -337.09,690.26 -572.47,990.41 -799.27,1020.88 -1951.9,1487.35 -3228.87,1546.13 -659.36,30.39 -1317.33,-52.32 -1934.35,-293.77 -495.47,-194.22 -941.09,-481.49 -1322.93,-851.18 -313.08,-303.82 -579.64,-660.18 -784.32,-1045.12 -141.71,-267.16 -272.75,-583.52 -328.05,-882.37l-12.46 -67.65 65.16 -21.95c69.26,-23.41 160.16,-33.86 232.3,-35.16 177.28,-4.3 351.96,39.46 506.61,127.76 143.18,80.81 262.15,171.09 388.81,275.01 47.85,39.65 128.66,111.51 191.34,121.57z"/>
   <path class="fil13" d="M4780.62 15377.42c0,0 327.86,-110.41 673.63,85.99 346.98,196.82 458.27,382.06 606.65,405.99 148.18,24.49 234.67,-86.61 543.06,-161.66 308.71,-74.91 1086.96,-187.92 1309.09,-201.09 222.7,-12.65 358.34,-124.25 642.61,-26.29 284.3,98.35 766.7,158.63 1025.69,121.17 259.67,-37.76 864.63,-88.78 1111.76,-39.97 247.24,48.45 518.97,10.96 827.99,-38.95 308.59,-50.62 370.99,109.71 654.58,47.12 284.19,-62.17 768.68,-117.48 768.68,-117.48 0,0 -586.35,2780.37 -3876.19,2932.64 -2974.2,137.62 -4125.61,-2129.56 -4287.55,-3007.47z"/>
   <path class="fil16" d="M8366.92 16678.49c0,0 67.37,143.38 35.08,409.46 -21.84,181.74 -111.41,396.58 -111.41,396.58 0,0 -600.88,-297.55 -603.37,-457.68 -2.6,-171.79 428.19,-287.97 679.7,-348.36z"/>
   <path class="fil16" d="M10260.9 16433.2c0,0 48.84,275.74 -22.71,383.75 -71.74,107.62 -187.24,215.24 -67.36,345.09 102.02,110.5 105.21,373.08 105.21,373.08 0,0 -243.23,-247.83 -411.55,-307.23 -167.5,-59.58 -385.62,49.54 -648.99,146.4 -262.98,96.04 -863.36,119.25 -863.36,119.25 0,0 116.41,-176.06 134.82,-432.65 17.35,-239.64 -46.01,-389.24 -46.01,-389.24 0,0 324.95,-26.6 481.77,-7.37 263.57,32.4 341.9,113.21 545.78,196.2 203.77,83.41 303.15,101.15 470.45,-30.67 167.3,-132.54 321.95,-396.61 321.95,-396.61z"/>
   <path class="fil11" d="M13122.76 16018.62c9.75,-36.46 432.65,454.09 480.7,609.93 0,0 84.6,191.03 60.48,310.8 -23.42,120.27 -598.77,37.56 -611.85,-297.75 -12.74,-335.32 -24.49,-263.26 70.67,-622.98z"/>
   <path class="fil17" d="M13535.84 17015.87c-172.08,0 -497.25,-108.92 -507.31,-373.2 -1.5,-40.05 -2.99,-73.92 -4.18,-103.52 -9.27,-205.86 -9.07,-209.65 57.79,-460.08l22.03 -84.29 21.13 -1.89c62.77,0 461.07,499.12 501.01,628.17 2.6,5.79 85.9,197.19 61.18,323.26 -8.75,45.25 -64.17,71.15 -151.65,71.55zm-397.4 -962.11l0 0 -10.26 37.37c-65.16,245.44 -65.16,245.44 -55.9,445.82 1.3,30.11 2.49,63.89 4.07,103.75 8.98,231.98 303.34,327.54 459.09,327.23 67.85,-0.28 102.14,-17.23 105.33,-32.88 21.81,-111.2 -58.89,-295.15 -59.29,-297.04 -40.36,-130.16 -351.95,-504.62 -443.04,-584.25z"/>
   <path class="fil11" d="M13544.2 16923.27c0,0 -168.49,-298.84 -133.32,-658.06 35.16,-359.74 213.93,-648.11 213.93,-648.11 0,0 276.62,383.13 253.32,682.77 -23.33,299.36 -154.25,610.95 -225.8,658.97l-108.13 -35.57z"/>
   <path class="fil17" d="M13665.66 16978.78l-26.92 -39.66c59.6,-40.25 192.13,-338.51 215.44,-641.34 18.64,-239.25 -164.23,-538.77 -227.7,-635.23 -45.73,84.71 -164.42,323.76 -191.51,604.56 -34.29,347.85 128.63,641.53 130.44,644.1l-41.66 23.65c-7.57,-12.18 -171.99,-309.53 -136.91,-672.24 35.36,-361.02 210.27,-645.72 217.64,-657.47l18.81 -30.51 21.13 29.01c11.55,15.85 281.11,393.11 257.49,697.95 -22.23,289.35 -151.17,619.98 -236.25,677.18z"/>
   <path class="fil11" d="M13820.2 17023.15c0,0 681.59,-361.02 1077.18,-254.19 395.7,106.72 311.7,178.78 311.7,178.78 0,0 -465.67,504.2 -1088.96,314.18 -623.29,-190.32 -335.51,-106.94 -335.51,-106.94l35.59 -131.83z"/>
   <path class="fil17" d="M14405.95 17328.87c-97.96,0.19 -196.6,-14.95 -292.75,-44.15 -226.71,-69.04 -331.84,-101.13 -379.47,-119.17 -8.87,-2.21 -16.24,-4.3 -19.03,-4.78l0.59 -2.99c-22.71,-10.26 -22.12,-15.85 -20.62,-24.01l2.68 -20.54 21.05 0c3.39,0 5.96,0 49.31,12.15l32.18 -118.47 9.06 -5c21.25,-11.35 525.56,-275.8 921.35,-276.7 63.58,-0.4 122.48,6.86 173.6,20.53 212.25,57.09 322.16,113.7 335.6,171.97 5.09,21.83 -4.77,39.88 -14.63,48.44 -11.67,12.66 -339.41,361.42 -818.92,362.72zm-592.9 -186.54l0 0c57.71,18.05 154.85,48.02 313.99,96.97 91.77,27.59 185.64,41.55 278.91,41.55 458.97,-1.1 782.62,-345.99 785.62,-348.99 -2.69,-14.83 -33.39,-67.73 -300.12,-139.99 -47.46,-12.65 -101.55,-19.12 -161.15,-18.64 -356.05,0.9 -819.29,230.18 -889.85,266.25l-27.4 102.85z"/>
   <path class="fil11" d="M13760.74 17238.82c0,0 814.4,-38.16 1090.23,105.1 275.83,143.21 300.23,286.79 300.23,286.79 0,0 -1029.05,505.92 -1473.48,-80.19 -444.43,-585.64 83.02,-311.7 83.02,-311.7z"/>
   <path class="fil17" d="M14326.46 17857.08c-295.26,1.3 -520.08,-97.34 -667.95,-291.96 -195.91,-258.09 -193.8,-338.11 -174.98,-375.17 8.67,-17.94 29.09,-38.98 76.43,-38.98 73.13,-0.48 179.76,50.53 205.97,63.7 22.83,-1.11 105.73,-3.7 215.95,-4.1 301.22,-0.9 698.62,17.74 880.19,111.91 283.29,146.97 311.9,297.55 312.77,304.02l3.11 17.54 -15.96 8.08c-17.54,8.16 -420.42,204.05 -835.53,204.96zm-766.5 -658.06l0 0c-18.44,0 -29.69,3.87 -33.39,12.45 -9.46,17.94 -10.65,86.1 170.1,324.44 138.53,182.25 350.18,274.45 629.79,273.54 355.03,-0.79 711.08,-153.46 795.59,-191.62 -16.55,-40.25 -76.74,-146.18 -282.01,-252.92 -182.16,-94.34 -615.64,-107.2 -858.16,-106.8 -128.47,0.48 -219.33,4.58 -219.33,4.58l-6.87 0.59 -5.99 -3c-1.3,-0.87 -119.28,-61.77 -189.73,-61.26z"/>
   <path class="fil11" d="M13652.21 17011.83c0,0 118.7,-587.62 477.34,-768.08 358.93,-180.56 396.19,262.77 276.42,382.85 -119.48,120.08 -549.87,516.18 -753.76,385.23z"/>
   <path class="fil17" d="M13749.69 17061.74c-42.06,0 -79.12,-9.86 -110.41,-30l-13.36 -8.56 2.88 -16.55c4.69,-24.21 125.07,-600.86 489.76,-784.32 162.93,-81.92 293.09,-47.63 347.38,82.7 46.04,111.13 26.52,268.85 -43.24,338.12 -69.07,69.85 -428,418.21 -673.01,418.61zm-70.25 -62.17l0 0c20.43,9.86 44.04,14.55 70.25,14.43 230.78,-0.68 598.07,-362.99 639.34,-404.54 56.4,-56.61 71.74,-192.53 32.87,-285.49 -18.92,-45.25 -58.49,-99.06 -140.61,-98.78 -40.95,0 -88.38,13.36 -141.2,39.97 -310.4,156.54 -437.85,637.55 -460.65,734.41z"/>
   <path class="fil11" d="M13560.7 13993.26c0,0 348.76,526.23 804.15,620.8 455.3,94.77 239.16,-251.9 239.16,-251.9 0,0 -240.66,-370.99 -1043.31,-368.9z"/>
   <path class="fil17" d="M14502.55 14654.85c-40.17,0 -88.19,-6.1 -142.7,-17.15 -459.57,-95.67 -804.35,-609.56 -818.9,-631.17l-24.63 -36.86 44.06 0c806.53,-2.31 1053.26,363.79 1063.63,379.44 3.78,6.5 89.68,144.9 39.66,234.98 -25.62,46.72 -79.91,70.34 -161.12,70.76zm-894.94 -637.16l0 0c89.09,120.67 392.12,496.04 762.09,572.98 51.22,10.57 95.87,15.93 132.65,15.93 62.76,-0.28 102.54,-15.25 119.17,-45.73 30.28,-54 -17.03,-152.87 -37.96,-186.06 -2.29,-3.16 -234.98,-345.37 -975.95,-357.12z"/>
   <path class="fil11" d="M13918.07 13154.19c0,0 108.33,191.21 144.51,346.87 36.07,155.25 120.95,502.9 301.02,621.91 180.16,119.37 646.43,-169.23 69.74,-826.89 -239.95,-178.78 -515.27,-141.89 -515.27,-141.89z"/>
   <path class="fil17" d="M14458.06 14173.33c-40.56,0 -77.82,-10.37 -107.82,-30.51 -192.1,-127.44 -278.4,-497.22 -311.1,-636.42 -35.26,-150.47 -140.98,-338.51 -141.89,-340.4l-17.74 -31.1 35.57 -4.69c0.62,-0.19 24.23,-3.08 62.87,-3.47 99.77,0 293.57,19.32 469.94,150.47l3.7 3.47c334.61,381.16 303.34,616.94 255.29,724.13 -52.39,116.01 -163.12,168.52 -248.82,168.52zm-501.21 -997.67l0 0c32.77,61.69 101.24,199.79 129.34,319.75 31.19,134.23 114.49,490.79 290.58,607.76 22.31,14.35 50.11,22.34 81.29,22.14 70.87,0 161.63,-43.75 205.18,-140.41 43.25,-95.87 68.87,-310.8 -246.34,-670.83 -177.86,-132.02 -377.96,-141.2 -460.05,-138.41z"/>
   <path class="fil11" d="M16290.3 13339.86c0,0 -552.45,-358.03 -934.4,14.15 -382.34,372.09 -404.97,863.55 -404.97,863.55 0,0 323.68,226.29 718.09,-277.52 393.59,-504.23 417.79,-587.92 621.28,-600.18z"/>
   <path class="fil17" d="M15142.98 14292.31l-0.28 0c-124.77,0.19 -202.3,-52.91 -205.27,-55.51l-10.96 -7.29 0.6 -13.13c0.87,-20.34 27.39,-504.82 412.34,-879.71 119.45,-116.18 266.53,-175.67 437.93,-175.78 276.73,-0.68 515.9,151.97 525.95,158.86l60.79 39.35 -72.54 4.29c-157.56,9.86 -199.19,63.98 -430.08,366.19 -48.64,63.69 -105.73,138.52 -173.8,225.32 -217.41,278.4 -416.33,336.81 -544.68,337.41zm-166.91 -87.71l0 0c23.73,12.65 83.02,39.86 166.63,39.46 117.87,0 301.53,-55.7 507.2,-318.96 68.07,-86.6 124.45,-160.84 173.6,-224.7 200.69,-262.78 266.53,-348.99 391.89,-375.37 -87.37,-44.54 -256.2,-117 -438.05,-116.4 -158.23,0.19 -294.44,54.91 -404.85,162.53 -335.01,326.24 -389.24,751.13 -396.42,833.44z"/>
   <path class="fil11" d="M16458.79 13830.3c0,0 -945.95,134.23 -1304.37,434.78 -358.45,299.92 264.64,454.28 731.42,285.09 466.63,-168.52 609.53,-468.67 572.95,-719.87z"/>
   <path class="fil17" d="M15480.08 14644.09c-234.56,0.59 -410.74,-65.59 -448.5,-168.52 -17.46,-48.42 -13.36,-127.76 107.5,-228.88 359.72,-301.45 1277.4,-434.38 1316.46,-440.34l23.7 -3.19 3.59 23.7c17.34,118.78 25.51,523.94 -588.8,746.07 -126.18,45.43 -273.06,70.73 -413.95,71.16zm958.01 -786.53l0 0c-149.17,23.5 -950.64,159.23 -1268.22,425.68 -54.91,45.76 -115.78,113.72 -93.35,175.58 30,81.52 195.61,138.12 403.56,137.53 135.72,-0.51 277.01,-24.71 397.6,-68.47 380.84,-137.62 588.51,-387.12 560.41,-670.32z"/>
   <path class="fil11" d="M14958.65 14531.36c0,0 169.08,610.04 504.9,764.88 335.91,155.16 456.1,214.73 587.73,286.09 132.22,71.43 240.24,155.24 240.24,155.24 0,0 82.62,-371.47 -217.73,-718.34 -300.54,-346.39 -827.37,-476.72 -1115.14,-487.87z"/>
   <path class="fil17" d="M16306.37 15779.43l-29.8 -22.74c-1.49,-0.87 -108.12,-83.61 -236.76,-153.04 -127.25,-69.26 -241.85,-126.97 -586.14,-285.6 -341.87,-157.73 -511.18,-755.03 -518.47,-780.73l-8.36 -31.3 32.88 1.3c251.22,9.86 811.44,126.06 1132.29,496.43 304.64,351.67 226.31,723.37 222.72,739.19l-8.36 36.49zm-1314.96 -1222.2l0 0c40.25,126.26 203.77,589.34 482.4,717.58 345.08,159.42 460.87,217.13 588.82,286.78 90.56,48.61 169,102.74 211.03,132.93 10.68,-101.43 15.65,-389.72 -217.81,-659.47 -296.64,-341.7 -806.75,-459.97 -1064.44,-477.82z"/>
   <path class="fil11" d="M14985.11 14463.99c0,0 60.59,383.36 181.06,598.49 120.56,214.84 289.16,526.34 277.53,693.76 -11.67,167.59 -142.71,491.74 -142.71,491.74 0,0 -372.29,-418.41 -468.83,-741.67 -96.97,-323.05 -121.97,-802.17 -98.27,-909.99 23.61,-108.29 251.22,-132.33 251.22,-132.33z"/>
   <path class="fil17" d="M15308.82 16292.84l-25.62 -29.41c-15.23,-16.75 -376.95,-425.7 -474.52,-750.34 -94.76,-317.69 -123.74,-806.35 -98.55,-921.74 26.81,-121.26 247.24,-148.58 272.24,-151.37l22.83 -2.37 3.58 22.51c0.4,3.87 61.27,381.44 178.38,590.61 152.25,272.04 291.36,546.45 280.6,707.2 -11.98,169.4 -139.2,485.36 -144.59,498.84l-14.35 36.07zm-343.79 -1801.82l0 0c-68.24,10.76 -193.32,43.73 -208.15,110.19 -21.44,98.55 -0.62,569.79 97.93,898.44 79.54,265.66 353.05,601.76 438.16,702.52 34.18,-89.2 117.68,-318.4 126.35,-447.63 12.17,-168.91 -181.46,-514.28 -273.63,-680.4 -105.61,-188.74 -165.21,-496.04 -180.66,-583.12z"/>
   <path class="fil11" d="M14659.88 14562.43c0,0 -168.6,515.98 -413.13,918.94 -244.73,403.08 -325.54,697.64 -15.14,719.87 310.71,21.92 623.68,-328.34 555.04,-717.66 -68.47,-388.73 -82.11,-702.33 -126.77,-921.15z"/>
   <path class="fil17" d="M14260.53 16225.95c-10.17,0 -20.22,-0.2 -30.9,-0.9 -100.92,-7.09 -169.08,-43.05 -201.88,-106.92 -61.29,-118.8 1.58,-325.06 198.49,-648.71 240.46,-396.1 409.26,-909.39 411.04,-914.56l28.31 -86.61 17.54 89.18c21.72,104.65 36.07,230.29 52.11,374.38 18.45,161.14 39.07,343.79 75.34,547.87 33.47,191.74 -19.92,388.53 -146.49,539.79 -110.1,130.84 -256.79,206.28 -403.56,206.48zm392.21 -1569.07l0 0c-59.8,165.61 -202.08,535.11 -385.54,836.95 -182.05,299.75 -248.52,502.53 -196.71,602.67 25.11,48.21 78.44,74.54 162.93,80.81 8.67,0.4 18.13,0.79 27.11,0.79 132.53,-0.39 266.06,-69.46 366.9,-189.93 117.67,-140.38 167.1,-322.46 135.72,-500.33 -36.18,-205.35 -56.8,-388.22 -75.25,-550.36 -11.83,-103.91 -22.31,-197.78 -35.16,-280.6z"/>
   <path class="fil11" d="M14424.56 14566.07c0,0 -267.86,43.25 -430.99,108.83 -100.05,40.76 -466.06,456.67 -549.76,480.7 -83.41,24.01 384.15,166.72 563.52,94.26 179.25,-71.94 501.91,-300.54 561.51,-480.61 59.29,-179.85 -144.28,-203.18 -144.28,-203.18z"/>
   <path class="fil17" d="M13874.43 15294.27l-0.4 0c-154.84,0.19 -454.99,-66.66 -463.63,-126.66 -0.43,-4.29 -2.12,-26.61 27.08,-35.28 35.88,-10.25 159.23,-130.84 258.49,-227.98 120.07,-117.9 234.47,-229.39 288.88,-251.7 163.63,-66.07 424.91,-108.24 436.07,-110.14l3.07 -0.48 3.2 0.2c4.37,0.68 107.42,13.56 154.14,86.38 25.93,40.36 29.4,90.5 10.36,148.38 -61.26,185.44 -381.63,417.23 -575.55,495.16 -35.87,14.63 -83.3,21.72 -141.71,22.12zm-398.28 -127.76l0 0c62.48,28.89 244.53,80.02 397.88,80.02 52.23,-0.51 94.09,-6.67 123.87,-18.92 181.56,-72.85 492.36,-295.86 548.26,-465.88 14.27,-43.52 12.37,-79.31 -5.08,-107.3 -30.59,-47.63 -101.13,-61.38 -115.98,-64.18 -32.6,5.39 -273.94,46.95 -422.32,107.03 -45.93,18.44 -166.79,136.71 -273.54,241.14 -120.55,117.7 -203.06,197.89 -253.09,228.09z"/>
   <path class="fil11" d="M14463.65 11894.96c0,0 -383.64,-10.76 -514.56,228.6 -131.04,240.24 -142.2,587.22 -142.2,587.22 0,0 155.33,-107.82 502.31,-300.43 346.78,-192.73 298.14,-360.14 274.44,-443.84 -24.32,-83.81 -119.99,-71.55 -119.99,-71.55z"/>
   <path class="fil17" d="M13781.41 12757.92l1.59 -47.54c0.5,-14.63 12.65,-355.93 145.18,-598.06 124.88,-228.99 460.2,-241.45 526.24,-241.45l8.87 0c0,0 5.19,-0.71 12.65,-0.71 65.48,-0.19 114.6,33.39 130.75,89.29 25.2,88.1 77.74,270.04 -285.88,472.03 -341.39,189.34 -498.64,298.06 -500.33,299.24l-39.07 27.2zm694.53 -839.74l0 0c-5.25,0 -9.07,0.51 -9.07,0.51l-12.45 0.31c-61.27,0 -371.98,11.05 -484.49,216.12 -98.64,180.58 -127.84,427 -136.12,529.14 67.17,-43.44 218.04,-138.52 463.67,-274.93 330.62,-183.54 286.39,-335.11 262.97,-416.43 -14.03,-47.63 -58.89,-54.72 -84.51,-54.72z"/>
   <path class="fil11" d="M14844.87 12071.93c0,0 66.38,347.46 22.54,569.48 -43.75,221.42 -87.11,374.26 -87.11,374.26 0,0 -328.93,-189.5 -367.89,-453.89 -39.06,-264.05 432.46,-489.85 432.46,-489.85z"/>
   <path class="fil17" d="M14794.96 13051.72l-26.61 -15.65c-13.56,-7.46 -339.21,-198.1 -379.75,-470.65 -40.87,-278.39 425.99,-506.01 446.33,-515.27l27.99 -13.64 5.48 30.79c2.99,14.34 66.77,354.94 22.71,578.65 -43.64,220.33 -87.4,374.47 -87.68,376.16l-8.47 29.61zm32.08 -943.86l0 0c-99.14,53.1 -421.6,243.23 -390.81,450.7 30.47,206.76 252.1,368.79 329.32,419.4 14.75,-55.08 46.55,-180.15 78.05,-341.07 35.25,-176.49 -1.81,-438.56 -16.56,-529.03z"/>
   <path class="fil11" d="M14959.8 12004.19c21.33,-10.96 248.52,40.88 350.26,305.83 101.55,265.26 56.41,344.38 183.86,492.17 127.33,147.08 154.73,223 154.73,223 0,0 -580.52,16.44 -673.4,-428.58 -92.67,-444.94 -130.83,-533.81 -15.45,-592.42z"/>
   <path class="fil17" d="M15641.96 13049.15c-60.79,0 -599.28,-11.16 -690.46,-447.74 -11.86,-56.49 -22.51,-107.7 -32.29,-153.94 -68.75,-319.27 -87.39,-404.97 29.61,-464.58 5.67,-2.96 11.55,-4.18 19.71,-4.46 63.98,0 268.97,76.21 363.82,323.14 41.55,107.93 58.61,185.95 73.16,248.74 20.5,91.77 34.17,152.14 106.6,235.86 128.66,149.37 158.15,227.39 159.25,230.38l11.36 31.49 -40.76 1.11zm-673.43 -1022.3l0 0c-79.79,40.25 -70.64,93.86 -2.57,410.84 9.66,45.73 20.51,97.26 32.37,153.97 74.94,357.24 484.88,403.05 611.14,409.04 -19.12,-35.16 -58.69,-96.06 -133.63,-183.03 -80.62,-92.99 -95.64,-161.63 -117.17,-256.51 -13.75,-61.58 -31.01,-138.01 -70.95,-242.64 -91.78,-238.34 -287.1,-291.96 -319.19,-291.67z"/>
   <path class="fil11" d="M15028.75 11845.67c0,0 574.37,-157.44 802.46,57.8 228.4,215.04 300.43,406.27 444.43,478.1 144,71.46 192.02,119.08 192.02,119.08 0,0 -610.15,252.92 -886.26,74.43 -275.72,-179.25 -480.62,-501.82 -552.65,-729.41z"/>
   <path class="fil17" d="M15851.58 12662.76c-117.88,0.4 -213.24,-22.43 -282.89,-68.07 -282.61,-183.15 -490.08,-512.79 -562.82,-741.87l-7.57 -23.81 24.21 -6.58c8.08,-2.29 205.97,-55.71 418.13,-56.1 185.25,-0.4 322.04,39.74 407.07,119.68 105.81,99.43 176.65,191.82 239.33,273.62 70.25,91.47 126.15,163.72 199.39,200.1 145.58,72.62 196,121.97 198.01,123.75l25.62 25.7 -33.11 13.68c-13.92,5.48 -339.1,138.88 -625.37,139.9zm-792.01 -800.17l0 0c76.63,219.51 272.04,521.55 535.02,692.24 61.77,39.86 148.58,60.39 256.99,60.19 221.02,-0.59 474.11,-86.49 568.6,-121.88 -28.22,-19.83 -77.23,-51.61 -155.16,-90.28 -83.1,-41.24 -141.71,-117.87 -215.94,-214.44 -61.7,-79.72 -131.13,-170.5 -234.17,-267.64 -75.53,-70.95 -201.59,-107.22 -374.27,-107.03 -163.23,0.6 -321.78,34.69 -381.07,48.84z"/>
   <path class="fil11" d="M14731.51 12852.8c0,0 -250.01,491.38 -141.4,886.27 108.92,394.8 312.8,478.41 312.8,478.41 0,0 358.31,-336.42 153.55,-887.05 -204.98,-549.85 -324.95,-477.63 -324.95,-477.63z"/>
   <path class="fil17" d="M14908.03 14245.33l-14.44 -5.96c-8.58,-2.99 -216.03,-91.97 -326.36,-493.95 -109.99,-399.4 132.85,-883.38 143.3,-903.6l3.19 -6.3 5.68 -3.59c2.68,-1.47 12.06,-6.47 27.31,-6.47 67.17,-0.28 179.06,86.29 332.01,497.06 208.69,558.83 -155.64,908.69 -159.42,912.47l-11.27 10.34zm-159.82 -1371.93l0 0c-33.98,71.35 -231.59,508.69 -134.82,859.17 87.48,317.66 238.14,428.28 284.98,455.28 58.38,-63.87 311.5,-377.26 135.52,-848.61 -161.42,-433.76 -263.56,-465.05 -285.68,-465.84z"/>
   <path class="fil11" d="M14991.86 11546.4c0,0 227.22,-240.35 538.02,-384.55 311.19,-144.79 418.61,-241.05 418.61,-241.05 0,0 145.27,490.67 -105.73,647.01 -251.22,156.46 -886.26,218.23 -886.26,218.23l35.36 -239.64z"/>
   <path class="fil17" d="M14928.42 11812.79l40.96 -277.91 4.89 -5c9.77,-9.95 233.76,-245.32 545.75,-389.81 302.63,-140.81 411.66,-235.97 412.85,-236.87l28.1 -25.31 10.57 36.07c5.99,20.85 146.97,510.5 -116.41,674.22 -253.08,157.75 -869.9,219.02 -896.2,221.51l-30.51 3.1zm85.9 -255.4l0 0 -29.29 201.28c128.83,-14.54 632.27,-78.92 844.8,-211.25 195.41,-121.46 131.14,-472.82 104.85,-584.82 -50.85,37.46 -170.02,116.38 -394.52,220.52 -278.32,129.15 -490.28,338.11 -525.84,374.27z"/>
   <path class="fil11" d="M14381.68 11787.43c0,0 -384.04,-298.34 -456.69,-561.8l-72.45 -263.48c0,0 371.5,106.63 503.72,322.38 132.33,215.04 192.61,370.48 192.61,370.48l-167.19 132.42z"/>
   <path class="fil17" d="M14381.68 11817.71l-14.66 -11.36c-15.93,-12.45 -391.41,-306.53 -465.13,-574.67l-83.93 -304.64 41.16 12.26c15.56,4.29 381.95,111.71 517.36,332.43 132.14,214.45 192.45,368.31 194.93,374.78l6.16 16.63 -195.89 154.57zm-494.14 -818.81l0 0 60.56 220.41c61.88,224.1 363.33,479.82 433.58,537.61l138.21 -109.51c-19.04,-44.86 -78.72,-179.37 -183.86,-350.88 -100.44,-162.81 -349.55,-263.26 -448.49,-297.63z"/>
   <path class="fil11" d="M14713.8 11643.17c0,0 -392.51,-184.16 -405.05,-630.97 -12.18,-447.11 -87.71,-485.47 -87.71,-485.47 0,0 263.77,219.81 414.44,343.48 180.46,148.06 198.29,421.49 198.29,421.49 0,0 -17.54,310.6 -119.97,351.47z"/>
   <path class="fil17" d="M14713.15 11669.44l-9.34 -4.38c-3.99,-2.09 -406.28,-196 -419.13,-652.29 -9.86,-376.87 -66.18,-454.41 -75.13,-464.77l-166.4 -138.61 188.71 96.18c2.29,0.59 5.79,3.08 9.86,7.18 38.98,32.56 270.74,225.88 409.18,338.98 186.23,152.87 205.75,426.81 206.45,438.45 -1.89,36.26 -20.93,330.14 -134.62,375.48l-9.58 3.78zm-424.29 -1055.37l0 0c19.55,73.24 38.28,194.62 43.95,397.31 10.46,386.53 320.77,572.48 380.97,605.04 58.78,-39.15 89.68,-216.93 95.84,-325.93 0,0 -19.44,-262.47 -189.42,-402.09 -96.98,-79.52 -241.46,-199.4 -331.34,-274.33z"/>
   <path class="fil11" d="M15194.56 11262.58c0,0 167.93,-383.25 49.63,-599.99 -118.18,-216.93 -412.94,-271.13 -412.94,-271.13 0,0 -217.92,364.21 -113.69,512.39 103.92,148.18 477,358.73 477,358.73z"/>
   <path class="fil17" d="M15205.72 11296.45l-22.94 -13.05c-15.82,-8.59 -378.84,-214.65 -485.16,-365.63 -111.6,-159.53 103.92,-523.43 113.18,-538.38l8.67 -14.54 16.16 3.08c12.46,2.4 307.1,58.78 429.58,283.31 122.67,224.3 -41.95,604.76 -49.13,620.8l-10.36 24.41zm-362.24 -877.79l0 0c-61.97,108.29 -181.06,365.51 -106.91,471.32 85.31,120.98 362.91,289.38 446.21,338 33.3,-87.09 134.85,-380.74 40.48,-553.95 -95.87,-175.66 -317.97,-240.63 -379.78,-255.37z"/>
   <path class="fil11" d="M14609.18 9998.83c0,0 200.8,-407.97 193.71,-711.19 -6.86,-303.12 -26.58,-426.78 -26.58,-426.78 0,0 -144.51,173.77 -202.3,419.71 -57.79,246.03 -36.86,539.09 35.17,718.26z"/>
   <path class="fil17" d="M14607.15 10057.36l-20.03 -49.61c-77.43,-191.54 -92.57,-493.15 -36.38,-732.63 58.41,-248.71 201.39,-422.28 207.27,-429.46l33.9 -40.87 8.05 52.43c1.01,5.08 20.02,128.63 26.6,429.88 7.38,305.71 -187.21,705.29 -195.89,722.12l-23.52 48.14zm152.36 -1133.09l0 0c-45.65,66.78 -123.47,198.89 -162.02,361.93 -48.93,208.96 -42.06,466.04 14.74,648.9 52.71,-118.89 171.88,-416.43 167.02,-646.93 -4.8,-182.64 -13.16,-299.92 -19.74,-363.9z"/>
   <path class="fil11" d="M14309.09 8402.95c0,0 -131.04,382.26 -142.11,670.04 -10.85,288.48 -55.19,355.46 153.58,622.3 208.85,266.45 487.25,457.4 487.25,457.4 0,0 -278.99,-878.41 -498.72,-1749.74z"/>
   <path class="fil17" d="M14851.53 10211.86l-57.19 -39.37c-2.97,-2.01 -284.19,-196 -492.54,-462.06 -183.26,-233.88 -177.28,-324.16 -164.93,-521.85 2.4,-34.78 4.69,-72.85 5.99,-116.41 11.15,-288.28 138.21,-661.56 143.49,-677.18l26.1 -76.04 20.22 78.33c216.65,860.13 495.36,1739.73 498.05,1748.4l20.81 66.18zm-544.84 -1721.91l0 0c-38.39,126.94 -107.93,380.65 -115.5,584.03 -1.9,43.84 -4.38,82.51 -6.39,117.59 -12.65,196 -17.14,269.64 154.37,489.06 147.48,188.04 331.81,339.3 423.9,409.55 -67.48,-216.63 -278.94,-905.19 -456.38,-1600.23z"/>
   <path class="fil11" d="M13399.15 8633.93c0,0 75.05,515.3 321.87,814.94 246.93,299.64 478.1,348.25 699.13,460.36 221.03,112 207.95,-91.77 207.95,-91.77 0,0 -547.44,-1005.64 -1228.95,-1183.53z"/>
   <path class="fil17" d="M14533.08 9966.82c-34.46,0.32 -76.32,-11.86 -123.55,-36.26 -48.04,-23.93 -95.16,-44.94 -145.1,-66.98 -179.85,-79 -365.2,-160.83 -561.8,-399.37 -248.42,-301.45 -324.07,-805.37 -327.23,-827.18l-5.2 -35.39 35.17 8.98c357.85,93.78 677.52,413.93 882.19,666.93 221.23,272.05 360.12,525.95 361.62,528.24l2.88 10.48c0.42,2.68 4.29,73.53 -36.86,117.48 -20.94,21.8 -48.22,33.07 -82.12,33.07zm-1103.79 -1299.59l0 0c22.23,122.65 108.53,521.15 310.4,766.38 189.14,229.79 369.5,309.02 543.78,385.94 48.33,21.41 98.95,43.75 147.59,68.35 40.64,20.54 74.93,31.1 102.02,31.1 19.94,0 35.68,-5.87 46.95,-18.05 22.12,-23.41 24.6,-62.96 24.6,-77.02 -42.45,-75.62 -553.24,-965.47 -1175.34,-1156.7z"/>
   <path class="fil11" d="M13544.85 9968.43c0,0 237.64,247.61 517.96,252.61 280.51,4.78 533.32,-69.57 533.32,-69.57l-189.73 -441.12c0,0 -675.83,245.04 -861.55,258.08z"/>
   <path class="fil17" d="M14093.2 10245.08l0 0c-10.25,0 -20.54,0 -30.99,-0.2 -287.1,-5.08 -524.45,-249.41 -534.62,-259.98l-35.17 -36.86 50.93 -3.39c179.96,-12.96 847.99,-254.5 855.08,-256.99l20.9 -7.99 209.57 487.08 -25.91 7.49c-9.77,2.88 -241.53,70.25 -509.79,70.84zm-494.97 -259.67l0 0c75.25,66.15 259.7,207.87 464.89,211.54 222.69,4.18 428.78,-43.25 500.33,-61.69l-170.3 -394.89c-108.24,38.67 -584.25,207.28 -794.92,245.04z"/>
   <path class="fil13" d="M8281.58 16853.59c0.29,28.5 -22.73,51.72 -51.43,52.12 -29.18,0 -52.2,-23.11 -52.2,-51.92 -0.31,-28.7 23.02,-52.12 51.72,-52.12 28.89,0 51.91,22.94 51.91,51.92z"/>
   <path class="fil11" d="M13339.69 9445.34c0,0 180.78,240.04 452.4,339.58 271.56,99.76 650.12,110.41 764.01,89.6 114.49,-20.54 -435.16,-415.14 -706.81,-472.82 -272.24,-57.32 -509.6,43.64 -509.6,43.64z"/>
   <path class="fil17" d="M14420.55 9907.42c-175.07,0.28 -434.07,-25.62 -636.34,-99.96 -275.23,-101.12 -456.1,-337.69 -463.47,-347.97l-18.53 -24.6 28.3 -11.95c5.96,-2.49 149.06,-62.29 342.69,-62.79 62.17,-0.29 122.76,5.87 180.95,18.04 236.96,50.03 742.77,379.47 741.58,482.2 0,15.23 -9.57,32.88 -35.28,37.97 -31.58,5.56 -81.52,9.06 -139.9,9.06zm-1040.92 -451.32l0 0c54.41,63.19 210.75,229.19 421.22,306.22 196.2,72.57 448.69,97.87 619.39,97.17 51.52,0 95.67,-2.69 124.68,-7.37 -39.18,-78.33 -461.66,-376.47 -700.74,-427.01 -54.69,-11.55 -112.2,-17.43 -170.98,-17.03 -132.93,0.2 -242.95,30.79 -293.57,48.02z"/>
   <path class="fil18" d="M15100.33 10200.37c0.79,238.37 -191.94,431.77 -430.08,432.48 -238.35,0.59 -431.86,-191.93 -432.57,-430.39 -0.51,-238.26 192.22,-431.58 430.08,-432.17 238.54,-0.8 431.98,191.93 432.57,430.08z"/>
   <path class="fil18" d="M15213.12 11856.29c0.48,238.46 -191.54,431.98 -430,432.57 -238.15,0.59 -431.78,-191.93 -432.26,-430.48 -0.59,-238.17 192.11,-431.49 430.09,-432.08 238.14,-0.79 431.46,191.93 432.17,429.99z"/>
   <path class="fil18" d="M15142.64 14344.79c0.71,246.84 -198.88,447.82 -446.01,448.41 -246.82,0.31 -447.51,-199.28 -448.1,-446.32 -0.6,-246.93 198.68,-447.51 445.61,-448.22 246.94,-0.59 448.02,199.2 448.5,446.13z"/>
   <path class="fil18" d="M13904.57 17290.28c0.59,220.83 -177.59,399.61 -398,400.09 -220.63,0.79 -399.88,-177.56 -400.79,-398 -0.59,-220.52 177.96,-399.29 398.79,-400.17 220.32,-0.39 399.49,177.76 400,398.08z"/>
   <path class="fil15" d="M8845.36 15195.26c-1223.78,3 -1501.79,-1054.58 -1502.8,-1425.37l-4.98 -1891 2990.72 -6.69 0 95.87c2.01,1378.63 6.19,1647.28 7.49,1748.91 0.39,20.73 0.79,34.18 0.79,48.64 0.99,369.58 -270.94,1426.34 -1491.22,1429.64zm-1411.43 -3221.01l2798.62 -5.99c2.2,1667.2 8.07,1717.14 8.36,1797.76 0.9,396.18 -296.73,1330.38 -1395.75,1332.98 -1110.49,2.99 -1405.83,-932.11 -1406.74,-1329.6 -0.31,-82.02 -4.49,-1795.15 -4.49,-1795.15z"/>
   <path class="fil8" d="M15502 17505.94l-316.9 831.36 799.97 573.26c0,0 -429.57,655.49 -1228.44,513.58 -798.87,-141.88 -990.5,-156.94 -1326.01,-140.19 -335.31,16.72 -1101.7,130.33 -1179.94,785.51 -16.73,141.91 -83.7,-1501.08 -83.7,-1501.08 0,0 -256.39,-286.79 -495.84,-430 -240.46,-142.78 238.15,-367.48 557.82,-384.23 319.27,-17.12 1246.01,28.3 1964.46,10.76 718.45,-18.02 1229.03,-178.77 1308.58,-258.97z"/>
   <path class="fil15" d="M12170.48 20031.67c-14.03,-107.62 -23.61,-313 -42.03,-705.32 -12.17,-257.18 -23.13,-514.48 -29.01,-652.5 -972.55,395.32 -2021.43,613.04 -2960.83,615.64 -60.08,0.51 -121.15,-0.4 -181.85,-2.09 -1441.79,-39.07 -3062.66,-666.76 -3421.5,-812.94 -79.21,107.23 -343.37,865.25 -168.49,1212.91 191.51,381.16 1496.81,880.19 3538.07,1053.48 142.4,12.86 288.8,18.45 435.06,17.94 1418.88,-3.39 2593.23,-598.49 2830.58,-727.12zm-127.53 -1489.44c-90.87,-93.08 -255.01,-250.01 -408.87,-342.18 -111.4,-65.99 -103.92,-151.26 -95.64,-185.16 44.63,-180.55 443.02,-319.86 686.87,-332.72 45.53,-2.2 104.82,-3.89 180.47,-3.89 150.86,-0.4 345.37,3.39 570.38,7.68 277.21,6.07 591.2,11.67 890.73,11.16 118.89,-0.4 225.12,-1.19 324.55,-4.3 726.73,-17.93 1201.86,-179.16 1259.74,-237.86l238.77 -239.73 -417.91 1095.91 810.62 580.55 -37.88 57.4c-14.83,23.1 -377.85,565.5 -1061.62,567.19l-0.42 0c-78.02,0.51 -158.63,-6.78 -238.85,-20.93 -643.83,-114.09 -886.55,-145.39 -1128.9,-144.88 -53.9,0 -109.91,1.7 -180.56,5.09 -309.72,15.84 -1035.74,116.57 -1111.58,716.87l2 37.25 -17.54 9.86c-16.24,23.22 -40.84,28.7 -52.11,30 -210.95,115.78 -1434.14,749.55 -2914.99,752.94 -150.47,0.9 -300.83,-5.59 -447.62,-18.44 -1897.38,-161.24 -3400.18,-626.88 -3654.26,-1131.9 -70.87,-140.58 -89.09,-309.58 -77.74,-480.59 -123.77,-102.05 -452.79,-251.7 -1314.25,-249.53 -105.13,0.4 -216.54,3 -331.42,7.68 -60.59,2.6 -121.57,4.3 -181.17,4.3 -1090.63,2.57 -1646.97,-395.71 -1669.88,-412.85l-78.05 -57.09 875.31 -663.26 -547.36 -1152.94 285.79 277.05c392.32,381.13 1211.02,423.19 1792.67,421.89 254.31,-0.48 506.29,-11.16 729.02,-20.23 217.83,-8.95 419.91,-17.03 576.65,-14.55 616.43,12.07 861.27,248.72 875.62,404.78 5.36,59.57 -27.12,108.41 -79.04,119.17 -55.9,15.06 -370.17,228.09 -499.62,407.37 361.41,146.97 1953.47,762.29 3365.69,800.37 59.2,1.3 118.97,2.17 177.78,2.17 920.44,-2.57 1949.29,-216.54 2904.62,-603.65zm-6863.63 567.19c61.97,-385.03 235.47,-740.49 247.24,-763.59 94.15,-201.49 450.08,-468.64 598.46,-535.92 -33.78,-75.42 -227.89,-244.42 -729.52,-254.2 -153.35,-2.99 -352.63,5.48 -568.77,14.55 -223.32,8.98 -477.23,19.35 -734.3,20.14 -509.79,1.3 -1195.37,-31.3 -1656.75,-288.68l305.63 642.81 -807.76 612.24c189.45,105.53 694.66,335.71 1500.2,333.62 57.51,0 116.49,-1.78 175.18,-4.38 116.38,-5.08 230.1,-7.28 337.01,-7.68 754.13,-2.09 1138.09,111.91 1333.38,231.09zm7006.93 -626.37c25.5,21.92 45.93,49.32 53.02,90.08l63.75 1142.54c147.08,-230.57 459.6,-470.33 1123.73,-503.32 73.75,-3.87 131.54,-5.57 187.53,-5.57 253,-0.9 500.44,30.88 1154.72,146.57 72.06,12.86 143.49,19.35 213.54,19.35 484.91,-1.3 793.9,-317.29 900.62,-447.22l-785.32 -562.03 271.65 -711.27c-236.37,85.3 -660.97,171.88 -1174.35,184.73 -100.75,2.6 -207.98,3.5 -327.86,3.9 -301.22,0.39 -616.2,-5.6 -894.11,-11.16 -223.91,-3.9 -417.94,-8.16 -567,-7.68 -73.24,0 -130.16,1.21 -173.68,3.78 -267.56,14.15 -556.74,166.83 -554.94,225.13 0,0 3.99,10.25 30.09,26.18 196.71,117 399.18,322.38 478.61,405.99z"/>
   <path class="fil15" d="M3155.63 18542.65l-126.27 0.4 -1.3 -478.02c-46.63,43.36 -100.84,75.84 -163.91,96.46l-0.31 -114.88c33.5,-11.16 68.95,-31.3 107.73,-61.8 38.87,-30.4 65.67,-65.56 79.91,-106.32l102.73 -0.4 1.42 664.56z"/>
   <path class="fil15" d="M3453.15 18185.08c-32.6,-14.16 -56.72,-32.6 -71.47,-57.01 -14.94,-24.4 -22.4,-50.61 -22.71,-79.31 0,-49.74 17.15,-90.48 51.52,-122.68 34.47,-32.08 83.3,-48.81 146.49,-48.81 63.27,0 112,15.82 146.77,48.42 34.77,31.69 52.51,72.45 52.51,121.77 0.31,30.9 -7.85,57.9 -23.81,81.91 -15.85,24.01 -38.36,42.46 -67.06,55.31 36.86,14.55 65.08,35.56 83.7,63.87 19.34,28.3 29.01,60.87 29.2,98.15 0,61.27 -19.54,110.62 -58.69,148.78 -38.67,38.16 -90.48,57.88 -154.96,57.88 -59.97,0.42 -109.91,-15.43 -150.28,-47.12 -47.03,-36.86 -70.92,-88.38 -71.32,-153.07 0,-36.07 9.07,-69.06 26.58,-98.64 17.35,-29.99 45.56,-53.13 83.53,-69.45zm15.14 155.63l0 0c0,34.78 8.87,62.2 27.11,81.41 17.83,19.75 40.14,29.6 66.95,29.6 26.21,0 47.85,-9.85 64.96,-28.69 16.95,-18.85 25.62,-45.85 25.62,-81.41 0,-31.38 -8.98,-55.82 -26.49,-74.63 -17.85,-18.95 -39.77,-27.91 -66.38,-27.91 -31.1,0 -54.12,10.77 -69.54,32.18 -15.17,21.44 -22.74,44.54 -22.23,69.45zm10.65 -283.39l0 0c0,25.31 7.28,44.94 21.83,58.69 14.26,14.16 33.27,21.44 57.4,21.44 23.61,0 43.24,-7.68 57.51,-21.83 14.23,-14.15 21.72,-33.87 21.41,-59.21 0,-24.01 -7.18,-42.82 -21.72,-57.39 -13.96,-14.13 -33.28,-21.02 -56.3,-21.02 -24.32,0.4 -44.04,7.77 -58.3,21.84 -14.55,14.15 -21.83,33.86 -21.83,57.48z"/>
   <path class="fil15" d="M4183.94 18540.08l-126.54 0.39 -1.19 -477.62c-46.55,42.94 -100.84,75.03 -163.83,96.07l-0.48 -115.3c33.16,-10.26 69.04,-30.88 107.82,-61.38 38.95,-30.4 65.16,-65.56 79.79,-106.72l102.65 0 1.78 664.56z"/>
   <path class="fil15" d="M4622.02 18539.23l-0.31 -133.32 -270.44 0.39 -0.31 -110.61 285.8 -421.02 106.52 -0.39 1.19 419.72 82.02 0 0.48 111 -82.19 0.4 0.28 133.44 -123.04 0.39zm-0.51 -244.84l0 0 -0.4 -226.4 -151.26 226.82 151.66 -0.42z"/>
   <path class="fil15" d="M12978.87 18930.25l-126.65 0.39 -1.3 -478.01c-46.44,42.85 -100.73,75.42 -163.92,95.95l-0.2 -114.79c33.48,-10.76 68.95,-30.88 107.93,-61.78 38.45,-30.39 65.25,-65.56 79.6,-106.32l102.74 0 1.8 664.56z"/>
   <path class="fil15" d="M13276.11 18572.22c-32.57,-13.75 -56.69,-32.56 -71.43,-57 -14.75,-24.01 -22.52,-50.62 -22.52,-79.31 -0.22,-49.72 17.12,-90.48 51.3,-122.65 34.49,-32.09 83.33,-48.44 146.8,-48.44 62.87,-0.4 111.49,15.84 146.48,48.02 34.97,32.2 52.4,72.45 52.8,122.27 0,30.4 -8.17,57.8 -24.1,81.81 -15.65,23.61 -38.47,42.06 -67.08,54.91 36.77,14.55 64.99,35.98 83.72,64.29 19.52,28.27 28.89,60.87 28.89,98.13 0.29,60.5 -19.03,110.21 -57.99,148.38 -39.06,38.58 -90.78,57.9 -155.46,58.3 -60.08,0 -110.19,-15.45 -150.16,-47.54 -47.23,-36.86 -71.24,-87.88 -71.35,-153.04 0,-35.59 9.06,-68.56 26.41,-98.67 17.74,-29.6 45.53,-52.71 83.69,-69.46zm15.06 156.07l0 0c0,34.26 8.95,61.77 27.09,81.01 17.73,19.71 40.27,29.6 66.97,29.6 26.3,0 47.82,-9.89 65.08,-28.3 16.83,-19.24 25.5,-46.24 25.5,-81.41 0,-31.3 -8.87,-56.21 -26.1,-74.66 -17.85,-19.23 -39.65,-28.69 -66.77,-28.69 -30.99,0.39 -54.21,11.15 -69.46,32.59 -14.94,21.41 -22.31,44.55 -22.31,69.86zm10.76 -283.4l0 0c0,25.31 7.06,44.54 21.72,58.78 14.24,14.15 33.27,20.93 57.2,20.93 24.12,0 43.56,-7.29 57.79,-21.41 14.15,-14.58 21.44,-34.29 21.44,-59.6 0,-23.53 -7.68,-42.85 -21.44,-57 -14.55,-14.15 -33.39,-21.41 -57.08,-21.02 -24.04,0 -43.67,6.87 -57.91,21.41 -14.66,14.66 -21.72,33.47 -21.72,57.91z"/>
   <path class="fil15" d="M13790.31 18570.95c-32.79,-14.12 -56.69,-32.57 -71.55,-56.97 -14.85,-24.04 -22.71,-50.65 -22.71,-79.35 -0.19,-49.31 16.72,-90.47 51.61,-122.64 34.18,-32.6 83.3,-48.44 146.49,-48.84 62.76,0 111.48,16.24 146.76,48.44 34.58,32.09 52.43,72.43 52.43,121.77 0.4,30.88 -8.08,57.88 -23.73,81.81 -15.84,24.12 -38.67,42.45 -67.05,55.39 36.58,14.54 64.57,35.98 83.69,64.29 19.24,28.3 28.61,60.47 28.9,97.76 0,60.87 -19.41,110.58 -57.99,149.17 -39.07,38.16 -90.87,57.48 -155.56,57.48 -59.68,0.39 -109.99,-15.45 -150.04,-46.72 -47.46,-37.29 -71.47,-88.41 -71.47,-153.07 -0.28,-36.07 8.79,-69.06 26.53,-98.66 17.51,-29.97 45.53,-53.59 83.69,-69.86zm15.14 155.67l0 0c0,34.69 8.87,62.17 27.12,81.8 17.74,19.35 40.14,29.21 67.06,29.21 25.81,0 47.62,-9.86 64.45,-28.3 17.26,-19.33 25.62,-46.33 25.62,-81.92 0,-30.79 -8.55,-55.7 -26.1,-74.15 -17.93,-19.32 -39.77,-28.27 -66.46,-28.27 -31.1,0 -54.4,10.65 -69.46,32.17 -14.86,21.41 -22.23,44.55 -22.23,69.46zm10.68 -283.4l0 0c0,25.71 7.17,44.94 21.72,59.18 14.24,13.67 33.27,21.44 57,20.93 24.1,0 43.33,-7.26 57.68,-21.41 14.35,-14.55 21.72,-34.29 21.72,-59.6 0,-23.62 -7.76,-42.85 -21.72,-57 -14.35,-14.16 -33.39,-21.53 -56.6,-21.53 -24.49,0.51 -43.84,7.37 -58.39,21.92 -14.55,14.15 -21.41,33.5 -21.41,57.51z"/>
   <path class="fil15" d="M14198.78 18773.76l122.85 -13.75c2.99,24.91 11.07,43.75 23.42,55.7 12.85,11.66 29.4,17.62 50.42,17.62 26.21,0 48.04,-11.94 66.69,-36.07 18.21,-24.4 29.68,-74.11 34.77,-150.47 -32.01,37.8 -71.55,55.82 -119.6,56.22 -52.2,0 -96.86,-19.72 -134.82,-60 -37.96,-39.86 -56.89,-92.17 -56.89,-156.54 -0.31,-67.34 19.52,-121.38 58.9,-162.03 40.16,-41.15 90.58,-62.17 152.36,-62.67 67.06,-0.4 122.16,25.81 165.49,78.13 43.05,51.4 65,136.71 65.2,255.49 0.2,120.86 -21.84,208.37 -66.66,262.38 -44.46,53.1 -102.85,80.22 -174.91,80.22 -51.52,0.39 -93.55,-13.36 -125.44,-40.37 -31.89,-27.9 -52.82,-69.06 -61.78,-123.86zm286.37 -277.83l0 0c-0.28,-40.73 -9.66,-72.54 -28.59,-94.74 -18.72,-22.74 -40.64,-34.29 -65.27,-34.29 -23.51,0 -43.05,9.86 -57.99,28.3 -15.54,18.84 -23.51,48.81 -23.51,90.87 0,42.85 8.87,74.15 25.71,94.37 16.83,19.63 38.05,29.49 63.36,29.49 24.71,0 44.94,-9.86 61.49,-29.18 16.75,-19.23 24.8,-47.53 24.8,-84.82z"/>
   <path class="fil15" d="M6058.52 19782.59c158.04,-290.26 236.77,-436.04 395,-726.73 96.16,52.31 144.68,77.14 243.04,124.37 -38.05,231.88 -54.01,348.96 -78.92,583.91 156.26,-177.05 231.28,-268.03 376.07,-452.79 100.64,41.16 151.37,60.51 253.8,96.07 -109.09,312.09 -163.52,468.24 -271.82,780.73 -73.36,-25.7 -110.02,-38.55 -182.28,-66.46 93.27,-243.15 140.22,-364.81 233.49,-607.95 -162.13,216.93 -246.54,323.25 -424.29,530.84 -73.84,-31.7 -110.73,-47.66 -184.25,-81.92 34.57,-270.54 55.39,-405.17 106.2,-671.02 -117.08,232.86 -175.07,349.46 -291.84,581.82 -70.25,-34.77 -104.74,-53.19 -174.2,-90.87z"/>
   <path class="fil15" d="M8071.49 20460.87c-88.61,-13.75 -132.85,-21.04 -221.23,-38.19 -20.93,-80.58 -30.99,-120.86 -49.52,-201.48 -155.47,-31.78 -232.89,-50.62 -386.55,-92.56 -51.41,63.38 -78.02,94.65 -131.71,157.33 -84.8,-24.49 -126.97,-37.76 -210.67,-65.25 256.28,-263.68 374.86,-401.69 592.22,-687.27 73.92,19.32 110.59,27.88 184.42,44.63 67.09,353.65 111.63,531.24 223.04,882.79zm-304.33 -389.32l0 0c-26.41,-131.23 -37.97,-196.82 -58.3,-327.94 -77.43,107.5 -117,161.12 -199.4,266.25 102.45,27.4 154.26,39.86 257.7,61.69z"/>
   <path class="fil15" d="M8180.6 20476.72c44.66,-327.63 66.98,-491.35 111.12,-819.8 149.57,20.62 224.31,28.42 374.38,37.77 94.15,6.38 162.51,15.84 205.27,32.2 42.85,15.33 76.83,42.45 103.05,80.61 25.7,38.16 38.95,81.41 38.95,130.33 0,62.09 -20.34,114 -62.6,153.47 -42.14,40.36 -191.11,71.15 -191.11,71.15 -0.29,2.17 75.25,47.62 102.14,72.93 27.11,26.1 63.66,71.55 110.81,135.81 48.02,65.17 72.93,97.37 123.46,161.23 -98.66,1.3 -147.87,0.91 -246.33,-1.3 -57.8,-73.72 -85.79,-111.01 -139.91,-186.03 -48.33,-66.46 -79.8,-108.92 -96.74,-127.33 -17.55,-18.05 -36.08,-30.91 -56.61,-38.59 -19.72,-7.65 -52.12,-13.33 -96.46,-17.63 -15.54,-1.69 -23.62,-2.48 -38.95,-3.78 -14.35,137.22 -21.64,205.78 -35.6,343.39 -81.8,-8.08 -122.95,-13.27 -204.87,-24.43zm253.52 -450.59l0 0c55.9,5.96 83.89,8.56 140.18,12.46 91.18,7.26 148.1,6.35 171.32,0.79 22.82,-5.99 40.84,-16.75 54.01,-32.6 13.84,-16.24 20.62,-36.86 21.6,-61.66 0.82,-27.43 -6.66,-50.65 -22.59,-68.27 -15.57,-17.94 -38.39,-29.49 -67.37,-35.08 -14.66,-3 -59.49,-6.08 -133.64,-11.56 -57,-4.29 -85.5,-6.86 -142.39,-12.96 -8.27,83.72 -12.57,126.06 -21.12,208.88z"/>
   <path class="fil15" d="M9201.46 20530.73c-9.97,-331.02 -15.05,-496.44 -24.91,-826.58 71.24,-2.6 107.31,-3.9 178.46,-8.56 21.13,329.64 31.49,494.65 52.43,824.88 -82.43,5.09 -123.58,6.87 -205.98,10.26z"/>
   <path class="fil15" d="M10191.7 20110.14c78.92,5.19 118.98,6.89 199,8.58 -8.17,94.77 -42.34,172 -102.54,229.39 -61.07,57.4 -146.48,96.86 -255.6,114.88 -134.51,22.32 -251.31,-0.39 -345.17,-65.16 -93.98,-65.56 -144.2,-164.23 -156.04,-294.08 -12.26,-137.19 18.42,-246.62 87.37,-331.02 68.67,-84.48 162.25,-134.23 284.61,-154.73 107.03,-18.05 199.2,-6.5 279.42,37.25 47.31,25.31 89.28,68.16 124.85,126.86 -68.56,33.08 -103.05,48.53 -173.69,78.92 -18.93,-39.86 -48.13,-68.55 -86.69,-86.21 -38.36,-18.42 -81.12,-22.71 -129.45,-14.94 -66.47,11.16 -117.09,40.76 -153.16,89.99 -36.35,49.32 -49.23,123.07 -36.97,220.41 12.85,103.75 44.15,175.3 94.48,213.06 50.9,38.16 113.1,51.02 185.13,39.46 53.42,-9.37 96.58,-31.29 129.26,-65.98 32.88,-35.17 51.32,-84.09 55.19,-146.68z"/>
   <path class="fil15" d="M11505.73 20010.26c-84.6,36.86 -126.57,54.4 -212.07,88.29 -61.38,-56.21 -91.78,-84.9 -151.35,-143.21 -150.86,57.51 -227.3,84.01 -380.85,130.36 -9.88,81.49 -15.36,122.17 -27.51,204.06 -84.91,24.91 -127.76,36.07 -213.23,57.51 75.73,-360.12 102.11,-539.8 134.31,-898.22 72.93,-22.74 109.4,-35.59 181.57,-61.8 248.12,262.38 382.34,387.63 669.13,623.01zm-472.85 -162.93l0 0c-92.96,-96.07 -138.21,-144.88 -226.59,-245.24 -7.97,132.45 -13.25,199.4 -27.09,332.24 102.03,-32.09 153.04,-49.74 253.68,-87zm-402.17 -440.34l0 0c11.55,-74.14 16.64,-111 25.9,-185.63 70.48,-23.53 105.33,-36.5 174.99,-62.6 -36.78,86.21 -56.69,129.46 -98.16,214.76 -40.76,13.73 -61.27,20.62 -102.73,33.47z"/>
   <path class="fil19" d="M7433.85 11974.28l2798.98 -5.99c2,1666.92 7.68,1717.14 7.99,1797.56 0.88,396.38 -296.95,1330.58 -1395.86,1333.37 -1110.09,2.8 -1405.35,-932.3 -1406.34,-1329.79 -0.39,-82.31 -4.77,-1795.15 -4.77,-1795.15z"/>
   <path class="fil16" d="M9787.86 13149.45l-89.68 258.09 -183.15 -44.55 67.45 -272.01 -312.97 -57.71 -57.99 276.11 -214.45 -26.58 -6.89 -271.65 -318.37 -3.58 -5.28 271.64 -214.45 27.6 -59.88 -276.14 -312.49 60.11 68.95 271.34 -182.96 45.42 -114.08 -253.4 -229 109.82 126.26 258.99c0,0 130.53,183.63 1049.67,154.26l16.87 0c919.53,24.88 1100.09,-155.16 1100.09,-155.16l115.1 -258.09 -242.75 -114.51zm-2026.44 503.13c0,0 447.23,124.56 1035.86,123.07 589.11,-1.5 1067.13,-131.63 1067.13,-131.63 -17.94,85.08 -46.44,191.91 -46.44,191.91 -202.39,45.84 -638.06,102.84 -1024.78,103.94 -386.33,1.1 -899.71,-88.58 -999.96,-107.62 -13.67,-49.54 -31.81,-179.67 -31.81,-179.67z"/>
  </g>
 </g>
</svg>
